<?xml version="1.0" encoding="UTF-8" standalone="no"?>
<!DOCTYPE svg PUBLIC "-//W3C//DTD SVG 1.1//EN"
 "http://www.w3.org/Graphics/SVG/1.1/DTD/svg11.dtd">
<!-- Generated by graphviz version 2.40.1 (20161225.0304)
 -->
<!-- Title: G Pages: 1 -->
<svg width="793pt" height="449pt"
 viewBox="0.00 0.00 793.21 448.87" xmlns="http://www.w3.org/2000/svg" xmlns:xlink="http://www.w3.org/1999/xlink">
<g id="graph0" class="graph" transform="scale(1 1) rotate(0) translate(4 444.8688)">
<title>G</title>
<polygon fill="#ffffff" stroke="transparent" points="-4,4 -4,-444.8688 789.2124,-444.8688 789.2124,4 -4,4"/>
<!-- guess -->
<g id="node1" class="node">
<title>guess</title>
<polygon fill="none" stroke="#000000" points="202.4825,-338.4688 148.4825,-338.4688 148.4825,-302.4688 202.4825,-302.4688 202.4825,-338.4688"/>
<text text-anchor="middle" x="175.4825" y="-316.2688" font-family="Times,serif" font-size="14.00" fill="#000000">guess</text>
</g>
<!-- op_1 -->
<g id="node5" class="node">
<title>op_1</title>
<polygon fill="none" stroke="#000000" points="159.714,-229.4688 191.2509,-229.4688 202.4825,-265.4688 148.4825,-265.4688 159.714,-229.4688"/>
<text text-anchor="middle" x="175.4825" y="-243.2688" font-family="Times,serif" font-size="14.00" fill="#000000">*</text>
</g>
<!-- guess&#45;&gt;op_1 -->
<g id="edge2" class="edge">
<title>guess&#45;&gt;op_1</title>
<path fill="none" stroke="#000000" d="M169.5667,-302.4239C168.7683,-294.3516 168.543,-284.6452 168.8907,-275.6505"/>
<polygon fill="#000000" stroke="#000000" points="172.3905,-275.7695 169.5623,-265.5592 165.4059,-275.3047 172.3905,-275.7695"/>
</g>
<!-- guess&#45;&gt;op_1 -->
<g id="edge3" class="edge">
<title>guess&#45;&gt;op_1</title>
<path fill="none" stroke="#000000" d="M181.3982,-302.4239C182.1966,-294.3516 182.422,-284.6452 182.0742,-275.6505"/>
<polygon fill="#000000" stroke="#000000" points="185.559,-275.3047 181.4027,-265.5592 178.5745,-275.7695 185.559,-275.3047"/>
</g>
<!-- op_4 -->
<g id="node12" class="node">
<title>op_4</title>
<polygon fill="none" stroke="#000000" points="299.714,-229.4688 331.2509,-229.4688 342.4825,-265.4688 288.4825,-265.4688 299.714,-229.4688"/>
<text text-anchor="middle" x="315.4825" y="-243.2688" font-family="Times,serif" font-size="14.00" fill="#000000">/</text>
</g>
<!-- guess&#45;&gt;op_4 -->
<g id="edge15" class="edge">
<title>guess&#45;&gt;op_4</title>
<path fill="none" stroke="#000000" d="M202.8082,-306.2204C225.0072,-294.6452 256.4655,-278.2419 280.5027,-265.7083"/>
<polygon fill="#000000" stroke="#000000" points="282.395,-268.6689 289.6437,-260.9419 279.1585,-262.462 282.395,-268.6689"/>
</g>
<!-- op_5 -->
<g id="node13" class="node">
<title>op_5</title>
<polygon fill="none" stroke="#000000" points="141.714,-19.1344 173.2509,-19.1344 184.4825,-55.1344 130.4825,-55.1344 141.714,-19.1344"/>
<text text-anchor="middle" x="157.4825" y="-32.9344" font-family="Times,serif" font-size="14.00" fill="#000000">+</text>
</g>
<!-- guess&#45;&gt;op_5 -->
<g id="edge17" class="edge">
<title>guess&#45;&gt;op_5</title>
<path fill="none" stroke="#000000" d="M159.4878,-302.0035C151.8233,-291.9278 143.4608,-278.8112 139.4825,-265.4688 118.6546,-195.6179 136.8824,-108.7301 148.914,-65.0163"/>
<polygon fill="#000000" stroke="#000000" points="152.2892,-65.9428 151.6648,-55.3663 145.5574,-64.0237 152.2892,-65.9428"/>
</g>
<!-- tmp -->
<g id="node2" class="node">
<title>tmp</title>
<polygon fill="none" stroke="#000000" points="342.4825,-169.8688 288.4825,-169.8688 288.4825,-133.8688 342.4825,-133.8688 342.4825,-169.8688"/>
<text text-anchor="middle" x="315.4825" y="-147.6688" font-family="Times,serif" font-size="14.00" fill="#000000">tmp</text>
</g>
<!-- op_2 -->
<g id="node6" class="node">
<title>op_2</title>
<polygon fill="none" stroke="#000000" points="315.714,-19.1344 347.2509,-19.1344 358.4825,-55.1344 304.4825,-55.1344 315.714,-19.1344"/>
<text text-anchor="middle" x="331.4825" y="-32.9344" font-family="Times,serif" font-size="14.00" fill="#000000">&#45;</text>
</g>
<!-- tmp&#45;&gt;op_2 -->
<g id="edge5" class="edge">
<title>tmp&#45;&gt;op_2</title>
<path fill="none" stroke="#000000" d="M313.9159,-133.5554C313.3418,-125.9823 312.7639,-117.1086 312.4825,-109.0688 312.2213,-101.6067 311.2492,-99.6329 312.4825,-92.2688 314.0089,-83.1541 316.8625,-73.5296 319.9027,-64.9177"/>
<polygon fill="#000000" stroke="#000000" points="323.2511,-65.9566 323.489,-55.3644 316.6977,-63.4964 323.2511,-65.9566"/>
</g>
<!-- test_1 -->
<g id="node7" class="node">
<title>test_1</title>
<ellipse fill="none" stroke="#000000" cx="717.4825" cy="-37.1344" rx="37.2693" ry="37.2693"/>
<text text-anchor="middle" x="717.4825" y="-32.9344" font-family="Times,serif" font-size="14.00" fill="#000000">test1 &lt;</text>
</g>
<!-- tmp&#45;&gt;test_1 -->
<g id="edge8" class="edge">
<title>tmp&#45;&gt;test_1</title>
<path fill="none" stroke="#000000" d="M342.5103,-147.4567C381.8522,-140.7517 457.013,-126.8727 519.4825,-109.0688 573.4217,-93.696 633.7901,-70.9272 673.5287,-55.1401"/>
<polygon fill="#000000" stroke="#000000" points="674.9356,-58.347 682.9224,-51.3854 672.3376,-51.847 674.9356,-58.347"/>
</g>
<!-- op_3 -->
<g id="node9" class="node">
<title>op_3</title>
<polygon fill="none" stroke="#000000" points="412.714,-19.1344 444.2509,-19.1344 455.4825,-55.1344 401.4825,-55.1344 412.714,-19.1344"/>
<text text-anchor="middle" x="428.4825" y="-32.9344" font-family="Times,serif" font-size="14.00" fill="#000000">&#45;</text>
</g>
<!-- tmp&#45;&gt;op_3 -->
<g id="edge10" class="edge">
<title>tmp&#45;&gt;op_3</title>
<path fill="none" stroke="#000000" d="M342.6522,-148.8145C385.0225,-143.4297 463.7313,-130.7195 480.4825,-109.0688 492.557,-93.4626 479.5431,-75.4715 463.5175,-61.3857"/>
<polygon fill="#000000" stroke="#000000" points="465.4562,-58.4491 455.5052,-54.8122 461.0162,-63.8609 465.4562,-58.4491"/>
</g>
<!-- test_2 -->
<g id="node10" class="node">
<title>test_2</title>
<ellipse fill="none" stroke="#000000" cx="554.4825" cy="-37.1344" rx="37.2693" ry="37.2693"/>
<text text-anchor="middle" x="554.4825" y="-32.9344" font-family="Times,serif" font-size="14.00" fill="#000000">test2 &lt;</text>
</g>
<!-- tmp&#45;&gt;test_2 -->
<g id="edge12" class="edge">
<title>tmp&#45;&gt;test_2</title>
<path fill="none" stroke="#000000" d="M342.6272,-147.6671C386.5868,-140.4994 471.0066,-125.1196 496.4825,-109.0688 509.2751,-101.0089 520.5098,-89.1334 529.5997,-77.3443"/>
<polygon fill="#000000" stroke="#000000" points="532.4489,-79.3775 535.5428,-69.2444 526.8052,-75.2365 532.4489,-79.3775"/>
</g>
<!-- tmp&#45;&gt;op_5 -->
<g id="edge18" class="edge">
<title>tmp&#45;&gt;op_5</title>
<path fill="none" stroke="#000000" d="M288.1825,-147.215C250.9647,-140.3129 187.1273,-126.3044 171.4825,-109.0688 160.8856,-97.3945 157.2675,-80.1666 156.3548,-65.4974"/>
<polygon fill="#000000" stroke="#000000" points="159.851,-65.2954 156.1072,-55.3841 152.8531,-65.4668 159.851,-65.2954"/>
</g>
<!-- op_6 -->
<g id="node14" class="node">
<title>op_6</title>
<polygon fill="none" stroke="#000000" points="31.714,-19.1344 63.2509,-19.1344 74.4825,-55.1344 20.4825,-55.1344 31.714,-19.1344"/>
<text text-anchor="middle" x="47.4825" y="-32.9344" font-family="Times,serif" font-size="14.00" fill="#000000">+</text>
</g>
<!-- tmp&#45;&gt;op_6 -->
<g id="edge20" class="edge">
<title>tmp&#45;&gt;op_6</title>
<path fill="none" stroke="#000000" d="M288.2261,-147.0984C256.2057,-140.8975 201.9379,-128.5049 158.4825,-109.0688 129.9833,-96.3222 100.4485,-76.8263 79.0157,-61.3449"/>
<polygon fill="#000000" stroke="#000000" points="81.0645,-58.507 70.9302,-55.417 76.9256,-64.1524 81.0645,-58.507"/>
</g>
<!-- x -->
<g id="node3" class="node">
<title>x</title>
<polygon fill="none" stroke="#000000" points="488.4825,-338.4688 434.4825,-338.4688 434.4825,-302.4688 488.4825,-302.4688 488.4825,-338.4688"/>
<text text-anchor="middle" x="461.4825" y="-316.2688" font-family="Times,serif" font-size="14.00" fill="#000000">x</text>
</g>
<!-- x&#45;&gt;op_2 -->
<g id="edge6" class="edge">
<title>x&#45;&gt;op_2</title>
<path fill="none" stroke="#000000" d="M468.905,-302.3715C484.8167,-260.3497 516.9244,-154.9808 467.4825,-92.2688 446.259,-65.349 424.1727,-87.3394 392.4825,-74.2688 383.4654,-70.5497 374.2295,-65.6095 365.7609,-60.5499"/>
<polygon fill="#000000" stroke="#000000" points="367.599,-57.5714 357.2549,-55.2802 363.9125,-63.522 367.599,-57.5714"/>
</g>
<!-- x&#45;&gt;op_4 -->
<g id="edge14" class="edge">
<title>x&#45;&gt;op_4</title>
<path fill="none" stroke="#000000" d="M434.3631,-306.9091C410.5668,-295.011 375.832,-277.6436 350.0472,-264.7512"/>
<polygon fill="#000000" stroke="#000000" points="351.4989,-261.564 340.9894,-260.2223 348.3684,-267.8249 351.4989,-261.564"/>
</g>
<!-- const_1 -->
<g id="node4" class="node">
<title>const_1</title>
<polygon fill="none" stroke="#000000" points="175.4825,-440.6704 129.0507,-403.768 221.9142,-403.768 175.4825,-440.6704"/>
<text text-anchor="middle" x="175.4825" y="-411.8688" font-family="Times,serif" font-size="14.00" fill="#000000">1.0</text>
</g>
<!-- const_1&#45;&gt;guess -->
<g id="edge1" class="edge">
<title>const_1&#45;&gt;guess</title>
<path fill="none" stroke="#0000ff" d="M175.4825,-403.5708C175.4825,-389.6935 175.4825,-366.8471 175.4825,-348.6176"/>
<polygon fill="#0000ff" stroke="#0000ff" points="178.9826,-348.5206 175.4825,-338.5206 171.9826,-348.5207 178.9826,-348.5206"/>
<text text-anchor="middle" x="205.0344" y="-360.6688" font-family="Times,serif" font-size="14.00" fill="#000000">guess←1.0</text>
</g>
<!-- op_1&#45;&gt;tmp -->
<g id="edge4" class="edge">
<title>op_1&#45;&gt;tmp</title>
<path fill="none" stroke="#0000ff" d="M192.1237,-230.5828C203.475,-219.5859 219.1811,-205.3521 234.5329,-194.6688 248.448,-184.9853 264.8169,-175.9425 279.1806,-168.6869"/>
<polygon fill="#0000ff" stroke="#0000ff" points="280.8696,-171.7564 288.2841,-164.1883 277.7684,-165.4808 280.8696,-171.7564"/>
<text text-anchor="middle" x="272.9573" y="-198.8688" font-family="Times,serif" font-size="14.00" fill="#000000">tmp←guess^2</text>
</g>
<!-- op_2&#45;&gt;tmp -->
<g id="edge7" class="edge">
<title>op_2&#45;&gt;tmp</title>
<path fill="none" stroke="#0000ff" d="M328.9591,-55.2294C326.4006,-73.5762 322.4048,-102.2291 319.4276,-123.5783"/>
<polygon fill="#0000ff" stroke="#0000ff" points="315.9325,-123.3012 318.0177,-133.6888 322.8654,-124.2681 315.9325,-123.3012"/>
<text text-anchor="middle" x="356.344" y="-96.4688" font-family="Times,serif" font-size="14.00" fill="#000000">tmp←tmp&#45;x</text>
</g>
<!-- const_2 -->
<g id="node8" class="node">
<title>const_2</title>
<polygon fill="none" stroke="#000000" points="753.4825,-176.4704 721.5209,-139.568 785.4441,-139.568 753.4825,-176.4704"/>
<text text-anchor="middle" x="753.4825" y="-147.6688" font-family="Times,serif" font-size="14.00" fill="#000000">0</text>
</g>
<!-- const_2&#45;&gt;test_1 -->
<g id="edge9" class="edge">
<title>const_2&#45;&gt;test_1</title>
<path fill="none" stroke="#000000" d="M749.4923,-139.1518C745.2131,-125.5138 738.1693,-103.0648 731.7772,-82.6926"/>
<polygon fill="#000000" stroke="#000000" points="735.0398,-81.3998 728.7065,-72.9062 728.3609,-83.4954 735.0398,-81.3998"/>
</g>
<!-- op_3&#45;&gt;tmp -->
<g id="edge11" class="edge">
<title>op_3&#45;&gt;tmp</title>
<path fill="none" stroke="#0000ff" d="M423.1602,-55.2247C417.7751,-70.9908 408.1352,-93.6795 393.4825,-109.0688 381.9492,-121.1818 366.2177,-130.7051 351.9029,-137.6623"/>
<polygon fill="#0000ff" stroke="#0000ff" points="350.3835,-134.5086 342.759,-141.865 353.3069,-140.8689 350.3835,-134.5086"/>
<text text-anchor="middle" x="433.844" y="-96.4688" font-family="Times,serif" font-size="14.00" fill="#000000">tmp←&#45;tmp</text>
</g>
<!-- const_3 -->
<g id="node11" class="node">
<title>const_3</title>
<polygon fill="none" stroke="#000000" points="638.4825,-176.4704 572.9239,-139.568 704.041,-139.568 638.4825,-176.4704"/>
<text text-anchor="middle" x="638.4825" y="-147.6688" font-family="Times,serif" font-size="14.00" fill="#000000">0.001</text>
</g>
<!-- const_3&#45;&gt;test_2 -->
<g id="edge13" class="edge">
<title>const_3&#45;&gt;test_2</title>
<path fill="none" stroke="#000000" d="M629.172,-139.1518C618.0363,-123.9416 598.8769,-97.7721 582.7517,-75.7469"/>
<polygon fill="#000000" stroke="#000000" points="585.4745,-73.5411 576.7431,-67.5399 579.8264,-77.6762 585.4745,-73.5411"/>
</g>
<!-- op_4&#45;&gt;tmp -->
<g id="edge16" class="edge">
<title>op_4&#45;&gt;tmp</title>
<path fill="none" stroke="#0000ff" d="M315.4825,-229.0362C315.4825,-215.1935 315.4825,-195.986 315.4825,-180.1972"/>
<polygon fill="#0000ff" stroke="#0000ff" points="318.9826,-179.9206 315.4825,-169.9206 311.9826,-179.9207 318.9826,-179.9206"/>
<text text-anchor="middle" x="352.6203" y="-198.8688" font-family="Times,serif" font-size="14.00" fill="#000000">tmp←x/guess</text>
</g>
<!-- op_5&#45;&gt;tmp -->
<g id="edge19" class="edge">
<title>op_5&#45;&gt;tmp</title>
<path fill="none" stroke="#0000ff" d="M168.1039,-55.2154C178.2673,-71.1941 194.9087,-94.2067 214.4217,-109.0688 233.5703,-123.6535 258.4299,-134.2663 278.7012,-141.2757"/>
<polygon fill="#0000ff" stroke="#0000ff" points="277.6456,-144.613 288.2389,-144.4288 279.8429,-137.9667 277.6456,-144.613"/>
<text text-anchor="middle" x="260.0129" y="-96.4688" font-family="Times,serif" font-size="14.00" fill="#000000">tmp←guess+tmp</text>
</g>
<!-- op_6&#45;&gt;guess -->
<g id="edge22" class="edge">
<title>op_6&#45;&gt;guess</title>
<path fill="none" stroke="#0000ff" d="M34.0508,-55.364C15.7449,-82.609 -12.6888,-135.184 6.4825,-176.6688 33.7521,-235.6776 98.4964,-279.372 139.4662,-302.3036"/>
<polygon fill="#0000ff" stroke="#0000ff" points="137.874,-305.4221 148.3274,-307.148 141.2319,-299.28 137.874,-305.4221"/>
<text text-anchor="middle" x="64.6203" y="-198.8688" font-family="Times,serif" font-size="14.00" fill="#000000">guess←tmp/2</text>
</g>
<!-- const_4 -->
<g id="node15" class="node">
<title>const_4</title>
<polygon fill="none" stroke="#000000" points="47.4825,-176.4704 15.5209,-139.568 79.4441,-139.568 47.4825,-176.4704"/>
<text text-anchor="middle" x="47.4825" y="-147.6688" font-family="Times,serif" font-size="14.00" fill="#000000">2</text>
</g>
<!-- const_4&#45;&gt;op_6 -->
<g id="edge21" class="edge">
<title>const_4&#45;&gt;op_6</title>
<path fill="none" stroke="#000000" d="M47.4825,-139.1518C47.4825,-121.4433 47.4825,-88.8795 47.4825,-65.2961"/>
<polygon fill="#000000" stroke="#000000" points="50.9826,-65.178 47.4825,-55.178 43.9826,-65.178 50.9826,-65.178"/>
</g>
</g>
</svg>