<?xml version="1.0" encoding="UTF-8" standalone="no"?>
<!DOCTYPE svg PUBLIC "-//W3C//DTD SVG 1.1//EN"
 "http://www.w3.org/Graphics/SVG/1.1/DTD/svg11.dtd">
<!-- Generated by graphviz version 2.40.1 (20161225.0304)
 -->
<!-- Title: G Pages: 1 -->
<svg width="235pt" height="733pt"
 viewBox="0.00 0.00 234.91 732.60" xmlns="http://www.w3.org/2000/svg" xmlns:xlink="http://www.w3.org/1999/xlink">
<g id="graph0" class="graph" transform="scale(1 1) rotate(0) translate(4 728.6)">
<title>G</title>
<polygon fill="#ffffff" stroke="transparent" points="-4,4 -4,-728.6 230.9103,-728.6 230.9103,4 -4,4"/>
<!-- nodestart -->
<g id="node1" class="node">
<title>nodestart</title>
<text text-anchor="middle" x="180.4355" y="-702.4" font-family="Times,serif" font-size="14.00" fill="#000000">start</text>
</g>
<!-- button0 -->
<g id="node3" class="node">
<title>button0</title>
<polygon fill="none" stroke="#000000" points="218.0394,-651.6 142.8316,-651.6 142.8316,-615.6 218.0394,-615.6 218.0394,-651.6"/>
<text text-anchor="middle" x="180.4355" y="-629.4" font-family="Times,serif" font-size="14.00" fill="#000000">guess←1.0</text>
</g>
<!-- nodestart&#45;&gt;button0 -->
<g id="edge1" class="edge">
<title>nodestart&#45;&gt;button0</title>
<path fill="none" stroke="#000000" d="M180.4355,-688.5551C180.4355,-680.4828 180.4355,-670.7764 180.4355,-661.7817"/>
<polygon fill="#000000" stroke="#000000" points="183.9356,-661.6903 180.4355,-651.6904 176.9356,-661.6904 183.9356,-661.6903"/>
</g>
<!-- nodedone -->
<g id="node2" class="node">
<title>nodedone</title>
<text text-anchor="middle" x="34.4355" y="-159.8" font-family="Times,serif" font-size="14.00" fill="#000000">sqrt&#45;done</text>
</g>
<!-- button1 -->
<g id="node4" class="node">
<title>button1</title>
<polygon fill="none" stroke="#000000" points="226.8851,-578.6 133.9859,-578.6 133.9859,-542.6 226.8851,-542.6 226.8851,-578.6"/>
<text text-anchor="middle" x="180.4355" y="-556.4" font-family="Times,serif" font-size="14.00" fill="#000000">tmp←guess^2</text>
</g>
<!-- button0&#45;&gt;button1 -->
<g id="edge2" class="edge">
<title>button0&#45;&gt;button1</title>
<path fill="none" stroke="#000000" d="M180.4355,-615.5551C180.4355,-607.4828 180.4355,-597.7764 180.4355,-588.7817"/>
<polygon fill="#000000" stroke="#000000" points="183.9356,-588.6903 180.4355,-578.6904 176.9356,-588.6904 183.9356,-588.6903"/>
</g>
<!-- button2 -->
<g id="node5" class="node">
<title>button2</title>
<polygon fill="none" stroke="#000000" points="184.159,-505.6 102.712,-505.6 102.712,-469.6 184.159,-469.6 184.159,-505.6"/>
<text text-anchor="middle" x="143.4355" y="-483.4" font-family="Times,serif" font-size="14.00" fill="#000000">tmp←tmp&#45;x</text>
</g>
<!-- button1&#45;&gt;button2 -->
<g id="edge3" class="edge">
<title>button1&#45;&gt;button2</title>
<path fill="none" stroke="#000000" d="M171.2894,-542.5551C167.0201,-534.1319 161.849,-523.9292 157.1269,-514.6128"/>
<polygon fill="#000000" stroke="#000000" points="160.2475,-513.0277 152.6046,-505.6904 154.0037,-516.1924 160.2475,-513.0277"/>
</g>
<!-- test1 -->
<g id="node10" class="node">
<title>test1</title>
<polygon fill="none" stroke="#000000" points="134.4355,-432.6 81.9035,-414.6 134.4355,-396.6 186.9675,-414.6 134.4355,-432.6"/>
<text text-anchor="middle" x="134.4355" y="-410.4" font-family="Times,serif" font-size="14.00" fill="#000000">test1 &lt;</text>
</g>
<!-- button2&#45;&gt;test1 -->
<g id="edge4" class="edge">
<title>button2&#45;&gt;test1</title>
<path fill="none" stroke="#000000" d="M141.2108,-469.5551C140.1821,-461.211 138.9381,-451.1209 137.7983,-441.8757"/>
<polygon fill="#000000" stroke="#000000" points="141.2701,-441.4312 136.5727,-431.9347 134.3227,-442.2878 141.2701,-441.4312"/>
</g>
<!-- button3 -->
<g id="node6" class="node">
<title>button3</title>
<polygon fill="none" stroke="#000000" points="107.659,-343.8 33.212,-343.8 33.212,-307.8 107.659,-307.8 107.659,-343.8"/>
<text text-anchor="middle" x="70.4355" y="-321.6" font-family="Times,serif" font-size="14.00" fill="#000000">tmp←&#45;tmp</text>
</g>
<!-- test2 -->
<g id="node11" class="node">
<title>test2</title>
<polygon fill="none" stroke="#000000" points="123.4355,-270.8 70.9035,-252.8 123.4355,-234.8 175.9675,-252.8 123.4355,-270.8"/>
<text text-anchor="middle" x="123.4355" y="-248.6" font-family="Times,serif" font-size="14.00" fill="#000000">test2 &lt;</text>
</g>
<!-- button3&#45;&gt;test2 -->
<g id="edge7" class="edge">
<title>button3&#45;&gt;test2</title>
<path fill="none" stroke="#000000" d="M83.5366,-307.7551C90.6254,-297.9913 99.4499,-285.8367 106.9963,-275.4427"/>
<polygon fill="#000000" stroke="#000000" points="109.9255,-277.3655 112.9684,-267.217 104.2609,-273.2529 109.9255,-277.3655"/>
</g>
<!-- button4 -->
<g id="node7" class="node">
<title>button4</title>
<polygon fill="none" stroke="#000000" points="177.7115,-182 87.1595,-182 87.1595,-146 177.7115,-146 177.7115,-182"/>
<text text-anchor="middle" x="132.4355" y="-159.8" font-family="Times,serif" font-size="14.00" fill="#000000">tmp←x/guess</text>
</g>
<!-- button5 -->
<g id="node8" class="node">
<title>button5</title>
<polygon fill="none" stroke="#000000" points="186.9963,-109 77.8747,-109 77.8747,-73 186.9963,-73 186.9963,-109"/>
<text text-anchor="middle" x="132.4355" y="-86.8" font-family="Times,serif" font-size="14.00" fill="#000000">tmp←guess+tmp</text>
</g>
<!-- button4&#45;&gt;button5 -->
<g id="edge10" class="edge">
<title>button4&#45;&gt;button5</title>
<path fill="none" stroke="#000000" d="M132.4355,-145.9551C132.4355,-137.8828 132.4355,-128.1764 132.4355,-119.1817"/>
<polygon fill="#000000" stroke="#000000" points="135.9356,-119.0903 132.4355,-109.0904 128.9356,-119.0904 135.9356,-119.0903"/>
</g>
<!-- button6 -->
<g id="node9" class="node">
<title>button6</title>
<polygon fill="none" stroke="#000000" points="218.7115,-36 128.1595,-36 128.1595,0 218.7115,0 218.7115,-36"/>
<text text-anchor="middle" x="173.4355" y="-13.8" font-family="Times,serif" font-size="14.00" fill="#000000">guess←tmp/2</text>
</g>
<!-- button5&#45;&gt;button6 -->
<g id="edge11" class="edge">
<title>button5&#45;&gt;button6</title>
<path fill="none" stroke="#000000" d="M142.5703,-72.9551C147.3012,-64.5319 153.0314,-54.3292 158.264,-45.0128"/>
<polygon fill="#000000" stroke="#000000" points="161.4298,-46.5233 163.2752,-36.0904 155.3265,-43.0954 161.4298,-46.5233"/>
</g>
<!-- button6&#45;&gt;button1 -->
<g id="edge12" class="edge">
<title>button6&#45;&gt;button1</title>
<path fill="none" stroke="#000000" d="M191.0039,-36.1838C202.513,-50.0478 215.4355,-70.2374 215.4355,-91 215.4355,-487.6 215.4355,-487.6 215.4355,-487.6 215.4355,-504.0443 208.1248,-520.7056 200.1858,-533.9506"/>
<polygon fill="#000000" stroke="#000000" points="197.1342,-532.2252 194.6713,-542.5298 203.0227,-536.0102 197.1342,-532.2252"/>
</g>
<!-- test1&#45;&gt;button3 -->
<g id="edge5" class="edge">
<title>test1&#45;&gt;button3</title>
<path fill="none" stroke="#000000" d="M123.4127,-399.9486C118.5485,-393.4385 112.7858,-385.6648 107.6697,-378.6 101.5174,-370.1043 94.8914,-360.7699 88.9586,-352.3431"/>
<polygon fill="#000000" stroke="#000000" points="91.6863,-350.1369 83.076,-343.9632 85.957,-354.1589 91.6863,-350.1369"/>
<text text-anchor="middle" x="119.3184" y="-366" font-family="Times,serif" font-size="14.00" fill="#000000">true</text>
</g>
<!-- test1&#45;&gt;test2 -->
<g id="edge6" class="edge">
<title>test1&#45;&gt;test2</title>
<path fill="none" stroke="#000000" d="M133.2374,-396.9766C131.3281,-368.8923 127.5799,-313.7601 125.3122,-280.4044"/>
<polygon fill="#000000" stroke="#000000" points="128.8025,-280.1413 124.6322,-270.4017 121.8186,-280.6161 128.8025,-280.1413"/>
<text text-anchor="middle" x="143.648" y="-321.6" font-family="Times,serif" font-size="14.00" fill="#000000">false</text>
</g>
<!-- test2&#45;&gt;nodedone -->
<g id="edge8" class="edge">
<title>test2&#45;&gt;nodedone</title>
<path fill="none" stroke="#000000" d="M109.9183,-239.3132C96.6771,-226.1017 76.1702,-205.641 59.8711,-189.3784"/>
<polygon fill="#000000" stroke="#000000" points="62.2708,-186.8285 52.7196,-182.243 57.3266,-191.7838 62.2708,-186.8285"/>
<text text-anchor="middle" x="98.3184" y="-204.2" font-family="Times,serif" font-size="14.00" fill="#000000">true</text>
</g>
<!-- test2&#45;&gt;button4 -->
<g id="edge9" class="edge">
<title>test2&#45;&gt;button4</title>
<path fill="none" stroke="#000000" d="M125.2136,-235.256C126.4546,-223.0115 128.138,-206.402 129.5673,-192.2993"/>
<polygon fill="#000000" stroke="#000000" points="133.073,-192.4192 130.5993,-182.1172 126.1087,-191.7133 133.073,-192.4192"/>
</g>
</g>
</svg>