<?xml version="1.0" encoding="UTF-8" standalone="no"?>
<!DOCTYPE svg PUBLIC "-//W3C//DTD SVG 1.1//EN"
 "http://www.w3.org/Graphics/SVG/1.1/DTD/svg11.dtd">
<!-- Generated by graphviz version 2.40.1 (20161225.0304)
 -->
<!-- Title: G Pages: 1 -->
<svg width="210pt" height="260pt"
 viewBox="0.00 0.00 210.00 260.00" xmlns="http://www.w3.org/2000/svg" xmlns:xlink="http://www.w3.org/1999/xlink">
<g id="graph0" class="graph" transform="scale(1 1) rotate(0) translate(4 256)">
<title>G</title>
<polygon fill="#ffffff" stroke="transparent" points="-4,4 -4,-256 206,-256 206,4 -4,4"/>
<!-- label_1 -->
<g id="node1" class="node">
<title>label_1</title>
<text text-anchor="middle" x="27" y="-157.8" font-family="Times,serif" font-size="14.00" fill="#000000">1</text>
</g>
<!-- label_2 -->
<g id="node2" class="node">
<title>label_2</title>
<text text-anchor="middle" x="67" y="-85.8" font-family="Times,serif" font-size="14.00" fill="#000000">2</text>
</g>
<!-- label_3 -->
<g id="node3" class="node">
<title>label_3</title>
<text text-anchor="middle" x="103" y="-13.8" font-family="Times,serif" font-size="14.00" fill="#000000">3</text>
</g>
<!-- label_4 -->
<g id="node4" class="node">
<title>label_4</title>
<text text-anchor="middle" x="175" y="-13.8" font-family="Times,serif" font-size="14.00" fill="#000000">4</text>
</g>
<!-- plaintext_0 -->
<g id="node5" class="node">
<title>plaintext_0</title>
<text text-anchor="middle" x="65" y="-229.8" font-family="Times,serif" font-size="14.00" fill="#000000">(1 (2 (3 4)))</text>
</g>
<!-- plaintext_0&#45;&gt;label_1 -->
<g id="edge1" class="edge">
<title>plaintext_0&#45;&gt;label_1</title>
<path fill="none" stroke="#000000" d="M55.411,-215.8314C51.1683,-207.7925 46.0879,-198.1666 41.404,-189.2918"/>
<polygon fill="#000000" stroke="#000000" points="44.4811,-187.6235 36.7181,-180.4133 38.2904,-190.8908 44.4811,-187.6235"/>
</g>
<!-- plaintext_1 -->
<g id="node6" class="node">
<title>plaintext_1</title>
<text text-anchor="middle" x="103" y="-157.8" font-family="Times,serif" font-size="14.00" fill="#000000">(2 (3 4))</text>
</g>
<!-- plaintext_0&#45;&gt;plaintext_1 -->
<g id="edge2" class="edge">
<title>plaintext_0&#45;&gt;plaintext_1</title>
<path fill="none" stroke="#000000" d="M74.589,-215.8314C78.8317,-207.7925 83.9121,-198.1666 88.596,-189.2918"/>
<polygon fill="#000000" stroke="#000000" points="91.7096,-190.8908 93.2819,-180.4133 85.5189,-187.6235 91.7096,-190.8908"/>
</g>
<!-- plaintext_1&#45;&gt;label_2 -->
<g id="edge3" class="edge">
<title>plaintext_1&#45;&gt;label_2</title>
<path fill="none" stroke="#000000" d="M93.9157,-143.8314C89.9385,-135.8771 85.1845,-126.369 80.7861,-117.5723"/>
<polygon fill="#000000" stroke="#000000" points="83.8093,-115.7923 76.2066,-108.4133 77.5483,-118.9228 83.8093,-115.7923"/>
</g>
<!-- plaintext_2 -->
<g id="node7" class="node">
<title>plaintext_2</title>
<text text-anchor="middle" x="139" y="-85.8" font-family="Times,serif" font-size="14.00" fill="#000000">(3 4)</text>
</g>
<!-- plaintext_1&#45;&gt;plaintext_2 -->
<g id="edge4" class="edge">
<title>plaintext_1&#45;&gt;plaintext_2</title>
<path fill="none" stroke="#000000" d="M112.0843,-143.8314C116.0615,-135.8771 120.8155,-126.369 125.2139,-117.5723"/>
<polygon fill="#000000" stroke="#000000" points="128.4517,-118.9228 129.7934,-108.4133 122.1907,-115.7923 128.4517,-118.9228"/>
</g>
<!-- plaintext_2&#45;&gt;label_3 -->
<g id="edge5" class="edge">
<title>plaintext_2&#45;&gt;label_3</title>
<path fill="none" stroke="#000000" d="M129.9157,-71.8314C125.9385,-63.8771 121.1845,-54.369 116.7861,-45.5723"/>
<polygon fill="#000000" stroke="#000000" points="119.8093,-43.7923 112.2066,-36.4133 113.5483,-46.9228 119.8093,-43.7923"/>
</g>
<!-- plaintext_2&#45;&gt;label_4 -->
<g id="edge6" class="edge">
<title>plaintext_2&#45;&gt;label_4</title>
<path fill="none" stroke="#000000" d="M148.0843,-71.8314C152.0615,-63.8771 156.8155,-54.369 161.2139,-45.5723"/>
<polygon fill="#000000" stroke="#000000" points="164.4517,-46.9228 165.7934,-36.4133 158.1907,-43.7923 164.4517,-46.9228"/>
</g>
</g>
</svg>