<?xml version="1.0" encoding="UTF-8" standalone="no"?>
<!DOCTYPE svg PUBLIC "-//W3C//DTD SVG 1.1//EN"
 "http://www.w3.org/Graphics/SVG/1.1/DTD/svg11.dtd">
<!-- Generated by graphviz version 2.40.1 (20161225.0304)
 -->
<!-- Title: G Pages: 1 -->
<svg width="422pt" height="692pt"
 viewBox="0.00 0.00 422.00 692.00" xmlns="http://www.w3.org/2000/svg" xmlns:xlink="http://www.w3.org/1999/xlink">
<g id="graph0" class="graph" transform="scale(1 1) rotate(0) translate(4 688)">
<title>G</title>
<polygon fill="#ffffff" stroke="transparent" points="-4,4 -4,-688 418,-688 418,4 -4,4"/>
<!-- node_0 -->
<g id="node1" class="node">
<title>node_0</title>
<text text-anchor="middle" x="27" y="-13.8" font-family="Times,serif" font-size="14.00" fill="#000000">1</text>
</g>
<!-- node_1 -->
<g id="node2" class="node">
<title>node_1</title>
<text text-anchor="middle" x="99" y="-13.8" font-family="Times,serif" font-size="14.00" fill="#000000">2</text>
</g>
<!-- node_10 -->
<g id="node3" class="node">
<title>node_10</title>
<text text-anchor="middle" x="63" y="-85.8" font-family="Times,serif" font-size="14.00" fill="#000000">3</text>
</g>
<!-- node_10&#45;&gt;node_0 -->
<g id="edge1" class="edge">
<title>node_10&#45;&gt;node_0</title>
<path fill="none" stroke="#000000" d="M53.9157,-71.8314C49.9385,-63.8771 45.1845,-54.369 40.7861,-45.5723"/>
<polygon fill="#000000" stroke="#000000" points="43.8093,-43.7923 36.2066,-36.4133 37.5483,-46.9228 43.8093,-43.7923"/>
</g>
<!-- node_10&#45;&gt;node_1 -->
<g id="edge2" class="edge">
<title>node_10&#45;&gt;node_1</title>
<path fill="none" stroke="#000000" d="M72.0843,-71.8314C76.0615,-63.8771 80.8155,-54.369 85.2139,-45.5723"/>
<polygon fill="#000000" stroke="#000000" points="88.4517,-46.9228 89.7934,-36.4133 82.1907,-43.7923 88.4517,-46.9228"/>
</g>
<!-- node_2 -->
<g id="node4" class="node">
<title>node_2</title>
<text text-anchor="middle" x="135" y="-85.8" font-family="Times,serif" font-size="14.00" fill="#000000">4</text>
</g>
<!-- node_11 -->
<g id="node5" class="node">
<title>node_11</title>
<text text-anchor="middle" x="99" y="-157.8" font-family="Times,serif" font-size="14.00" fill="#000000">7</text>
</g>
<!-- node_11&#45;&gt;node_10 -->
<g id="edge3" class="edge">
<title>node_11&#45;&gt;node_10</title>
<path fill="none" stroke="#000000" d="M89.9157,-143.8314C85.9385,-135.8771 81.1845,-126.369 76.7861,-117.5723"/>
<polygon fill="#000000" stroke="#000000" points="79.8093,-115.7923 72.2066,-108.4133 73.5483,-118.9228 79.8093,-115.7923"/>
</g>
<!-- node_11&#45;&gt;node_2 -->
<g id="edge4" class="edge">
<title>node_11&#45;&gt;node_2</title>
<path fill="none" stroke="#000000" d="M108.0843,-143.8314C112.0615,-135.8771 116.8155,-126.369 121.2139,-117.5723"/>
<polygon fill="#000000" stroke="#000000" points="124.4517,-118.9228 125.7934,-108.4133 118.1907,-115.7923 124.4517,-118.9228"/>
</g>
<!-- node_3 -->
<g id="node6" class="node">
<title>node_3</title>
<text text-anchor="middle" x="171" y="-157.8" font-family="Times,serif" font-size="14.00" fill="#000000">8</text>
</g>
<!-- node_12 -->
<g id="node7" class="node">
<title>node_12</title>
<text text-anchor="middle" x="135" y="-229.8" font-family="Times,serif" font-size="14.00" fill="#000000">15</text>
</g>
<!-- node_12&#45;&gt;node_11 -->
<g id="edge5" class="edge">
<title>node_12&#45;&gt;node_11</title>
<path fill="none" stroke="#000000" d="M125.9157,-215.8314C121.9385,-207.8771 117.1845,-198.369 112.7861,-189.5723"/>
<polygon fill="#000000" stroke="#000000" points="115.8093,-187.7923 108.2066,-180.4133 109.5483,-190.9228 115.8093,-187.7923"/>
</g>
<!-- node_12&#45;&gt;node_3 -->
<g id="edge6" class="edge">
<title>node_12&#45;&gt;node_3</title>
<path fill="none" stroke="#000000" d="M144.0843,-215.8314C148.0615,-207.8771 152.8155,-198.369 157.2139,-189.5723"/>
<polygon fill="#000000" stroke="#000000" points="160.4517,-190.9228 161.7934,-180.4133 154.1907,-187.7923 160.4517,-190.9228"/>
</g>
<!-- node_4 -->
<g id="node8" class="node">
<title>node_4</title>
<text text-anchor="middle" x="207" y="-229.8" font-family="Times,serif" font-size="14.00" fill="#000000">16</text>
</g>
<!-- node_13 -->
<g id="node9" class="node">
<title>node_13</title>
<text text-anchor="middle" x="171" y="-301.8" font-family="Times,serif" font-size="14.00" fill="#000000">31</text>
</g>
<!-- node_13&#45;&gt;node_12 -->
<g id="edge7" class="edge">
<title>node_13&#45;&gt;node_12</title>
<path fill="none" stroke="#000000" d="M161.9157,-287.8314C157.9385,-279.8771 153.1845,-270.369 148.7861,-261.5723"/>
<polygon fill="#000000" stroke="#000000" points="151.8093,-259.7923 144.2066,-252.4133 145.5483,-262.9228 151.8093,-259.7923"/>
</g>
<!-- node_13&#45;&gt;node_4 -->
<g id="edge8" class="edge">
<title>node_13&#45;&gt;node_4</title>
<path fill="none" stroke="#000000" d="M180.0843,-287.8314C184.0615,-279.8771 188.8155,-270.369 193.2139,-261.5723"/>
<polygon fill="#000000" stroke="#000000" points="196.4517,-262.9228 197.7934,-252.4133 190.1907,-259.7923 196.4517,-262.9228"/>
</g>
<!-- node_5 -->
<g id="node10" class="node">
<title>node_5</title>
<text text-anchor="middle" x="243" y="-301.8" font-family="Times,serif" font-size="14.00" fill="#000000">32</text>
</g>
<!-- node_14 -->
<g id="node11" class="node">
<title>node_14</title>
<text text-anchor="middle" x="207" y="-373.8" font-family="Times,serif" font-size="14.00" fill="#000000">63</text>
</g>
<!-- node_14&#45;&gt;node_13 -->
<g id="edge9" class="edge">
<title>node_14&#45;&gt;node_13</title>
<path fill="none" stroke="#000000" d="M197.9157,-359.8314C193.9385,-351.8771 189.1845,-342.369 184.7861,-333.5723"/>
<polygon fill="#000000" stroke="#000000" points="187.8093,-331.7923 180.2066,-324.4133 181.5483,-334.9228 187.8093,-331.7923"/>
</g>
<!-- node_14&#45;&gt;node_5 -->
<g id="edge10" class="edge">
<title>node_14&#45;&gt;node_5</title>
<path fill="none" stroke="#000000" d="M216.0843,-359.8314C220.0615,-351.8771 224.8155,-342.369 229.2139,-333.5723"/>
<polygon fill="#000000" stroke="#000000" points="232.4517,-334.9228 233.7934,-324.4133 226.1907,-331.7923 232.4517,-334.9228"/>
</g>
<!-- node_6 -->
<g id="node12" class="node">
<title>node_6</title>
<text text-anchor="middle" x="279" y="-373.8" font-family="Times,serif" font-size="14.00" fill="#000000">64</text>
</g>
<!-- node_15 -->
<g id="node13" class="node">
<title>node_15</title>
<text text-anchor="middle" x="243" y="-445.8" font-family="Times,serif" font-size="14.00" fill="#000000">127</text>
</g>
<!-- node_15&#45;&gt;node_14 -->
<g id="edge11" class="edge">
<title>node_15&#45;&gt;node_14</title>
<path fill="none" stroke="#000000" d="M233.9157,-431.8314C229.9385,-423.8771 225.1845,-414.369 220.7861,-405.5723"/>
<polygon fill="#000000" stroke="#000000" points="223.8093,-403.7923 216.2066,-396.4133 217.5483,-406.9228 223.8093,-403.7923"/>
</g>
<!-- node_15&#45;&gt;node_6 -->
<g id="edge12" class="edge">
<title>node_15&#45;&gt;node_6</title>
<path fill="none" stroke="#000000" d="M252.0843,-431.8314C256.0615,-423.8771 260.8155,-414.369 265.2139,-405.5723"/>
<polygon fill="#000000" stroke="#000000" points="268.4517,-406.9228 269.7934,-396.4133 262.1907,-403.7923 268.4517,-406.9228"/>
</g>
<!-- node_7 -->
<g id="node14" class="node">
<title>node_7</title>
<text text-anchor="middle" x="315" y="-445.8" font-family="Times,serif" font-size="14.00" fill="#000000">128</text>
</g>
<!-- node_16 -->
<g id="node15" class="node">
<title>node_16</title>
<text text-anchor="middle" x="279" y="-517.8" font-family="Times,serif" font-size="14.00" fill="#000000">255</text>
</g>
<!-- node_16&#45;&gt;node_15 -->
<g id="edge13" class="edge">
<title>node_16&#45;&gt;node_15</title>
<path fill="none" stroke="#000000" d="M269.9157,-503.8314C265.9385,-495.8771 261.1845,-486.369 256.7861,-477.5723"/>
<polygon fill="#000000" stroke="#000000" points="259.8093,-475.7923 252.2066,-468.4133 253.5483,-478.9228 259.8093,-475.7923"/>
</g>
<!-- node_16&#45;&gt;node_7 -->
<g id="edge14" class="edge">
<title>node_16&#45;&gt;node_7</title>
<path fill="none" stroke="#000000" d="M288.0843,-503.8314C292.0615,-495.8771 296.8155,-486.369 301.2139,-477.5723"/>
<polygon fill="#000000" stroke="#000000" points="304.4517,-478.9228 305.7934,-468.4133 298.1907,-475.7923 304.4517,-478.9228"/>
</g>
<!-- node_8 -->
<g id="node16" class="node">
<title>node_8</title>
<text text-anchor="middle" x="351" y="-517.8" font-family="Times,serif" font-size="14.00" fill="#000000">256</text>
</g>
<!-- node_17 -->
<g id="node17" class="node">
<title>node_17</title>
<text text-anchor="middle" x="315" y="-589.8" font-family="Times,serif" font-size="14.00" fill="#000000">511</text>
</g>
<!-- node_17&#45;&gt;node_16 -->
<g id="edge15" class="edge">
<title>node_17&#45;&gt;node_16</title>
<path fill="none" stroke="#000000" d="M305.9157,-575.8314C301.9385,-567.8771 297.1845,-558.369 292.7861,-549.5723"/>
<polygon fill="#000000" stroke="#000000" points="295.8093,-547.7923 288.2066,-540.4133 289.5483,-550.9228 295.8093,-547.7923"/>
</g>
<!-- node_17&#45;&gt;node_8 -->
<g id="edge16" class="edge">
<title>node_17&#45;&gt;node_8</title>
<path fill="none" stroke="#000000" d="M324.0843,-575.8314C328.0615,-567.8771 332.8155,-558.369 337.2139,-549.5723"/>
<polygon fill="#000000" stroke="#000000" points="340.4517,-550.9228 341.7934,-540.4133 334.1907,-547.7923 340.4517,-550.9228"/>
</g>
<!-- node_9 -->
<g id="node18" class="node">
<title>node_9</title>
<text text-anchor="middle" x="387" y="-589.8" font-family="Times,serif" font-size="14.00" fill="#000000">512</text>
</g>
<!-- node_18 -->
<g id="node19" class="node">
<title>node_18</title>
<text text-anchor="middle" x="351" y="-661.8" font-family="Times,serif" font-size="14.00" fill="#000000">1023</text>
</g>
<!-- node_18&#45;&gt;node_17 -->
<g id="edge17" class="edge">
<title>node_18&#45;&gt;node_17</title>
<path fill="none" stroke="#000000" d="M341.9157,-647.8314C337.9385,-639.8771 333.1845,-630.369 328.7861,-621.5723"/>
<polygon fill="#000000" stroke="#000000" points="331.8093,-619.7923 324.2066,-612.4133 325.5483,-622.9228 331.8093,-619.7923"/>
</g>
<!-- node_18&#45;&gt;node_9 -->
<g id="edge18" class="edge">
<title>node_18&#45;&gt;node_9</title>
<path fill="none" stroke="#000000" d="M360.0843,-647.8314C364.0615,-639.8771 368.8155,-630.369 373.2139,-621.5723"/>
<polygon fill="#000000" stroke="#000000" points="376.4517,-622.9228 377.7934,-612.4133 370.1907,-619.7923 376.4517,-622.9228"/>
</g>
</g>
</svg>