<?xml version="1.0" encoding="UTF-8" standalone="no"?>
<!DOCTYPE svg PUBLIC "-//W3C//DTD SVG 1.1//EN"
 "http://www.w3.org/Graphics/SVG/1.1/DTD/svg11.dtd">
<!-- Generated by graphviz version 2.40.1 (20161225.0304)
 -->
<!-- Title: G Pages: 1 -->
<svg width="242pt" height="332pt"
 viewBox="0.00 0.00 242.00 332.00" xmlns="http://www.w3.org/2000/svg" xmlns:xlink="http://www.w3.org/1999/xlink">
<g id="graph0" class="graph" transform="scale(1 1) rotate(0) translate(4 328)">
<title>G</title>
<polygon fill="#ffffff" stroke="transparent" points="-4,4 -4,-328 238,-328 238,4 -4,4"/>
<!-- node_0 -->
<g id="node1" class="node">
<title>node_0</title>
<text text-anchor="middle" x="27" y="-13.8" font-family="Times,serif" font-size="14.00" fill="#000000">1</text>
</g>
<!-- node_1 -->
<g id="node2" class="node">
<title>node_1</title>
<text text-anchor="middle" x="99" y="-13.8" font-family="Times,serif" font-size="14.00" fill="#000000">2</text>
</g>
<!-- node_5 -->
<g id="node3" class="node">
<title>node_5</title>
<text text-anchor="middle" x="63" y="-85.8" font-family="Times,serif" font-size="14.00" fill="#000000">3</text>
</g>
<!-- node_5&#45;&gt;node_0 -->
<g id="edge1" class="edge">
<title>node_5&#45;&gt;node_0</title>
<path fill="none" stroke="#000000" d="M53.9157,-71.8314C49.9385,-63.8771 45.1845,-54.369 40.7861,-45.5723"/>
<polygon fill="#000000" stroke="#000000" points="43.8093,-43.7923 36.2066,-36.4133 37.5483,-46.9228 43.8093,-43.7923"/>
</g>
<!-- node_5&#45;&gt;node_1 -->
<g id="edge2" class="edge">
<title>node_5&#45;&gt;node_1</title>
<path fill="none" stroke="#000000" d="M72.0843,-71.8314C76.0615,-63.8771 80.8155,-54.369 85.2139,-45.5723"/>
<polygon fill="#000000" stroke="#000000" points="88.4517,-46.9228 89.7934,-36.4133 82.1907,-43.7923 88.4517,-46.9228"/>
</g>
<!-- node_2 -->
<g id="node4" class="node">
<title>node_2</title>
<text text-anchor="middle" x="135" y="-85.8" font-family="Times,serif" font-size="14.00" fill="#000000">4</text>
</g>
<!-- node_6 -->
<g id="node5" class="node">
<title>node_6</title>
<text text-anchor="middle" x="99" y="-157.8" font-family="Times,serif" font-size="14.00" fill="#000000">7</text>
</g>
<!-- node_6&#45;&gt;node_5 -->
<g id="edge3" class="edge">
<title>node_6&#45;&gt;node_5</title>
<path fill="none" stroke="#000000" d="M89.9157,-143.8314C85.9385,-135.8771 81.1845,-126.369 76.7861,-117.5723"/>
<polygon fill="#000000" stroke="#000000" points="79.8093,-115.7923 72.2066,-108.4133 73.5483,-118.9228 79.8093,-115.7923"/>
</g>
<!-- node_6&#45;&gt;node_2 -->
<g id="edge4" class="edge">
<title>node_6&#45;&gt;node_2</title>
<path fill="none" stroke="#000000" d="M108.0843,-143.8314C112.0615,-135.8771 116.8155,-126.369 121.2139,-117.5723"/>
<polygon fill="#000000" stroke="#000000" points="124.4517,-118.9228 125.7934,-108.4133 118.1907,-115.7923 124.4517,-118.9228"/>
</g>
<!-- node_3 -->
<g id="node6" class="node">
<title>node_3</title>
<text text-anchor="middle" x="171" y="-157.8" font-family="Times,serif" font-size="14.00" fill="#000000">8</text>
</g>
<!-- node_7 -->
<g id="node7" class="node">
<title>node_7</title>
<text text-anchor="middle" x="135" y="-229.8" font-family="Times,serif" font-size="14.00" fill="#000000">15</text>
</g>
<!-- node_7&#45;&gt;node_6 -->
<g id="edge5" class="edge">
<title>node_7&#45;&gt;node_6</title>
<path fill="none" stroke="#000000" d="M125.9157,-215.8314C121.9385,-207.8771 117.1845,-198.369 112.7861,-189.5723"/>
<polygon fill="#000000" stroke="#000000" points="115.8093,-187.7923 108.2066,-180.4133 109.5483,-190.9228 115.8093,-187.7923"/>
</g>
<!-- node_7&#45;&gt;node_3 -->
<g id="edge6" class="edge">
<title>node_7&#45;&gt;node_3</title>
<path fill="none" stroke="#000000" d="M144.0843,-215.8314C148.0615,-207.8771 152.8155,-198.369 157.2139,-189.5723"/>
<polygon fill="#000000" stroke="#000000" points="160.4517,-190.9228 161.7934,-180.4133 154.1907,-187.7923 160.4517,-190.9228"/>
</g>
<!-- node_4 -->
<g id="node8" class="node">
<title>node_4</title>
<text text-anchor="middle" x="207" y="-229.8" font-family="Times,serif" font-size="14.00" fill="#000000">16</text>
</g>
<!-- node_8 -->
<g id="node9" class="node">
<title>node_8</title>
<text text-anchor="middle" x="171" y="-301.8" font-family="Times,serif" font-size="14.00" fill="#000000">31</text>
</g>
<!-- node_8&#45;&gt;node_7 -->
<g id="edge7" class="edge">
<title>node_8&#45;&gt;node_7</title>
<path fill="none" stroke="#000000" d="M161.9157,-287.8314C157.9385,-279.8771 153.1845,-270.369 148.7861,-261.5723"/>
<polygon fill="#000000" stroke="#000000" points="151.8093,-259.7923 144.2066,-252.4133 145.5483,-262.9228 151.8093,-259.7923"/>
</g>
<!-- node_8&#45;&gt;node_4 -->
<g id="edge8" class="edge">
<title>node_8&#45;&gt;node_4</title>
<path fill="none" stroke="#000000" d="M180.0843,-287.8314C184.0615,-279.8771 188.8155,-270.369 193.2139,-261.5723"/>
<polygon fill="#000000" stroke="#000000" points="196.4517,-262.9228 197.7934,-252.4133 190.1907,-259.7923 196.4517,-262.9228"/>
</g>
</g>
</svg>