<?xml version="1.0" encoding="UTF-8" standalone="no"?>
<!DOCTYPE svg PUBLIC "-//W3C//DTD SVG 1.1//EN"
 "http://www.w3.org/Graphics/SVG/1.1/DTD/svg11.dtd">
<!-- Generated by graphviz version 2.40.1 (20161225.0304)
 -->
<!-- Title: G Pages: 1 -->
<svg width="233pt" height="310pt"
 viewBox="0.00 0.00 232.66 310.40" xmlns="http://www.w3.org/2000/svg" xmlns:xlink="http://www.w3.org/1999/xlink">
<g id="graph0" class="graph" transform="scale(1 1) rotate(0) translate(4 306.4)">
<title>G</title>
<polygon fill="#ffffff" stroke="transparent" points="-4,4 -4,-306.4 228.6618,-306.4 228.6618,4 -4,4"/>
<!-- node_A -->
<g id="node1" class="node">
<title>node_A</title>
<text text-anchor="middle" x="29.6618" y="-191.4" font-family="Times,serif" font-size="14.00" fill="#000000">A 4</text>
</g>
<!-- node_B -->
<g id="node2" class="node">
<title>node_B</title>
<text text-anchor="middle" x="85.6618" y="-102.6" font-family="Times,serif" font-size="14.00" fill="#000000">B 2</text>
</g>
<!-- node_D -->
<g id="node3" class="node">
<title>node_D</title>
<text text-anchor="middle" x="125.6618" y="-13.8" font-family="Times,serif" font-size="14.00" fill="#000000">D 1</text>
</g>
<!-- node_C -->
<g id="node4" class="node">
<title>node_C</title>
<text text-anchor="middle" x="197.6618" y="-13.8" font-family="Times,serif" font-size="14.00" fill="#000000">C 1</text>
</g>
<!-- node_CD -->
<g id="node5" class="node">
<title>node_CD</title>
<text text-anchor="middle" x="161.6618" y="-102.6" font-family="Times,serif" font-size="14.00" fill="#000000">{C D} 2</text>
</g>
<!-- node_CD&#45;&gt;node_D -->
<g id="edge1" class="edge">
<title>node_CD&#45;&gt;node_D</title>
<path fill="none" stroke="#000000" d="M154.2026,-88.4006C149.1977,-76.0552 142.5141,-59.5689 136.8728,-45.6539"/>
<polygon fill="#000000" stroke="#000000" points="139.989,-44.0244 132.9883,-36.072 133.5018,-46.6544 139.989,-44.0244"/>
<text text-anchor="middle" x="151.1618" y="-58.2" font-family="Times,serif" font-size="14.00" fill="#000000">0</text>
</g>
<!-- node_CD&#45;&gt;node_C -->
<g id="edge2" class="edge">
<title>node_CD&#45;&gt;node_C</title>
<path fill="none" stroke="#000000" d="M169.121,-88.4006C174.1259,-76.0552 180.8095,-59.5689 186.4508,-45.6539"/>
<polygon fill="#000000" stroke="#000000" points="189.8218,-46.6544 190.3353,-36.072 183.3346,-44.0244 189.8218,-46.6544"/>
<text text-anchor="middle" x="186.1618" y="-58.2" font-family="Times,serif" font-size="14.00" fill="#000000">1</text>
</g>
<!-- node_BCD -->
<g id="node6" class="node">
<title>node_BCD</title>
<text text-anchor="middle" x="112.6618" y="-191.4" font-family="Times,serif" font-size="14.00" fill="#000000">{B C D} 4</text>
</g>
<!-- node_BCD&#45;&gt;node_B -->
<g id="edge3" class="edge">
<title>node_BCD&#45;&gt;node_B</title>
<path fill="none" stroke="#000000" d="M107.0674,-177.2006C103.3137,-164.8552 98.301,-148.3689 94.0701,-134.4539"/>
<polygon fill="#000000" stroke="#000000" points="97.4144,-133.4214 91.1567,-124.872 90.7172,-135.4577 97.4144,-133.4214"/>
<text text-anchor="middle" x="105.1618" y="-147" font-family="Times,serif" font-size="14.00" fill="#000000">0</text>
</g>
<!-- node_BCD&#45;&gt;node_CD -->
<g id="edge4" class="edge">
<title>node_BCD&#45;&gt;node_CD</title>
<path fill="none" stroke="#000000" d="M122.8146,-177.2006C129.7591,-164.6155 139.0781,-147.7271 146.848,-133.6463"/>
<polygon fill="#000000" stroke="#000000" points="149.9227,-135.3185 151.6896,-124.872 143.7939,-131.9365 149.9227,-135.3185"/>
<text text-anchor="middle" x="145.1618" y="-147" font-family="Times,serif" font-size="14.00" fill="#000000">1</text>
</g>
<!-- node_ABCD -->
<g id="node7" class="node">
<title>node_ABCD</title>
<text text-anchor="middle" x="44.6618" y="-280.2" font-family="Times,serif" font-size="14.00" fill="#000000">{A B C D} 8</text>
</g>
<!-- node_ABCD&#45;&gt;node_A -->
<g id="edge5" class="edge">
<title>node_ABCD&#45;&gt;node_A</title>
<path fill="none" stroke="#000000" d="M41.5538,-266.0006C39.4887,-253.775 36.7376,-237.4887 34.4017,-223.6599"/>
<polygon fill="#000000" stroke="#000000" points="37.8313,-222.9493 32.7145,-213.672 30.9291,-224.1153 37.8313,-222.9493"/>
<text text-anchor="middle" x="42.1618" y="-235.8" font-family="Times,serif" font-size="14.00" fill="#000000">0</text>
</g>
<!-- node_ABCD&#45;&gt;node_BCD -->
<g id="edge6" class="edge">
<title>node_ABCD&#45;&gt;node_BCD</title>
<path fill="none" stroke="#000000" d="M58.7514,-266.0006C68.5723,-253.1757 81.8151,-235.8822 92.7176,-221.6448"/>
<polygon fill="#000000" stroke="#000000" points="95.5219,-223.7395 98.8229,-213.672 89.9642,-219.4836 95.5219,-223.7395"/>
<text text-anchor="middle" x="89.1618" y="-235.8" font-family="Times,serif" font-size="14.00" fill="#000000">1</text>
</g>
</g>
</svg>