<?xml version="1.0" encoding="UTF-8" standalone="no"?>
<!DOCTYPE svg PUBLIC "-//W3C//DTD SVG 1.1//EN"
 "http://www.w3.org/Graphics/SVG/1.1/DTD/svg11.dtd">
<!-- Generated by graphviz version 2.40.1 (20161225.0304)
 -->
<!-- Title: G Pages: 1 -->
<svg width="574pt" height="278pt"
 viewBox="0.00 0.00 574.23 278.00" xmlns="http://www.w3.org/2000/svg" xmlns:xlink="http://www.w3.org/1999/xlink">
<g id="graph0" class="graph" transform="scale(1 1) rotate(0) translate(4 274)">
<title>G</title>
<polygon fill="#ffffff" stroke="transparent" points="-4,4 -4,-274 570.2318,-274 570.2318,4 -4,4"/>
<!-- plaintext_0 -->
<g id="node1" class="node">
<title>plaintext_0</title>
<text text-anchor="middle" x="41.2318" y="-244.8" font-family="Times,serif" font-size="14.00" fill="#000000">(1 (2 (3 4)))</text>
</g>
<!-- cons_0 -->
<g id="node8" class="node">
<title>cons_0</title>
<polygon fill="none" stroke="#000000" points="108.2318,-232 108.2318,-266 142.2318,-266 142.2318,-232 108.2318,-232"/>
<text text-anchor="start" x="119.9818" y="-244.8" font-family="Times,serif" font-size="14.00" fill="#000000">●</text>
<polygon fill="none" stroke="#000000" points="142.2318,-232 142.2318,-266 176.2318,-266 176.2318,-232 142.2318,-232"/>
<text text-anchor="start" x="153.9818" y="-244.8" font-family="Times,serif" font-size="14.00" fill="#000000">●</text>
</g>
<!-- plaintext_0&#45;&gt;cons_0 -->
<g id="edge1" class="edge">
<title>plaintext_0&#45;&gt;cons_0</title>
<path fill="none" stroke="#000000" d="M82.6576,-249C84.9895,-249 87.3215,-249 89.6535,-249"/>
<polygon fill="#000000" stroke="#000000" points="89.8783,-252.5001 99.8783,-249 89.8782,-245.5001 89.8783,-252.5001"/>
</g>
<!-- plaintext_1 -->
<g id="node2" class="node">
<title>plaintext_1</title>
<text text-anchor="middle" x="192.2318" y="-166.8" font-family="Times,serif" font-size="14.00" fill="#000000">(2 (3 4))</text>
</g>
<!-- cons_1 -->
<g id="node9" class="node">
<title>cons_1</title>
<polygon fill="none" stroke="#000000" points="249.2318,-154 249.2318,-188 283.2318,-188 283.2318,-154 249.2318,-154"/>
<text text-anchor="start" x="260.9818" y="-166.8" font-family="Times,serif" font-size="14.00" fill="#000000">●</text>
<polygon fill="none" stroke="#000000" points="283.2318,-154 283.2318,-188 317.2318,-188 317.2318,-154 283.2318,-154"/>
<text text-anchor="start" x="294.9818" y="-166.8" font-family="Times,serif" font-size="14.00" fill="#000000">●</text>
</g>
<!-- plaintext_1&#45;&gt;cons_1 -->
<g id="edge5" class="edge">
<title>plaintext_1&#45;&gt;cons_1</title>
<path fill="none" stroke="#000000" d="M223.5131,-171C225.8507,-171 228.1883,-171 230.5259,-171"/>
<polygon fill="#000000" stroke="#000000" points="230.7755,-174.5001 240.7755,-171 230.7755,-167.5001 230.7755,-174.5001"/>
</g>
<!-- plaintext_2 -->
<g id="node3" class="node">
<title>plaintext_2</title>
<text text-anchor="middle" x="335.2318" y="-88.8" font-family="Times,serif" font-size="14.00" fill="#000000">(3 4)</text>
</g>
<!-- cons_2 -->
<g id="node10" class="node">
<title>cons_2</title>
<polygon fill="none" stroke="#000000" points="388.2318,-76 388.2318,-110 422.2318,-110 422.2318,-76 388.2318,-76"/>
<text text-anchor="start" x="399.9818" y="-88.8" font-family="Times,serif" font-size="14.00" fill="#000000">●</text>
<polygon fill="none" stroke="#000000" points="422.2318,-76 422.2318,-110 456.2318,-110 456.2318,-76 422.2318,-76"/>
<text text-anchor="start" x="433.9818" y="-88.8" font-family="Times,serif" font-size="14.00" fill="#000000">●</text>
</g>
<!-- plaintext_2&#45;&gt;cons_2 -->
<g id="edge9" class="edge">
<title>plaintext_2&#45;&gt;cons_2</title>
<path fill="none" stroke="#000000" d="M362.4193,-93C364.9164,-93 367.4134,-93 369.9105,-93"/>
<polygon fill="#000000" stroke="#000000" points="370.1762,-96.5001 380.1761,-93 370.1761,-89.5001 370.1762,-96.5001"/>
</g>
<!-- label_1 -->
<g id="node4" class="node">
<title>label_1</title>
<polygon fill="none" stroke="#000000" points="143.2318,-189 107.2318,-189 107.2318,-153 143.2318,-153 143.2318,-189"/>
<text text-anchor="middle" x="125.2318" y="-166.8" font-family="Times,serif" font-size="14.00" fill="#000000">1</text>
</g>
<!-- label_2 -->
<g id="node5" class="node">
<title>label_2</title>
<polygon fill="none" stroke="#000000" points="284.2318,-111 248.2318,-111 248.2318,-75 284.2318,-75 284.2318,-111"/>
<text text-anchor="middle" x="266.2318" y="-88.8" font-family="Times,serif" font-size="14.00" fill="#000000">2</text>
</g>
<!-- label_3 -->
<g id="node6" class="node">
<title>label_3</title>
<polygon fill="none" stroke="#000000" points="423.2318,-36 387.2318,-36 387.2318,0 423.2318,0 423.2318,-36"/>
<text text-anchor="middle" x="405.2318" y="-13.8" font-family="Times,serif" font-size="14.00" fill="#000000">3</text>
</g>
<!-- label_4 -->
<g id="node7" class="node">
<title>label_4</title>
<polygon fill="none" stroke="#000000" points="525.2318,-36 489.2318,-36 489.2318,0 525.2318,0 525.2318,-36"/>
<text text-anchor="middle" x="507.2318" y="-13.8" font-family="Times,serif" font-size="14.00" fill="#000000">4</text>
</g>
<!-- cons_0&#45;&gt;label_1 -->
<g id="edge2" class="edge">
<title>cons_0:f0&#45;&gt;label_1</title>
<path fill="none" stroke="#000000" d="M125.2318,-232C125.2318,-221.3104 125.2318,-209.5672 125.2318,-199.263"/>
<polygon fill="#000000" stroke="#000000" points="128.7319,-199.1503 125.2318,-189.1503 121.7319,-199.1504 128.7319,-199.1503"/>
</g>
<!-- last_cons_0 -->
<g id="node11" class="node">
<title>last_cons_0</title>
<polygon fill="none" stroke="#000000" points="265.2318,-232 265.2318,-266 299.2318,-266 299.2318,-232 265.2318,-232"/>
<text text-anchor="start" x="276.9818" y="-244.8" font-family="Times,serif" font-size="14.00" fill="#000000">●</text>
<polygon fill="none" stroke="#000000" points="299.2318,-232 299.2318,-266 333.2318,-266 333.2318,-232 299.2318,-232"/>
<text text-anchor="start" x="314.2865" y="-244.8" font-family="Times,serif" font-size="14.00" fill="#000000">/</text>
</g>
<!-- cons_0&#45;&gt;last_cons_0 -->
<g id="edge3" class="edge">
<title>cons_0:f1&#45;&gt;last_cons_0:f0</title>
<path fill="none" stroke="#000000" d="M176.2318,-249C212.079,-249 223.5613,-249 254.8401,-249"/>
<polygon fill="#000000" stroke="#000000" points="255.2318,-252.5001 265.2318,-249 255.2318,-245.5001 255.2318,-252.5001"/>
</g>
<!-- cons_1&#45;&gt;label_2 -->
<g id="edge6" class="edge">
<title>cons_1:f0&#45;&gt;label_2</title>
<path fill="none" stroke="#000000" d="M266.2318,-154C266.2318,-143.3104 266.2318,-131.5672 266.2318,-121.263"/>
<polygon fill="#000000" stroke="#000000" points="269.7319,-121.1503 266.2318,-111.1503 262.7319,-121.1504 269.7319,-121.1503"/>
</g>
<!-- last_cons_1 -->
<g id="node12" class="node">
<title>last_cons_1</title>
<polygon fill="none" stroke="#000000" points="405.2318,-154 405.2318,-188 439.2318,-188 439.2318,-154 405.2318,-154"/>
<text text-anchor="start" x="416.9818" y="-166.8" font-family="Times,serif" font-size="14.00" fill="#000000">●</text>
<polygon fill="none" stroke="#000000" points="439.2318,-154 439.2318,-188 473.2318,-188 473.2318,-154 439.2318,-154"/>
<text text-anchor="start" x="454.2865" y="-166.8" font-family="Times,serif" font-size="14.00" fill="#000000">/</text>
</g>
<!-- cons_1&#45;&gt;last_cons_1 -->
<g id="edge7" class="edge">
<title>cons_1:f1&#45;&gt;last_cons_1:f0</title>
<path fill="none" stroke="#000000" d="M317.2318,-171C352.6762,-171 364.0295,-171 394.9569,-171"/>
<polygon fill="#000000" stroke="#000000" points="395.2318,-174.5001 405.2318,-171 395.2318,-167.5001 395.2318,-174.5001"/>
</g>
<!-- cons_2&#45;&gt;label_3 -->
<g id="edge10" class="edge">
<title>cons_2:f0&#45;&gt;label_3</title>
<path fill="none" stroke="#000000" d="M405.2318,-76C405.2318,-66.2696 405.2318,-55.621 405.2318,-46.1338"/>
<polygon fill="#000000" stroke="#000000" points="408.7319,-46.0267 405.2318,-36.0268 401.7319,-46.0268 408.7319,-46.0267"/>
</g>
<!-- last_cons_2 -->
<g id="node13" class="node">
<title>last_cons_2</title>
<polygon fill="none" stroke="#000000" points="490.2318,-76 490.2318,-110 524.2318,-110 524.2318,-76 490.2318,-76"/>
<text text-anchor="start" x="501.9818" y="-88.8" font-family="Times,serif" font-size="14.00" fill="#000000">●</text>
<polygon fill="none" stroke="#000000" points="524.2318,-76 524.2318,-110 558.2318,-110 558.2318,-76 524.2318,-76"/>
<text text-anchor="start" x="539.2865" y="-88.8" font-family="Times,serif" font-size="14.00" fill="#000000">/</text>
</g>
<!-- cons_2&#45;&gt;last_cons_2 -->
<g id="edge11" class="edge">
<title>cons_2:f1&#45;&gt;last_cons_2:f0</title>
<path fill="none" stroke="#000000" d="M456.2318,-93C467.329,-93 472.3141,-93 480.1642,-93"/>
<polygon fill="#000000" stroke="#000000" points="480.2318,-96.5001 490.2318,-93 480.2318,-89.5001 480.2318,-96.5001"/>
</g>
<!-- last_cons_0&#45;&gt;cons_1 -->
<g id="edge4" class="edge">
<title>last_cons_0:f0&#45;&gt;cons_1</title>
<path fill="none" stroke="#000000" d="M282.2318,-232C282.2318,-222.3806 282.3577,-211.909 282.5201,-202.4007"/>
<polygon fill="#000000" stroke="#000000" points="286.0237,-202.2361 282.7142,-192.1714 279.025,-202.1032 286.0237,-202.2361"/>
</g>
<!-- last_cons_1&#45;&gt;cons_2 -->
<g id="edge8" class="edge">
<title>last_cons_1:f0&#45;&gt;cons_2</title>
<path fill="none" stroke="#000000" d="M422.2318,-154C422.2318,-144.3819 422.2318,-133.9107 422.2318,-124.4023"/>
<polygon fill="#000000" stroke="#000000" points="425.7319,-124.1728 422.2318,-114.1728 418.7319,-124.1729 425.7319,-124.1728"/>
</g>
<!-- last_cons_2&#45;&gt;label_4 -->
<g id="edge12" class="edge">
<title>last_cons_2:f0&#45;&gt;label_4</title>
<path fill="none" stroke="#000000" d="M507.2318,-76C507.2318,-66.2696 507.2318,-55.621 507.2318,-46.1338"/>
<polygon fill="#000000" stroke="#000000" points="510.7319,-46.0267 507.2318,-36.0268 503.7319,-46.0268 510.7319,-46.0267"/>
</g>
</g>
</svg>