<?xml version="1.0" encoding="UTF-8" standalone="no"?>
<!DOCTYPE svg PUBLIC "-//W3C//DTD SVG 1.1//EN"
 "http://www.w3.org/Graphics/SVG/1.1/DTD/svg11.dtd">
<!-- Generated by graphviz version 2.40.1 (20161225.0304)
 -->
<!-- Title: G Pages: 1 -->
<svg width="2134pt" height="620pt"
 viewBox="0.00 0.00 2133.93 620.00" xmlns="http://www.w3.org/2000/svg" xmlns:xlink="http://www.w3.org/1999/xlink">
<g id="graph0" class="graph" transform="scale(1 1) rotate(0) translate(4 616)">
<title>G</title>
<polygon fill="#ffffff" stroke="transparent" points="-4,4 -4,-616 2129.9264,-616 2129.9264,4 -4,4"/>
<!-- node_0 -->
<g id="node1" class="node">
<title>node_0</title>
<text text-anchor="middle" x="1129.9632" y="-589.8" font-family="Times,serif" font-size="14.00" fill="#000000">(expmod 13 19 19)</text>
</g>
<!-- node_1 -->
<g id="node2" class="node">
<title>node_1</title>
<text text-anchor="middle" x="1129.9632" y="-517.8" font-family="Times,serif" font-size="14.00" fill="#000000">(expmod 13 18 19)</text>
</g>
<!-- node_0&#45;&gt;node_1 -->
<g id="edge1" class="edge">
<title>node_0&#45;&gt;node_1</title>
<path fill="none" stroke="#000000" d="M1129.9632,-575.8314C1129.9632,-568.131 1129.9632,-558.9743 1129.9632,-550.4166"/>
<polygon fill="#000000" stroke="#000000" points="1133.4633,-550.4132 1129.9632,-540.4133 1126.4633,-550.4133 1133.4633,-550.4132"/>
</g>
<!-- node_2 -->
<g id="node3" class="node">
<title>node_2</title>
<text text-anchor="middle" x="1062.9632" y="-445.8" font-family="Times,serif" font-size="14.00" fill="#000000">(expmod 13 9 19)</text>
</g>
<!-- node_1&#45;&gt;node_2 -->
<g id="edge2" class="edge">
<title>node_1&#45;&gt;node_2</title>
<path fill="none" stroke="#000000" d="M1113.0563,-503.8314C1105.1819,-495.3694 1095.6712,-485.1489 1087.0619,-475.8971"/>
<polygon fill="#000000" stroke="#000000" points="1089.4724,-473.3497 1080.0978,-468.4133 1084.3479,-478.1183 1089.4724,-473.3497"/>
</g>
<!-- node_34 -->
<g id="node35" class="node">
<title>node_34</title>
<text text-anchor="middle" x="1330.9632" y="-445.8" font-family="Times,serif" font-size="14.00" fill="#000000">(expmod 13 9 19)</text>
</g>
<!-- node_1&#45;&gt;node_34 -->
<g id="edge34" class="edge">
<title>node_1&#45;&gt;node_34</title>
<path fill="none" stroke="#000000" d="M1180.4245,-503.9243C1207.9024,-494.0815 1242.0804,-481.8386 1270.922,-471.5073"/>
<polygon fill="#000000" stroke="#000000" points="1272.2472,-474.7505 1280.4811,-468.0831 1269.8865,-468.1605 1272.2472,-474.7505"/>
</g>
<!-- node_3 -->
<g id="node4" class="node">
<title>node_3</title>
<text text-anchor="middle" x="794.9632" y="-373.8" font-family="Times,serif" font-size="14.00" fill="#000000">(expmod 13 8 19)</text>
</g>
<!-- node_2&#45;&gt;node_3 -->
<g id="edge3" class="edge">
<title>node_2&#45;&gt;node_3</title>
<path fill="none" stroke="#000000" d="M1004.8112,-434.3771C963.0193,-423.1494 906.5511,-407.9788 862.7183,-396.2029"/>
<polygon fill="#000000" stroke="#000000" points="863.5674,-392.8069 853.0017,-393.5924 861.7511,-399.5672 863.5674,-392.8069"/>
</g>
<!-- node_4 -->
<g id="node5" class="node">
<title>node_4</title>
<text text-anchor="middle" x="392.9632" y="-301.8" font-family="Times,serif" font-size="14.00" fill="#000000">(expmod 13 4 19)</text>
</g>
<!-- node_3&#45;&gt;node_4 -->
<g id="edge4" class="edge">
<title>node_3&#45;&gt;node_4</title>
<path fill="none" stroke="#000000" d="M736.9383,-367.6075C663.8983,-354.5257 538.6345,-332.0904 461.1143,-318.2062"/>
<polygon fill="#000000" stroke="#000000" points="461.431,-314.7073 450.9705,-316.3894 460.1968,-321.5976 461.431,-314.7073"/>
</g>
<!-- node_19 -->
<g id="node20" class="node">
<title>node_19</title>
<text text-anchor="middle" x="794.9632" y="-301.8" font-family="Times,serif" font-size="14.00" fill="#000000">(expmod 13 4 19)</text>
</g>
<!-- node_3&#45;&gt;node_19 -->
<g id="edge19" class="edge">
<title>node_3&#45;&gt;node_19</title>
<path fill="none" stroke="#000000" d="M794.9632,-359.8314C794.9632,-352.131 794.9632,-342.9743 794.9632,-334.4166"/>
<polygon fill="#000000" stroke="#000000" points="798.4633,-334.4132 794.9632,-324.4133 791.4633,-334.4133 798.4633,-334.4132"/>
</g>
<!-- node_5 -->
<g id="node6" class="node">
<title>node_5</title>
<text text-anchor="middle" x="191.9632" y="-229.8" font-family="Times,serif" font-size="14.00" fill="#000000">(expmod 13 2 19)</text>
</g>
<!-- node_4&#45;&gt;node_5 -->
<g id="edge5" class="edge">
<title>node_4&#45;&gt;node_5</title>
<path fill="none" stroke="#000000" d="M342.5019,-287.9243C315.024,-278.0815 280.846,-265.8386 252.0044,-255.5073"/>
<polygon fill="#000000" stroke="#000000" points="253.0399,-252.1605 242.4453,-252.0831 250.6792,-258.7505 253.0399,-252.1605"/>
</g>
<!-- node_12 -->
<g id="node13" class="node">
<title>node_12</title>
<text text-anchor="middle" x="392.9632" y="-229.8" font-family="Times,serif" font-size="14.00" fill="#000000">(expmod 13 2 19)</text>
</g>
<!-- node_4&#45;&gt;node_12 -->
<g id="edge12" class="edge">
<title>node_4&#45;&gt;node_12</title>
<path fill="none" stroke="#000000" d="M392.9632,-287.8314C392.9632,-280.131 392.9632,-270.9743 392.9632,-262.4166"/>
<polygon fill="#000000" stroke="#000000" points="396.4633,-262.4132 392.9632,-252.4133 389.4633,-262.4133 396.4633,-262.4132"/>
</g>
<!-- node_6 -->
<g id="node7" class="node">
<title>node_6</title>
<text text-anchor="middle" x="57.9632" y="-157.8" font-family="Times,serif" font-size="14.00" fill="#000000">(expmod 13 1 19)</text>
</g>
<!-- node_5&#45;&gt;node_6 -->
<g id="edge6" class="edge">
<title>node_5&#45;&gt;node_6</title>
<path fill="none" stroke="#000000" d="M158.1493,-215.8314C140.6925,-206.4516 119.2145,-194.9112 100.628,-184.9244"/>
<polygon fill="#000000" stroke="#000000" points="102.2318,-181.8129 91.7662,-180.1628 98.9186,-187.9792 102.2318,-181.8129"/>
</g>
<!-- node_9 -->
<g id="node10" class="node">
<title>node_9</title>
<text text-anchor="middle" x="191.9632" y="-157.8" font-family="Times,serif" font-size="14.00" fill="#000000">(expmod 13 1 19)</text>
</g>
<!-- node_5&#45;&gt;node_9 -->
<g id="edge9" class="edge">
<title>node_5&#45;&gt;node_9</title>
<path fill="none" stroke="#000000" d="M191.9632,-215.8314C191.9632,-208.131 191.9632,-198.9743 191.9632,-190.4166"/>
<polygon fill="#000000" stroke="#000000" points="195.4633,-190.4132 191.9632,-180.4133 188.4633,-190.4133 195.4633,-190.4132"/>
</g>
<!-- node_7 -->
<g id="node8" class="node">
<title>node_7</title>
<text text-anchor="middle" x="57.9632" y="-85.8" font-family="Times,serif" font-size="14.00" fill="#000000">(expmod 13 0 19)</text>
</g>
<!-- node_6&#45;&gt;node_7 -->
<g id="edge7" class="edge">
<title>node_6&#45;&gt;node_7</title>
<path fill="none" stroke="#000000" d="M57.9632,-143.8314C57.9632,-136.131 57.9632,-126.9743 57.9632,-118.4166"/>
<polygon fill="#000000" stroke="#000000" points="61.4633,-118.4132 57.9632,-108.4133 54.4633,-118.4133 61.4633,-118.4132"/>
</g>
<!-- node_8 -->
<g id="node9" class="node">
<title>node_8</title>
<text text-anchor="middle" x="57.9632" y="-13.8" font-family="Times,serif" font-size="14.00" fill="#000000">1</text>
</g>
<!-- node_7&#45;&gt;node_8 -->
<g id="edge8" class="edge">
<title>node_7&#45;&gt;node_8</title>
<path fill="none" stroke="#000000" d="M57.9632,-71.8314C57.9632,-64.131 57.9632,-54.9743 57.9632,-46.4166"/>
<polygon fill="#000000" stroke="#000000" points="61.4633,-46.4132 57.9632,-36.4133 54.4633,-46.4133 61.4633,-46.4132"/>
</g>
<!-- node_10 -->
<g id="node11" class="node">
<title>node_10</title>
<text text-anchor="middle" x="191.9632" y="-85.8" font-family="Times,serif" font-size="14.00" fill="#000000">(expmod 13 0 19)</text>
</g>
<!-- node_9&#45;&gt;node_10 -->
<g id="edge10" class="edge">
<title>node_9&#45;&gt;node_10</title>
<path fill="none" stroke="#000000" d="M191.9632,-143.8314C191.9632,-136.131 191.9632,-126.9743 191.9632,-118.4166"/>
<polygon fill="#000000" stroke="#000000" points="195.4633,-118.4132 191.9632,-108.4133 188.4633,-118.4133 195.4633,-118.4132"/>
</g>
<!-- node_11 -->
<g id="node12" class="node">
<title>node_11</title>
<text text-anchor="middle" x="191.9632" y="-13.8" font-family="Times,serif" font-size="14.00" fill="#000000">1</text>
</g>
<!-- node_10&#45;&gt;node_11 -->
<g id="edge11" class="edge">
<title>node_10&#45;&gt;node_11</title>
<path fill="none" stroke="#000000" d="M191.9632,-71.8314C191.9632,-64.131 191.9632,-54.9743 191.9632,-46.4166"/>
<polygon fill="#000000" stroke="#000000" points="195.4633,-46.4132 191.9632,-36.4133 188.4633,-46.4133 195.4633,-46.4132"/>
</g>
<!-- node_13 -->
<g id="node14" class="node">
<title>node_13</title>
<text text-anchor="middle" x="325.9632" y="-157.8" font-family="Times,serif" font-size="14.00" fill="#000000">(expmod 13 1 19)</text>
</g>
<!-- node_12&#45;&gt;node_13 -->
<g id="edge13" class="edge">
<title>node_12&#45;&gt;node_13</title>
<path fill="none" stroke="#000000" d="M376.0563,-215.8314C368.1819,-207.3694 358.6712,-197.1489 350.0619,-187.8971"/>
<polygon fill="#000000" stroke="#000000" points="352.4724,-185.3497 343.0978,-180.4133 347.3479,-190.1183 352.4724,-185.3497"/>
</g>
<!-- node_16 -->
<g id="node17" class="node">
<title>node_16</title>
<text text-anchor="middle" x="459.9632" y="-157.8" font-family="Times,serif" font-size="14.00" fill="#000000">(expmod 13 1 19)</text>
</g>
<!-- node_12&#45;&gt;node_16 -->
<g id="edge16" class="edge">
<title>node_12&#45;&gt;node_16</title>
<path fill="none" stroke="#000000" d="M409.8701,-215.8314C417.7445,-207.3694 427.2552,-197.1489 435.8645,-187.8971"/>
<polygon fill="#000000" stroke="#000000" points="438.5785,-190.1183 442.8286,-180.4133 433.454,-185.3497 438.5785,-190.1183"/>
</g>
<!-- node_14 -->
<g id="node15" class="node">
<title>node_14</title>
<text text-anchor="middle" x="325.9632" y="-85.8" font-family="Times,serif" font-size="14.00" fill="#000000">(expmod 13 0 19)</text>
</g>
<!-- node_13&#45;&gt;node_14 -->
<g id="edge14" class="edge">
<title>node_13&#45;&gt;node_14</title>
<path fill="none" stroke="#000000" d="M325.9632,-143.8314C325.9632,-136.131 325.9632,-126.9743 325.9632,-118.4166"/>
<polygon fill="#000000" stroke="#000000" points="329.4633,-118.4132 325.9632,-108.4133 322.4633,-118.4133 329.4633,-118.4132"/>
</g>
<!-- node_15 -->
<g id="node16" class="node">
<title>node_15</title>
<text text-anchor="middle" x="325.9632" y="-13.8" font-family="Times,serif" font-size="14.00" fill="#000000">1</text>
</g>
<!-- node_14&#45;&gt;node_15 -->
<g id="edge15" class="edge">
<title>node_14&#45;&gt;node_15</title>
<path fill="none" stroke="#000000" d="M325.9632,-71.8314C325.9632,-64.131 325.9632,-54.9743 325.9632,-46.4166"/>
<polygon fill="#000000" stroke="#000000" points="329.4633,-46.4132 325.9632,-36.4133 322.4633,-46.4133 329.4633,-46.4132"/>
</g>
<!-- node_17 -->
<g id="node18" class="node">
<title>node_17</title>
<text text-anchor="middle" x="459.9632" y="-85.8" font-family="Times,serif" font-size="14.00" fill="#000000">(expmod 13 0 19)</text>
</g>
<!-- node_16&#45;&gt;node_17 -->
<g id="edge17" class="edge">
<title>node_16&#45;&gt;node_17</title>
<path fill="none" stroke="#000000" d="M459.9632,-143.8314C459.9632,-136.131 459.9632,-126.9743 459.9632,-118.4166"/>
<polygon fill="#000000" stroke="#000000" points="463.4633,-118.4132 459.9632,-108.4133 456.4633,-118.4133 463.4633,-118.4132"/>
</g>
<!-- node_18 -->
<g id="node19" class="node">
<title>node_18</title>
<text text-anchor="middle" x="459.9632" y="-13.8" font-family="Times,serif" font-size="14.00" fill="#000000">1</text>
</g>
<!-- node_17&#45;&gt;node_18 -->
<g id="edge18" class="edge">
<title>node_17&#45;&gt;node_18</title>
<path fill="none" stroke="#000000" d="M459.9632,-71.8314C459.9632,-64.131 459.9632,-54.9743 459.9632,-46.4166"/>
<polygon fill="#000000" stroke="#000000" points="463.4633,-46.4132 459.9632,-36.4133 456.4633,-46.4133 463.4633,-46.4132"/>
</g>
<!-- node_20 -->
<g id="node21" class="node">
<title>node_20</title>
<text text-anchor="middle" x="727.9632" y="-229.8" font-family="Times,serif" font-size="14.00" fill="#000000">(expmod 13 2 19)</text>
</g>
<!-- node_19&#45;&gt;node_20 -->
<g id="edge20" class="edge">
<title>node_19&#45;&gt;node_20</title>
<path fill="none" stroke="#000000" d="M778.0563,-287.8314C770.1819,-279.3694 760.6712,-269.1489 752.0619,-259.8971"/>
<polygon fill="#000000" stroke="#000000" points="754.4724,-257.3497 745.0978,-252.4133 749.3479,-262.1183 754.4724,-257.3497"/>
</g>
<!-- node_27 -->
<g id="node28" class="node">
<title>node_27</title>
<text text-anchor="middle" x="861.9632" y="-229.8" font-family="Times,serif" font-size="14.00" fill="#000000">(expmod 13 2 19)</text>
</g>
<!-- node_19&#45;&gt;node_27 -->
<g id="edge27" class="edge">
<title>node_19&#45;&gt;node_27</title>
<path fill="none" stroke="#000000" d="M811.8701,-287.8314C819.7445,-279.3694 829.2552,-269.1489 837.8645,-259.8971"/>
<polygon fill="#000000" stroke="#000000" points="840.5785,-262.1183 844.8286,-252.4133 835.454,-257.3497 840.5785,-262.1183"/>
</g>
<!-- node_21 -->
<g id="node22" class="node">
<title>node_21</title>
<text text-anchor="middle" x="593.9632" y="-157.8" font-family="Times,serif" font-size="14.00" fill="#000000">(expmod 13 1 19)</text>
</g>
<!-- node_20&#45;&gt;node_21 -->
<g id="edge21" class="edge">
<title>node_20&#45;&gt;node_21</title>
<path fill="none" stroke="#000000" d="M694.1493,-215.8314C676.6925,-206.4516 655.2145,-194.9112 636.628,-184.9244"/>
<polygon fill="#000000" stroke="#000000" points="638.2318,-181.8129 627.7662,-180.1628 634.9186,-187.9792 638.2318,-181.8129"/>
</g>
<!-- node_24 -->
<g id="node25" class="node">
<title>node_24</title>
<text text-anchor="middle" x="727.9632" y="-157.8" font-family="Times,serif" font-size="14.00" fill="#000000">(expmod 13 1 19)</text>
</g>
<!-- node_20&#45;&gt;node_24 -->
<g id="edge24" class="edge">
<title>node_20&#45;&gt;node_24</title>
<path fill="none" stroke="#000000" d="M727.9632,-215.8314C727.9632,-208.131 727.9632,-198.9743 727.9632,-190.4166"/>
<polygon fill="#000000" stroke="#000000" points="731.4633,-190.4132 727.9632,-180.4133 724.4633,-190.4133 731.4633,-190.4132"/>
</g>
<!-- node_22 -->
<g id="node23" class="node">
<title>node_22</title>
<text text-anchor="middle" x="593.9632" y="-85.8" font-family="Times,serif" font-size="14.00" fill="#000000">(expmod 13 0 19)</text>
</g>
<!-- node_21&#45;&gt;node_22 -->
<g id="edge22" class="edge">
<title>node_21&#45;&gt;node_22</title>
<path fill="none" stroke="#000000" d="M593.9632,-143.8314C593.9632,-136.131 593.9632,-126.9743 593.9632,-118.4166"/>
<polygon fill="#000000" stroke="#000000" points="597.4633,-118.4132 593.9632,-108.4133 590.4633,-118.4133 597.4633,-118.4132"/>
</g>
<!-- node_23 -->
<g id="node24" class="node">
<title>node_23</title>
<text text-anchor="middle" x="593.9632" y="-13.8" font-family="Times,serif" font-size="14.00" fill="#000000">1</text>
</g>
<!-- node_22&#45;&gt;node_23 -->
<g id="edge23" class="edge">
<title>node_22&#45;&gt;node_23</title>
<path fill="none" stroke="#000000" d="M593.9632,-71.8314C593.9632,-64.131 593.9632,-54.9743 593.9632,-46.4166"/>
<polygon fill="#000000" stroke="#000000" points="597.4633,-46.4132 593.9632,-36.4133 590.4633,-46.4133 597.4633,-46.4132"/>
</g>
<!-- node_25 -->
<g id="node26" class="node">
<title>node_25</title>
<text text-anchor="middle" x="727.9632" y="-85.8" font-family="Times,serif" font-size="14.00" fill="#000000">(expmod 13 0 19)</text>
</g>
<!-- node_24&#45;&gt;node_25 -->
<g id="edge25" class="edge">
<title>node_24&#45;&gt;node_25</title>
<path fill="none" stroke="#000000" d="M727.9632,-143.8314C727.9632,-136.131 727.9632,-126.9743 727.9632,-118.4166"/>
<polygon fill="#000000" stroke="#000000" points="731.4633,-118.4132 727.9632,-108.4133 724.4633,-118.4133 731.4633,-118.4132"/>
</g>
<!-- node_26 -->
<g id="node27" class="node">
<title>node_26</title>
<text text-anchor="middle" x="727.9632" y="-13.8" font-family="Times,serif" font-size="14.00" fill="#000000">1</text>
</g>
<!-- node_25&#45;&gt;node_26 -->
<g id="edge26" class="edge">
<title>node_25&#45;&gt;node_26</title>
<path fill="none" stroke="#000000" d="M727.9632,-71.8314C727.9632,-64.131 727.9632,-54.9743 727.9632,-46.4166"/>
<polygon fill="#000000" stroke="#000000" points="731.4633,-46.4132 727.9632,-36.4133 724.4633,-46.4133 731.4633,-46.4132"/>
</g>
<!-- node_28 -->
<g id="node29" class="node">
<title>node_28</title>
<text text-anchor="middle" x="861.9632" y="-157.8" font-family="Times,serif" font-size="14.00" fill="#000000">(expmod 13 1 19)</text>
</g>
<!-- node_27&#45;&gt;node_28 -->
<g id="edge28" class="edge">
<title>node_27&#45;&gt;node_28</title>
<path fill="none" stroke="#000000" d="M861.9632,-215.8314C861.9632,-208.131 861.9632,-198.9743 861.9632,-190.4166"/>
<polygon fill="#000000" stroke="#000000" points="865.4633,-190.4132 861.9632,-180.4133 858.4633,-190.4133 865.4633,-190.4132"/>
</g>
<!-- node_31 -->
<g id="node32" class="node">
<title>node_31</title>
<text text-anchor="middle" x="995.9632" y="-157.8" font-family="Times,serif" font-size="14.00" fill="#000000">(expmod 13 1 19)</text>
</g>
<!-- node_27&#45;&gt;node_31 -->
<g id="edge31" class="edge">
<title>node_27&#45;&gt;node_31</title>
<path fill="none" stroke="#000000" d="M895.7771,-215.8314C913.2339,-206.4516 934.7119,-194.9112 953.2984,-184.9244"/>
<polygon fill="#000000" stroke="#000000" points="955.0078,-187.9792 962.1602,-180.1628 951.6946,-181.8129 955.0078,-187.9792"/>
</g>
<!-- node_29 -->
<g id="node30" class="node">
<title>node_29</title>
<text text-anchor="middle" x="861.9632" y="-85.8" font-family="Times,serif" font-size="14.00" fill="#000000">(expmod 13 0 19)</text>
</g>
<!-- node_28&#45;&gt;node_29 -->
<g id="edge29" class="edge">
<title>node_28&#45;&gt;node_29</title>
<path fill="none" stroke="#000000" d="M861.9632,-143.8314C861.9632,-136.131 861.9632,-126.9743 861.9632,-118.4166"/>
<polygon fill="#000000" stroke="#000000" points="865.4633,-118.4132 861.9632,-108.4133 858.4633,-118.4133 865.4633,-118.4132"/>
</g>
<!-- node_30 -->
<g id="node31" class="node">
<title>node_30</title>
<text text-anchor="middle" x="861.9632" y="-13.8" font-family="Times,serif" font-size="14.00" fill="#000000">1</text>
</g>
<!-- node_29&#45;&gt;node_30 -->
<g id="edge30" class="edge">
<title>node_29&#45;&gt;node_30</title>
<path fill="none" stroke="#000000" d="M861.9632,-71.8314C861.9632,-64.131 861.9632,-54.9743 861.9632,-46.4166"/>
<polygon fill="#000000" stroke="#000000" points="865.4633,-46.4132 861.9632,-36.4133 858.4633,-46.4133 865.4633,-46.4132"/>
</g>
<!-- node_32 -->
<g id="node33" class="node">
<title>node_32</title>
<text text-anchor="middle" x="995.9632" y="-85.8" font-family="Times,serif" font-size="14.00" fill="#000000">(expmod 13 0 19)</text>
</g>
<!-- node_31&#45;&gt;node_32 -->
<g id="edge32" class="edge">
<title>node_31&#45;&gt;node_32</title>
<path fill="none" stroke="#000000" d="M995.9632,-143.8314C995.9632,-136.131 995.9632,-126.9743 995.9632,-118.4166"/>
<polygon fill="#000000" stroke="#000000" points="999.4633,-118.4132 995.9632,-108.4133 992.4633,-118.4133 999.4633,-118.4132"/>
</g>
<!-- node_33 -->
<g id="node34" class="node">
<title>node_33</title>
<text text-anchor="middle" x="995.9632" y="-13.8" font-family="Times,serif" font-size="14.00" fill="#000000">1</text>
</g>
<!-- node_32&#45;&gt;node_33 -->
<g id="edge33" class="edge">
<title>node_32&#45;&gt;node_33</title>
<path fill="none" stroke="#000000" d="M995.9632,-71.8314C995.9632,-64.131 995.9632,-54.9743 995.9632,-46.4166"/>
<polygon fill="#000000" stroke="#000000" points="999.4633,-46.4132 995.9632,-36.4133 992.4633,-46.4133 999.4633,-46.4132"/>
</g>
<!-- node_35 -->
<g id="node36" class="node">
<title>node_35</title>
<text text-anchor="middle" x="1364.9632" y="-373.8" font-family="Times,serif" font-size="14.00" fill="#000000">(expmod 13 8 19)</text>
</g>
<!-- node_34&#45;&gt;node_35 -->
<g id="edge35" class="edge">
<title>node_34&#45;&gt;node_35</title>
<path fill="none" stroke="#000000" d="M1339.5428,-431.8314C1343.299,-423.8771 1347.7889,-414.369 1351.943,-405.5723"/>
<polygon fill="#000000" stroke="#000000" points="1355.1628,-406.9503 1356.268,-396.4133 1348.8331,-403.9612 1355.1628,-406.9503"/>
</g>
<!-- node_36 -->
<g id="node37" class="node">
<title>node_36</title>
<text text-anchor="middle" x="1364.9632" y="-301.8" font-family="Times,serif" font-size="14.00" fill="#000000">(expmod 13 4 19)</text>
</g>
<!-- node_35&#45;&gt;node_36 -->
<g id="edge36" class="edge">
<title>node_35&#45;&gt;node_36</title>
<path fill="none" stroke="#000000" d="M1364.9632,-359.8314C1364.9632,-352.131 1364.9632,-342.9743 1364.9632,-334.4166"/>
<polygon fill="#000000" stroke="#000000" points="1368.4633,-334.4132 1364.9632,-324.4133 1361.4633,-334.4133 1368.4633,-334.4132"/>
</g>
<!-- node_51 -->
<g id="node52" class="node">
<title>node_51</title>
<text text-anchor="middle" x="1732.9632" y="-301.8" font-family="Times,serif" font-size="14.00" fill="#000000">(expmod 13 4 19)</text>
</g>
<!-- node_35&#45;&gt;node_51 -->
<g id="edge51" class="edge">
<title>node_35&#45;&gt;node_51</title>
<path fill="none" stroke="#000000" d="M1423.2739,-366.5914C1488.951,-353.7415 1595.5529,-332.8846 1664.9636,-319.3043"/>
<polygon fill="#000000" stroke="#000000" points="1665.7835,-322.7103 1674.9253,-317.3552 1664.4393,-315.8406 1665.7835,-322.7103"/>
</g>
<!-- node_37 -->
<g id="node38" class="node">
<title>node_37</title>
<text text-anchor="middle" x="1263.9632" y="-229.8" font-family="Times,serif" font-size="14.00" fill="#000000">(expmod 13 2 19)</text>
</g>
<!-- node_36&#45;&gt;node_37 -->
<g id="edge37" class="edge">
<title>node_36&#45;&gt;node_37</title>
<path fill="none" stroke="#000000" d="M1339.4766,-287.8314C1326.7973,-278.7927 1311.3036,-267.7476 1297.6577,-258.0198"/>
<polygon fill="#000000" stroke="#000000" points="1299.6161,-255.1176 1289.4416,-252.1628 1295.5527,-260.8176 1299.6161,-255.1176"/>
</g>
<!-- node_44 -->
<g id="node45" class="node">
<title>node_44</title>
<text text-anchor="middle" x="1397.9632" y="-229.8" font-family="Times,serif" font-size="14.00" fill="#000000">(expmod 13 2 19)</text>
</g>
<!-- node_36&#45;&gt;node_44 -->
<g id="edge44" class="edge">
<title>node_36&#45;&gt;node_44</title>
<path fill="none" stroke="#000000" d="M1373.2905,-287.8314C1376.9362,-279.8771 1381.2941,-270.369 1385.3259,-261.5723"/>
<polygon fill="#000000" stroke="#000000" points="1388.5389,-262.9622 1389.5238,-252.4133 1382.1755,-260.0456 1388.5389,-262.9622"/>
</g>
<!-- node_38 -->
<g id="node39" class="node">
<title>node_38</title>
<text text-anchor="middle" x="1129.9632" y="-157.8" font-family="Times,serif" font-size="14.00" fill="#000000">(expmod 13 1 19)</text>
</g>
<!-- node_37&#45;&gt;node_38 -->
<g id="edge38" class="edge">
<title>node_37&#45;&gt;node_38</title>
<path fill="none" stroke="#000000" d="M1230.1493,-215.8314C1212.6925,-206.4516 1191.2145,-194.9112 1172.628,-184.9244"/>
<polygon fill="#000000" stroke="#000000" points="1174.2318,-181.8129 1163.7662,-180.1628 1170.9186,-187.9792 1174.2318,-181.8129"/>
</g>
<!-- node_41 -->
<g id="node42" class="node">
<title>node_41</title>
<text text-anchor="middle" x="1263.9632" y="-157.8" font-family="Times,serif" font-size="14.00" fill="#000000">(expmod 13 1 19)</text>
</g>
<!-- node_37&#45;&gt;node_41 -->
<g id="edge41" class="edge">
<title>node_37&#45;&gt;node_41</title>
<path fill="none" stroke="#000000" d="M1263.9632,-215.8314C1263.9632,-208.131 1263.9632,-198.9743 1263.9632,-190.4166"/>
<polygon fill="#000000" stroke="#000000" points="1267.4633,-190.4132 1263.9632,-180.4133 1260.4633,-190.4133 1267.4633,-190.4132"/>
</g>
<!-- node_39 -->
<g id="node40" class="node">
<title>node_39</title>
<text text-anchor="middle" x="1129.9632" y="-85.8" font-family="Times,serif" font-size="14.00" fill="#000000">(expmod 13 0 19)</text>
</g>
<!-- node_38&#45;&gt;node_39 -->
<g id="edge39" class="edge">
<title>node_38&#45;&gt;node_39</title>
<path fill="none" stroke="#000000" d="M1129.9632,-143.8314C1129.9632,-136.131 1129.9632,-126.9743 1129.9632,-118.4166"/>
<polygon fill="#000000" stroke="#000000" points="1133.4633,-118.4132 1129.9632,-108.4133 1126.4633,-118.4133 1133.4633,-118.4132"/>
</g>
<!-- node_40 -->
<g id="node41" class="node">
<title>node_40</title>
<text text-anchor="middle" x="1129.9632" y="-13.8" font-family="Times,serif" font-size="14.00" fill="#000000">1</text>
</g>
<!-- node_39&#45;&gt;node_40 -->
<g id="edge40" class="edge">
<title>node_39&#45;&gt;node_40</title>
<path fill="none" stroke="#000000" d="M1129.9632,-71.8314C1129.9632,-64.131 1129.9632,-54.9743 1129.9632,-46.4166"/>
<polygon fill="#000000" stroke="#000000" points="1133.4633,-46.4132 1129.9632,-36.4133 1126.4633,-46.4133 1133.4633,-46.4132"/>
</g>
<!-- node_42 -->
<g id="node43" class="node">
<title>node_42</title>
<text text-anchor="middle" x="1263.9632" y="-85.8" font-family="Times,serif" font-size="14.00" fill="#000000">(expmod 13 0 19)</text>
</g>
<!-- node_41&#45;&gt;node_42 -->
<g id="edge42" class="edge">
<title>node_41&#45;&gt;node_42</title>
<path fill="none" stroke="#000000" d="M1263.9632,-143.8314C1263.9632,-136.131 1263.9632,-126.9743 1263.9632,-118.4166"/>
<polygon fill="#000000" stroke="#000000" points="1267.4633,-118.4132 1263.9632,-108.4133 1260.4633,-118.4133 1267.4633,-118.4132"/>
</g>
<!-- node_43 -->
<g id="node44" class="node">
<title>node_43</title>
<text text-anchor="middle" x="1263.9632" y="-13.8" font-family="Times,serif" font-size="14.00" fill="#000000">1</text>
</g>
<!-- node_42&#45;&gt;node_43 -->
<g id="edge43" class="edge">
<title>node_42&#45;&gt;node_43</title>
<path fill="none" stroke="#000000" d="M1263.9632,-71.8314C1263.9632,-64.131 1263.9632,-54.9743 1263.9632,-46.4166"/>
<polygon fill="#000000" stroke="#000000" points="1267.4633,-46.4132 1263.9632,-36.4133 1260.4633,-46.4133 1267.4633,-46.4132"/>
</g>
<!-- node_45 -->
<g id="node46" class="node">
<title>node_45</title>
<text text-anchor="middle" x="1397.9632" y="-157.8" font-family="Times,serif" font-size="14.00" fill="#000000">(expmod 13 1 19)</text>
</g>
<!-- node_44&#45;&gt;node_45 -->
<g id="edge45" class="edge">
<title>node_44&#45;&gt;node_45</title>
<path fill="none" stroke="#000000" d="M1397.9632,-215.8314C1397.9632,-208.131 1397.9632,-198.9743 1397.9632,-190.4166"/>
<polygon fill="#000000" stroke="#000000" points="1401.4633,-190.4132 1397.9632,-180.4133 1394.4633,-190.4133 1401.4633,-190.4132"/>
</g>
<!-- node_48 -->
<g id="node49" class="node">
<title>node_48</title>
<text text-anchor="middle" x="1531.9632" y="-157.8" font-family="Times,serif" font-size="14.00" fill="#000000">(expmod 13 1 19)</text>
</g>
<!-- node_44&#45;&gt;node_48 -->
<g id="edge48" class="edge">
<title>node_44&#45;&gt;node_48</title>
<path fill="none" stroke="#000000" d="M1431.7771,-215.8314C1449.2339,-206.4516 1470.7119,-194.9112 1489.2984,-184.9244"/>
<polygon fill="#000000" stroke="#000000" points="1491.0078,-187.9792 1498.1602,-180.1628 1487.6946,-181.8129 1491.0078,-187.9792"/>
</g>
<!-- node_46 -->
<g id="node47" class="node">
<title>node_46</title>
<text text-anchor="middle" x="1397.9632" y="-85.8" font-family="Times,serif" font-size="14.00" fill="#000000">(expmod 13 0 19)</text>
</g>
<!-- node_45&#45;&gt;node_46 -->
<g id="edge46" class="edge">
<title>node_45&#45;&gt;node_46</title>
<path fill="none" stroke="#000000" d="M1397.9632,-143.8314C1397.9632,-136.131 1397.9632,-126.9743 1397.9632,-118.4166"/>
<polygon fill="#000000" stroke="#000000" points="1401.4633,-118.4132 1397.9632,-108.4133 1394.4633,-118.4133 1401.4633,-118.4132"/>
</g>
<!-- node_47 -->
<g id="node48" class="node">
<title>node_47</title>
<text text-anchor="middle" x="1397.9632" y="-13.8" font-family="Times,serif" font-size="14.00" fill="#000000">1</text>
</g>
<!-- node_46&#45;&gt;node_47 -->
<g id="edge47" class="edge">
<title>node_46&#45;&gt;node_47</title>
<path fill="none" stroke="#000000" d="M1397.9632,-71.8314C1397.9632,-64.131 1397.9632,-54.9743 1397.9632,-46.4166"/>
<polygon fill="#000000" stroke="#000000" points="1401.4633,-46.4132 1397.9632,-36.4133 1394.4633,-46.4133 1401.4633,-46.4132"/>
</g>
<!-- node_49 -->
<g id="node50" class="node">
<title>node_49</title>
<text text-anchor="middle" x="1531.9632" y="-85.8" font-family="Times,serif" font-size="14.00" fill="#000000">(expmod 13 0 19)</text>
</g>
<!-- node_48&#45;&gt;node_49 -->
<g id="edge49" class="edge">
<title>node_48&#45;&gt;node_49</title>
<path fill="none" stroke="#000000" d="M1531.9632,-143.8314C1531.9632,-136.131 1531.9632,-126.9743 1531.9632,-118.4166"/>
<polygon fill="#000000" stroke="#000000" points="1535.4633,-118.4132 1531.9632,-108.4133 1528.4633,-118.4133 1535.4633,-118.4132"/>
</g>
<!-- node_50 -->
<g id="node51" class="node">
<title>node_50</title>
<text text-anchor="middle" x="1531.9632" y="-13.8" font-family="Times,serif" font-size="14.00" fill="#000000">1</text>
</g>
<!-- node_49&#45;&gt;node_50 -->
<g id="edge50" class="edge">
<title>node_49&#45;&gt;node_50</title>
<path fill="none" stroke="#000000" d="M1531.9632,-71.8314C1531.9632,-64.131 1531.9632,-54.9743 1531.9632,-46.4166"/>
<polygon fill="#000000" stroke="#000000" points="1535.4633,-46.4132 1531.9632,-36.4133 1528.4633,-46.4133 1535.4633,-46.4132"/>
</g>
<!-- node_52 -->
<g id="node53" class="node">
<title>node_52</title>
<text text-anchor="middle" x="1732.9632" y="-229.8" font-family="Times,serif" font-size="14.00" fill="#000000">(expmod 13 2 19)</text>
</g>
<!-- node_51&#45;&gt;node_52 -->
<g id="edge52" class="edge">
<title>node_51&#45;&gt;node_52</title>
<path fill="none" stroke="#000000" d="M1732.9632,-287.8314C1732.9632,-280.131 1732.9632,-270.9743 1732.9632,-262.4166"/>
<polygon fill="#000000" stroke="#000000" points="1736.4633,-262.4132 1732.9632,-252.4133 1729.4633,-262.4133 1736.4633,-262.4132"/>
</g>
<!-- node_59 -->
<g id="node60" class="node">
<title>node_59</title>
<text text-anchor="middle" x="1933.9632" y="-229.8" font-family="Times,serif" font-size="14.00" fill="#000000">(expmod 13 2 19)</text>
</g>
<!-- node_51&#45;&gt;node_59 -->
<g id="edge59" class="edge">
<title>node_51&#45;&gt;node_59</title>
<path fill="none" stroke="#000000" d="M1783.4245,-287.9243C1810.9024,-278.0815 1845.0804,-265.8386 1873.922,-255.5073"/>
<polygon fill="#000000" stroke="#000000" points="1875.2472,-258.7505 1883.4811,-252.0831 1872.8865,-252.1605 1875.2472,-258.7505"/>
</g>
<!-- node_53 -->
<g id="node54" class="node">
<title>node_53</title>
<text text-anchor="middle" x="1665.9632" y="-157.8" font-family="Times,serif" font-size="14.00" fill="#000000">(expmod 13 1 19)</text>
</g>
<!-- node_52&#45;&gt;node_53 -->
<g id="edge53" class="edge">
<title>node_52&#45;&gt;node_53</title>
<path fill="none" stroke="#000000" d="M1716.0563,-215.8314C1708.1819,-207.3694 1698.6712,-197.1489 1690.0619,-187.8971"/>
<polygon fill="#000000" stroke="#000000" points="1692.4724,-185.3497 1683.0978,-180.4133 1687.3479,-190.1183 1692.4724,-185.3497"/>
</g>
<!-- node_56 -->
<g id="node57" class="node">
<title>node_56</title>
<text text-anchor="middle" x="1799.9632" y="-157.8" font-family="Times,serif" font-size="14.00" fill="#000000">(expmod 13 1 19)</text>
</g>
<!-- node_52&#45;&gt;node_56 -->
<g id="edge56" class="edge">
<title>node_52&#45;&gt;node_56</title>
<path fill="none" stroke="#000000" d="M1749.8701,-215.8314C1757.7445,-207.3694 1767.2552,-197.1489 1775.8645,-187.8971"/>
<polygon fill="#000000" stroke="#000000" points="1778.5785,-190.1183 1782.8286,-180.4133 1773.454,-185.3497 1778.5785,-190.1183"/>
</g>
<!-- node_54 -->
<g id="node55" class="node">
<title>node_54</title>
<text text-anchor="middle" x="1665.9632" y="-85.8" font-family="Times,serif" font-size="14.00" fill="#000000">(expmod 13 0 19)</text>
</g>
<!-- node_53&#45;&gt;node_54 -->
<g id="edge54" class="edge">
<title>node_53&#45;&gt;node_54</title>
<path fill="none" stroke="#000000" d="M1665.9632,-143.8314C1665.9632,-136.131 1665.9632,-126.9743 1665.9632,-118.4166"/>
<polygon fill="#000000" stroke="#000000" points="1669.4633,-118.4132 1665.9632,-108.4133 1662.4633,-118.4133 1669.4633,-118.4132"/>
</g>
<!-- node_55 -->
<g id="node56" class="node">
<title>node_55</title>
<text text-anchor="middle" x="1665.9632" y="-13.8" font-family="Times,serif" font-size="14.00" fill="#000000">1</text>
</g>
<!-- node_54&#45;&gt;node_55 -->
<g id="edge55" class="edge">
<title>node_54&#45;&gt;node_55</title>
<path fill="none" stroke="#000000" d="M1665.9632,-71.8314C1665.9632,-64.131 1665.9632,-54.9743 1665.9632,-46.4166"/>
<polygon fill="#000000" stroke="#000000" points="1669.4633,-46.4132 1665.9632,-36.4133 1662.4633,-46.4133 1669.4633,-46.4132"/>
</g>
<!-- node_57 -->
<g id="node58" class="node">
<title>node_57</title>
<text text-anchor="middle" x="1799.9632" y="-85.8" font-family="Times,serif" font-size="14.00" fill="#000000">(expmod 13 0 19)</text>
</g>
<!-- node_56&#45;&gt;node_57 -->
<g id="edge57" class="edge">
<title>node_56&#45;&gt;node_57</title>
<path fill="none" stroke="#000000" d="M1799.9632,-143.8314C1799.9632,-136.131 1799.9632,-126.9743 1799.9632,-118.4166"/>
<polygon fill="#000000" stroke="#000000" points="1803.4633,-118.4132 1799.9632,-108.4133 1796.4633,-118.4133 1803.4633,-118.4132"/>
</g>
<!-- node_58 -->
<g id="node59" class="node">
<title>node_58</title>
<text text-anchor="middle" x="1799.9632" y="-13.8" font-family="Times,serif" font-size="14.00" fill="#000000">1</text>
</g>
<!-- node_57&#45;&gt;node_58 -->
<g id="edge58" class="edge">
<title>node_57&#45;&gt;node_58</title>
<path fill="none" stroke="#000000" d="M1799.9632,-71.8314C1799.9632,-64.131 1799.9632,-54.9743 1799.9632,-46.4166"/>
<polygon fill="#000000" stroke="#000000" points="1803.4633,-46.4132 1799.9632,-36.4133 1796.4633,-46.4133 1803.4633,-46.4132"/>
</g>
<!-- node_60 -->
<g id="node61" class="node">
<title>node_60</title>
<text text-anchor="middle" x="1933.9632" y="-157.8" font-family="Times,serif" font-size="14.00" fill="#000000">(expmod 13 1 19)</text>
</g>
<!-- node_59&#45;&gt;node_60 -->
<g id="edge60" class="edge">
<title>node_59&#45;&gt;node_60</title>
<path fill="none" stroke="#000000" d="M1933.9632,-215.8314C1933.9632,-208.131 1933.9632,-198.9743 1933.9632,-190.4166"/>
<polygon fill="#000000" stroke="#000000" points="1937.4633,-190.4132 1933.9632,-180.4133 1930.4633,-190.4133 1937.4633,-190.4132"/>
</g>
<!-- node_63 -->
<g id="node64" class="node">
<title>node_63</title>
<text text-anchor="middle" x="2067.9632" y="-157.8" font-family="Times,serif" font-size="14.00" fill="#000000">(expmod 13 1 19)</text>
</g>
<!-- node_59&#45;&gt;node_63 -->
<g id="edge63" class="edge">
<title>node_59&#45;&gt;node_63</title>
<path fill="none" stroke="#000000" d="M1967.7771,-215.8314C1985.2339,-206.4516 2006.7119,-194.9112 2025.2984,-184.9244"/>
<polygon fill="#000000" stroke="#000000" points="2027.0078,-187.9792 2034.1602,-180.1628 2023.6946,-181.8129 2027.0078,-187.9792"/>
</g>
<!-- node_61 -->
<g id="node62" class="node">
<title>node_61</title>
<text text-anchor="middle" x="1933.9632" y="-85.8" font-family="Times,serif" font-size="14.00" fill="#000000">(expmod 13 0 19)</text>
</g>
<!-- node_60&#45;&gt;node_61 -->
<g id="edge61" class="edge">
<title>node_60&#45;&gt;node_61</title>
<path fill="none" stroke="#000000" d="M1933.9632,-143.8314C1933.9632,-136.131 1933.9632,-126.9743 1933.9632,-118.4166"/>
<polygon fill="#000000" stroke="#000000" points="1937.4633,-118.4132 1933.9632,-108.4133 1930.4633,-118.4133 1937.4633,-118.4132"/>
</g>
<!-- node_62 -->
<g id="node63" class="node">
<title>node_62</title>
<text text-anchor="middle" x="1933.9632" y="-13.8" font-family="Times,serif" font-size="14.00" fill="#000000">1</text>
</g>
<!-- node_61&#45;&gt;node_62 -->
<g id="edge62" class="edge">
<title>node_61&#45;&gt;node_62</title>
<path fill="none" stroke="#000000" d="M1933.9632,-71.8314C1933.9632,-64.131 1933.9632,-54.9743 1933.9632,-46.4166"/>
<polygon fill="#000000" stroke="#000000" points="1937.4633,-46.4132 1933.9632,-36.4133 1930.4633,-46.4133 1937.4633,-46.4132"/>
</g>
<!-- node_64 -->
<g id="node65" class="node">
<title>node_64</title>
<text text-anchor="middle" x="2067.9632" y="-85.8" font-family="Times,serif" font-size="14.00" fill="#000000">(expmod 13 0 19)</text>
</g>
<!-- node_63&#45;&gt;node_64 -->
<g id="edge64" class="edge">
<title>node_63&#45;&gt;node_64</title>
<path fill="none" stroke="#000000" d="M2067.9632,-143.8314C2067.9632,-136.131 2067.9632,-126.9743 2067.9632,-118.4166"/>
<polygon fill="#000000" stroke="#000000" points="2071.4633,-118.4132 2067.9632,-108.4133 2064.4633,-118.4133 2071.4633,-118.4132"/>
</g>
<!-- node_65 -->
<g id="node66" class="node">
<title>node_65</title>
<text text-anchor="middle" x="2067.9632" y="-13.8" font-family="Times,serif" font-size="14.00" fill="#000000">1</text>
</g>
<!-- node_64&#45;&gt;node_65 -->
<g id="edge65" class="edge">
<title>node_64&#45;&gt;node_65</title>
<path fill="none" stroke="#000000" d="M2067.9632,-71.8314C2067.9632,-64.131 2067.9632,-54.9743 2067.9632,-46.4166"/>
<polygon fill="#000000" stroke="#000000" points="2071.4633,-46.4132 2067.9632,-36.4133 2064.4633,-46.4133 2071.4633,-46.4132"/>
</g>
</g>
</svg>