<?xml version="1.0" encoding="UTF-8" standalone="no"?>
<!DOCTYPE svg PUBLIC "-//W3C//DTD SVG 1.1//EN"
 "http://www.w3.org/Graphics/SVG/1.1/DTD/svg11.dtd">
<!-- Generated by graphviz version 2.40.1 (20161225.0304)
 -->
<!-- Title: G Pages: 1 -->
<svg width="1036pt" height="1196pt"
 viewBox="0.00 0.00 1036.21 1196.00" xmlns="http://www.w3.org/2000/svg" xmlns:xlink="http://www.w3.org/1999/xlink">
<g id="graph0" class="graph" transform="scale(1 1) rotate(0) translate(4 1192)">
<title>G</title>
<polygon fill="#ffffff" stroke="transparent" points="-4,4 -4,-1192 1032.2055,-1192 1032.2055,4 -4,4"/>
<!-- node_0 -->
<g id="node1" class="node">
<title>node_0</title>
<text text-anchor="middle" x="950" y="-1165.8" font-family="Times,serif" font-size="14.00" fill="#000000">cc(11, 5)</text>
</g>
<!-- node_1 -->
<g id="node2" class="node">
<title>node_1</title>
<text text-anchor="middle" x="907" y="-1093.8" font-family="Times,serif" font-size="14.00" fill="#000000">cc(11, 4)</text>
</g>
<!-- node_0&#45;&gt;node_1 -->
<g id="edge1" class="edge">
<title>node_0&#45;&gt;node_1</title>
<path fill="none" stroke="#000000" d="M939.1493,-1151.8314C934.2977,-1143.7079 928.4783,-1133.9637 923.132,-1125.0118"/>
<polygon fill="#000000" stroke="#000000" points="926.1292,-1123.2041 917.9968,-1116.4133 920.1194,-1126.7933 926.1292,-1123.2041"/>
</g>
<!-- node_81 -->
<g id="node82" class="node">
<title>node_81</title>
<text text-anchor="middle" x="993" y="-1093.8" font-family="Times,serif" font-size="14.00" fill="#000000">cc(&#45;39, 5)</text>
</g>
<!-- node_0&#45;&gt;node_81 -->
<g id="edge81" class="edge">
<title>node_0&#45;&gt;node_81</title>
<path fill="none" stroke="#000000" d="M960.8507,-1151.8314C965.7023,-1143.7079 971.5217,-1133.9637 976.868,-1125.0118"/>
<polygon fill="#000000" stroke="#000000" points="979.8806,-1126.7933 982.0032,-1116.4133 973.8708,-1123.2041 979.8806,-1126.7933"/>
</g>
<!-- node_2 -->
<g id="node3" class="node">
<title>node_2</title>
<text text-anchor="middle" x="824" y="-1021.8" font-family="Times,serif" font-size="14.00" fill="#000000">cc(11, 3)</text>
</g>
<!-- node_1&#45;&gt;node_2 -->
<g id="edge2" class="edge">
<title>node_1&#45;&gt;node_2</title>
<path fill="none" stroke="#000000" d="M886.0556,-1079.8314C875.9309,-1071.0485 863.6223,-1060.3712 852.6452,-1050.8489"/>
<polygon fill="#000000" stroke="#000000" points="854.7851,-1048.0718 844.9377,-1044.1628 850.1981,-1053.3595 854.7851,-1048.0718"/>
</g>
<!-- node_79 -->
<g id="node80" class="node">
<title>node_79</title>
<text text-anchor="middle" x="910" y="-1021.8" font-family="Times,serif" font-size="14.00" fill="#000000">cc(&#45;14, 4)</text>
</g>
<!-- node_1&#45;&gt;node_79 -->
<g id="edge79" class="edge">
<title>node_1&#45;&gt;node_79</title>
<path fill="none" stroke="#000000" d="M907.757,-1079.8314C908.0779,-1072.131 908.4594,-1062.9743 908.816,-1054.4166"/>
<polygon fill="#000000" stroke="#000000" points="912.3133,-1054.5503 909.2328,-1044.4133 905.3194,-1054.2589 912.3133,-1054.5503"/>
</g>
<!-- node_3 -->
<g id="node4" class="node">
<title>node_3</title>
<text text-anchor="middle" x="482" y="-949.8" font-family="Times,serif" font-size="14.00" fill="#000000">cc(11, 2)</text>
</g>
<!-- node_2&#45;&gt;node_3 -->
<g id="edge3" class="edge">
<title>node_2&#45;&gt;node_3</title>
<path fill="none" stroke="#000000" d="M791.2076,-1019.0963C729.1088,-1006.0229 594.3787,-977.6587 525.0803,-963.0695"/>
<polygon fill="#000000" stroke="#000000" points="525.4505,-959.5708 514.944,-960.9356 524.0084,-966.4207 525.4505,-959.5708"/>
</g>
<!-- node_68 -->
<g id="node69" class="node">
<title>node_68</title>
<text text-anchor="middle" x="830" y="-949.8" font-family="Times,serif" font-size="14.00" fill="#000000">cc(1, 3)</text>
</g>
<!-- node_2&#45;&gt;node_68 -->
<g id="edge68" class="edge">
<title>node_2&#45;&gt;node_68</title>
<path fill="none" stroke="#000000" d="M825.5141,-1007.8314C826.1558,-1000.131 826.9188,-990.9743 827.6319,-982.4166"/>
<polygon fill="#000000" stroke="#000000" points="831.1229,-982.6694 828.4656,-972.4133 824.1471,-982.088 831.1229,-982.6694"/>
</g>
<!-- node_4 -->
<g id="node5" class="node">
<title>node_4</title>
<text text-anchor="middle" x="167" y="-877.8" font-family="Times,serif" font-size="14.00" fill="#000000">cc(11, 1)</text>
</g>
<!-- node_3&#45;&gt;node_4 -->
<g id="edge4" class="edge">
<title>node_3&#45;&gt;node_4</title>
<path fill="none" stroke="#000000" d="M449.1809,-946.4985C392.0116,-933.4312 274.1759,-906.4974 210.3556,-891.9098"/>
<polygon fill="#000000" stroke="#000000" points="210.7474,-888.4092 200.2189,-889.5929 209.1876,-895.2332 210.7474,-888.4092"/>
</g>
<!-- node_39 -->
<g id="node40" class="node">
<title>node_39</title>
<text text-anchor="middle" x="482" y="-877.8" font-family="Times,serif" font-size="14.00" fill="#000000">cc(6, 2)</text>
</g>
<!-- node_3&#45;&gt;node_39 -->
<g id="edge39" class="edge">
<title>node_3&#45;&gt;node_39</title>
<path fill="none" stroke="#000000" d="M482,-935.8314C482,-928.131 482,-918.9743 482,-910.4166"/>
<polygon fill="#000000" stroke="#000000" points="485.5001,-910.4132 482,-900.4133 478.5001,-910.4133 485.5001,-910.4132"/>
</g>
<!-- node_5 -->
<g id="node6" class="node">
<title>node_5</title>
<text text-anchor="middle" x="46" y="-805.8" font-family="Times,serif" font-size="14.00" fill="#000000">cc(11, 0)</text>
</g>
<!-- node_4&#45;&gt;node_5 -->
<g id="edge5" class="edge">
<title>node_4&#45;&gt;node_5</title>
<path fill="none" stroke="#000000" d="M136.4666,-863.8314C120.9899,-854.6221 102.0131,-843.3301 85.4437,-833.4706"/>
<polygon fill="#000000" stroke="#000000" points="86.9071,-830.2687 76.5236,-828.1628 83.3276,-836.2843 86.9071,-830.2687"/>
</g>
<!-- node_7 -->
<g id="node8" class="node">
<title>node_7</title>
<text text-anchor="middle" x="167" y="-805.8" font-family="Times,serif" font-size="14.00" fill="#000000">cc(10, 1)</text>
</g>
<!-- node_4&#45;&gt;node_7 -->
<g id="edge7" class="edge">
<title>node_4&#45;&gt;node_7</title>
<path fill="none" stroke="#000000" d="M167,-863.8314C167,-856.131 167,-846.9743 167,-838.4166"/>
<polygon fill="#000000" stroke="#000000" points="170.5001,-838.4132 167,-828.4133 163.5001,-838.4133 170.5001,-838.4132"/>
</g>
<!-- node_6 -->
<g id="node7" class="node">
<title>node_6</title>
<text text-anchor="middle" x="27" y="-733.8" font-family="Times,serif" font-size="14.00" fill="#000000">0</text>
</g>
<!-- node_5&#45;&gt;node_6 -->
<g id="edge6" class="edge">
<title>node_5&#45;&gt;node_6</title>
<path fill="none" stroke="#000000" d="M41.2055,-791.8314C39.1511,-784.0463 36.704,-774.7729 34.4244,-766.1347"/>
<polygon fill="#000000" stroke="#000000" points="37.7948,-765.1892 31.8591,-756.4133 31.0265,-766.9753 37.7948,-765.1892"/>
</g>
<!-- node_8 -->
<g id="node9" class="node">
<title>node_8</title>
<text text-anchor="middle" x="105" y="-733.8" font-family="Times,serif" font-size="14.00" fill="#000000">cc(10, 0)</text>
</g>
<!-- node_7&#45;&gt;node_8 -->
<g id="edge8" class="edge">
<title>node_7&#45;&gt;node_8</title>
<path fill="none" stroke="#000000" d="M151.3548,-791.8314C144.1409,-783.454 135.443,-773.3531 127.5395,-764.1749"/>
<polygon fill="#000000" stroke="#000000" points="130.0333,-761.7071 120.8559,-756.4133 124.7289,-766.2748 130.0333,-761.7071"/>
</g>
<!-- node_10 -->
<g id="node11" class="node">
<title>node_10</title>
<text text-anchor="middle" x="185" y="-733.8" font-family="Times,serif" font-size="14.00" fill="#000000">cc(9, 1)</text>
</g>
<!-- node_7&#45;&gt;node_10 -->
<g id="edge10" class="edge">
<title>node_7&#45;&gt;node_10</title>
<path fill="none" stroke="#000000" d="M171.5422,-791.8314C173.4884,-784.0463 175.8068,-774.7729 177.9663,-766.1347"/>
<polygon fill="#000000" stroke="#000000" points="181.3668,-766.9636 180.3967,-756.4133 174.5758,-765.2658 181.3668,-766.9636"/>
</g>
<!-- node_9 -->
<g id="node10" class="node">
<title>node_9</title>
<text text-anchor="middle" x="69" y="-661.8" font-family="Times,serif" font-size="14.00" fill="#000000">0</text>
</g>
<!-- node_8&#45;&gt;node_9 -->
<g id="edge9" class="edge">
<title>node_8&#45;&gt;node_9</title>
<path fill="none" stroke="#000000" d="M95.9157,-719.8314C91.9385,-711.8771 87.1845,-702.369 82.7861,-693.5723"/>
<polygon fill="#000000" stroke="#000000" points="85.8093,-691.7923 78.2066,-684.4133 79.5483,-694.9228 85.8093,-691.7923"/>
</g>
<!-- node_11 -->
<g id="node12" class="node">
<title>node_11</title>
<text text-anchor="middle" x="143" y="-661.8" font-family="Times,serif" font-size="14.00" fill="#000000">cc(9, 0)</text>
</g>
<!-- node_10&#45;&gt;node_11 -->
<g id="edge11" class="edge">
<title>node_10&#45;&gt;node_11</title>
<path fill="none" stroke="#000000" d="M174.4016,-719.8314C169.7123,-711.7925 164.0972,-702.1666 158.9202,-693.2918"/>
<polygon fill="#000000" stroke="#000000" points="161.8031,-691.2875 153.7411,-684.4133 155.7566,-694.8146 161.8031,-691.2875"/>
</g>
<!-- node_13 -->
<g id="node14" class="node">
<title>node_13</title>
<text text-anchor="middle" x="220" y="-661.8" font-family="Times,serif" font-size="14.00" fill="#000000">cc(8, 1)</text>
</g>
<!-- node_10&#45;&gt;node_13 -->
<g id="edge13" class="edge">
<title>node_10&#45;&gt;node_13</title>
<path fill="none" stroke="#000000" d="M193.832,-719.8314C197.6986,-711.8771 202.3206,-702.369 206.5968,-693.5723"/>
<polygon fill="#000000" stroke="#000000" points="209.8249,-694.9371 211.0491,-684.4133 203.5293,-691.8768 209.8249,-694.9371"/>
</g>
<!-- node_12 -->
<g id="node13" class="node">
<title>node_12</title>
<text text-anchor="middle" x="127" y="-589.8" font-family="Times,serif" font-size="14.00" fill="#000000">0</text>
</g>
<!-- node_11&#45;&gt;node_12 -->
<g id="edge12" class="edge">
<title>node_11&#45;&gt;node_12</title>
<path fill="none" stroke="#000000" d="M138.9625,-647.8314C137.2513,-640.131 135.2165,-630.9743 133.3148,-622.4166"/>
<polygon fill="#000000" stroke="#000000" points="136.6779,-621.4159 131.0918,-612.4133 129.8446,-622.9344 136.6779,-621.4159"/>
</g>
<!-- node_14 -->
<g id="node15" class="node">
<title>node_14</title>
<text text-anchor="middle" x="201" y="-589.8" font-family="Times,serif" font-size="14.00" fill="#000000">cc(8, 0)</text>
</g>
<!-- node_13&#45;&gt;node_14 -->
<g id="edge14" class="edge">
<title>node_13&#45;&gt;node_14</title>
<path fill="none" stroke="#000000" d="M215.2055,-647.8314C213.1511,-640.0463 210.704,-630.7729 208.4244,-622.1347"/>
<polygon fill="#000000" stroke="#000000" points="211.7948,-621.1892 205.8591,-612.4133 205.0265,-622.9753 211.7948,-621.1892"/>
</g>
<!-- node_16 -->
<g id="node17" class="node">
<title>node_16</title>
<text text-anchor="middle" x="278" y="-589.8" font-family="Times,serif" font-size="14.00" fill="#000000">cc(7, 1)</text>
</g>
<!-- node_13&#45;&gt;node_16 -->
<g id="edge16" class="edge">
<title>node_13&#45;&gt;node_16</title>
<path fill="none" stroke="#000000" d="M234.6358,-647.8314C241.3161,-639.5386 249.3568,-629.557 256.6904,-620.4533"/>
<polygon fill="#000000" stroke="#000000" points="259.6194,-622.3965 263.1671,-612.4133 254.1681,-618.0052 259.6194,-622.3965"/>
</g>
<!-- node_15 -->
<g id="node16" class="node">
<title>node_15</title>
<text text-anchor="middle" x="201" y="-517.8" font-family="Times,serif" font-size="14.00" fill="#000000">0</text>
</g>
<!-- node_14&#45;&gt;node_15 -->
<g id="edge15" class="edge">
<title>node_14&#45;&gt;node_15</title>
<path fill="none" stroke="#000000" d="M201,-575.8314C201,-568.131 201,-558.9743 201,-550.4166"/>
<polygon fill="#000000" stroke="#000000" points="204.5001,-550.4132 201,-540.4133 197.5001,-550.4133 204.5001,-550.4132"/>
</g>
<!-- node_17 -->
<g id="node18" class="node">
<title>node_17</title>
<text text-anchor="middle" x="275" y="-517.8" font-family="Times,serif" font-size="14.00" fill="#000000">cc(7, 0)</text>
</g>
<!-- node_16&#45;&gt;node_17 -->
<g id="edge17" class="edge">
<title>node_16&#45;&gt;node_17</title>
<path fill="none" stroke="#000000" d="M277.243,-575.8314C276.9221,-568.131 276.5406,-558.9743 276.184,-550.4166"/>
<polygon fill="#000000" stroke="#000000" points="279.6806,-550.2589 275.7672,-540.4133 272.6867,-550.5503 279.6806,-550.2589"/>
</g>
<!-- node_19 -->
<g id="node20" class="node">
<title>node_19</title>
<text text-anchor="middle" x="352" y="-517.8" font-family="Times,serif" font-size="14.00" fill="#000000">cc(6, 1)</text>
</g>
<!-- node_16&#45;&gt;node_19 -->
<g id="edge19" class="edge">
<title>node_16&#45;&gt;node_19</title>
<path fill="none" stroke="#000000" d="M296.6733,-575.8314C305.5249,-567.219 316.2486,-556.7851 325.8895,-547.4048"/>
<polygon fill="#000000" stroke="#000000" points="328.6061,-549.645 333.3326,-540.1628 323.7246,-544.6279 328.6061,-549.645"/>
</g>
<!-- node_18 -->
<g id="node19" class="node">
<title>node_18</title>
<text text-anchor="middle" x="275" y="-445.8" font-family="Times,serif" font-size="14.00" fill="#000000">0</text>
</g>
<!-- node_17&#45;&gt;node_18 -->
<g id="edge18" class="edge">
<title>node_17&#45;&gt;node_18</title>
<path fill="none" stroke="#000000" d="M275,-503.8314C275,-496.131 275,-486.9743 275,-478.4166"/>
<polygon fill="#000000" stroke="#000000" points="278.5001,-478.4132 275,-468.4133 271.5001,-478.4133 278.5001,-478.4132"/>
</g>
<!-- node_20 -->
<g id="node21" class="node">
<title>node_20</title>
<text text-anchor="middle" x="350" y="-445.8" font-family="Times,serif" font-size="14.00" fill="#000000">cc(6, 0)</text>
</g>
<!-- node_19&#45;&gt;node_20 -->
<g id="edge20" class="edge">
<title>node_19&#45;&gt;node_20</title>
<path fill="none" stroke="#000000" d="M351.4953,-503.8314C351.2814,-496.131 351.0271,-486.9743 350.7894,-478.4166"/>
<polygon fill="#000000" stroke="#000000" points="354.2879,-478.3122 350.5115,-468.4133 347.2906,-478.5066 354.2879,-478.3122"/>
</g>
<!-- node_22 -->
<g id="node23" class="node">
<title>node_22</title>
<text text-anchor="middle" x="427" y="-445.8" font-family="Times,serif" font-size="14.00" fill="#000000">cc(5, 1)</text>
</g>
<!-- node_19&#45;&gt;node_22 -->
<g id="edge22" class="edge">
<title>node_19&#45;&gt;node_22</title>
<path fill="none" stroke="#000000" d="M370.9257,-503.8314C379.9857,-495.1337 390.9809,-484.5783 400.8265,-475.1265"/>
<polygon fill="#000000" stroke="#000000" points="403.2904,-477.613 408.0804,-468.1628 398.4426,-472.5633 403.2904,-477.613"/>
</g>
<!-- node_21 -->
<g id="node22" class="node">
<title>node_21</title>
<text text-anchor="middle" x="350" y="-373.8" font-family="Times,serif" font-size="14.00" fill="#000000">0</text>
</g>
<!-- node_20&#45;&gt;node_21 -->
<g id="edge21" class="edge">
<title>node_20&#45;&gt;node_21</title>
<path fill="none" stroke="#000000" d="M350,-431.8314C350,-424.131 350,-414.9743 350,-406.4166"/>
<polygon fill="#000000" stroke="#000000" points="353.5001,-406.4132 350,-396.4133 346.5001,-406.4133 353.5001,-406.4132"/>
</g>
<!-- node_23 -->
<g id="node24" class="node">
<title>node_23</title>
<text text-anchor="middle" x="425" y="-373.8" font-family="Times,serif" font-size="14.00" fill="#000000">cc(5, 0)</text>
</g>
<!-- node_22&#45;&gt;node_23 -->
<g id="edge23" class="edge">
<title>node_22&#45;&gt;node_23</title>
<path fill="none" stroke="#000000" d="M426.4953,-431.8314C426.2814,-424.131 426.0271,-414.9743 425.7894,-406.4166"/>
<polygon fill="#000000" stroke="#000000" points="429.2879,-406.3122 425.5115,-396.4133 422.2906,-406.5066 429.2879,-406.3122"/>
</g>
<!-- node_25 -->
<g id="node26" class="node">
<title>node_25</title>
<text text-anchor="middle" x="502" y="-373.8" font-family="Times,serif" font-size="14.00" fill="#000000">cc(4, 1)</text>
</g>
<!-- node_22&#45;&gt;node_25 -->
<g id="edge25" class="edge">
<title>node_22&#45;&gt;node_25</title>
<path fill="none" stroke="#000000" d="M445.9257,-431.8314C454.9857,-423.1337 465.9809,-412.5783 475.8265,-403.1265"/>
<polygon fill="#000000" stroke="#000000" points="478.2904,-405.613 483.0804,-396.1628 473.4426,-400.5633 478.2904,-405.613"/>
</g>
<!-- node_24 -->
<g id="node25" class="node">
<title>node_24</title>
<text text-anchor="middle" x="425" y="-301.8" font-family="Times,serif" font-size="14.00" fill="#000000">0</text>
</g>
<!-- node_23&#45;&gt;node_24 -->
<g id="edge24" class="edge">
<title>node_23&#45;&gt;node_24</title>
<path fill="none" stroke="#000000" d="M425,-359.8314C425,-352.131 425,-342.9743 425,-334.4166"/>
<polygon fill="#000000" stroke="#000000" points="428.5001,-334.4132 425,-324.4133 421.5001,-334.4133 428.5001,-334.4132"/>
</g>
<!-- node_26 -->
<g id="node27" class="node">
<title>node_26</title>
<text text-anchor="middle" x="500" y="-301.8" font-family="Times,serif" font-size="14.00" fill="#000000">cc(4, 0)</text>
</g>
<!-- node_25&#45;&gt;node_26 -->
<g id="edge26" class="edge">
<title>node_25&#45;&gt;node_26</title>
<path fill="none" stroke="#000000" d="M501.4953,-359.8314C501.2814,-352.131 501.0271,-342.9743 500.7894,-334.4166"/>
<polygon fill="#000000" stroke="#000000" points="504.2879,-334.3122 500.5115,-324.4133 497.2906,-334.5066 504.2879,-334.3122"/>
</g>
<!-- node_28 -->
<g id="node29" class="node">
<title>node_28</title>
<text text-anchor="middle" x="577" y="-301.8" font-family="Times,serif" font-size="14.00" fill="#000000">cc(3, 1)</text>
</g>
<!-- node_25&#45;&gt;node_28 -->
<g id="edge28" class="edge">
<title>node_25&#45;&gt;node_28</title>
<path fill="none" stroke="#000000" d="M520.9257,-359.8314C529.9857,-351.1337 540.9809,-340.5783 550.8265,-331.1265"/>
<polygon fill="#000000" stroke="#000000" points="553.2904,-333.613 558.0804,-324.1628 548.4426,-328.5633 553.2904,-333.613"/>
</g>
<!-- node_27 -->
<g id="node28" class="node">
<title>node_27</title>
<text text-anchor="middle" x="500" y="-229.8" font-family="Times,serif" font-size="14.00" fill="#000000">0</text>
</g>
<!-- node_26&#45;&gt;node_27 -->
<g id="edge27" class="edge">
<title>node_26&#45;&gt;node_27</title>
<path fill="none" stroke="#000000" d="M500,-287.8314C500,-280.131 500,-270.9743 500,-262.4166"/>
<polygon fill="#000000" stroke="#000000" points="503.5001,-262.4132 500,-252.4133 496.5001,-262.4133 503.5001,-262.4132"/>
</g>
<!-- node_29 -->
<g id="node30" class="node">
<title>node_29</title>
<text text-anchor="middle" x="575" y="-229.8" font-family="Times,serif" font-size="14.00" fill="#000000">cc(3, 0)</text>
</g>
<!-- node_28&#45;&gt;node_29 -->
<g id="edge29" class="edge">
<title>node_28&#45;&gt;node_29</title>
<path fill="none" stroke="#000000" d="M576.4953,-287.8314C576.2814,-280.131 576.0271,-270.9743 575.7894,-262.4166"/>
<polygon fill="#000000" stroke="#000000" points="579.2879,-262.3122 575.5115,-252.4133 572.2906,-262.5066 579.2879,-262.3122"/>
</g>
<!-- node_31 -->
<g id="node32" class="node">
<title>node_31</title>
<text text-anchor="middle" x="652" y="-229.8" font-family="Times,serif" font-size="14.00" fill="#000000">cc(2, 1)</text>
</g>
<!-- node_28&#45;&gt;node_31 -->
<g id="edge31" class="edge">
<title>node_28&#45;&gt;node_31</title>
<path fill="none" stroke="#000000" d="M595.9257,-287.8314C604.9857,-279.1337 615.9809,-268.5783 625.8265,-259.1265"/>
<polygon fill="#000000" stroke="#000000" points="628.2904,-261.613 633.0804,-252.1628 623.4426,-256.5633 628.2904,-261.613"/>
</g>
<!-- node_30 -->
<g id="node31" class="node">
<title>node_30</title>
<text text-anchor="middle" x="575" y="-157.8" font-family="Times,serif" font-size="14.00" fill="#000000">0</text>
</g>
<!-- node_29&#45;&gt;node_30 -->
<g id="edge30" class="edge">
<title>node_29&#45;&gt;node_30</title>
<path fill="none" stroke="#000000" d="M575,-215.8314C575,-208.131 575,-198.9743 575,-190.4166"/>
<polygon fill="#000000" stroke="#000000" points="578.5001,-190.4132 575,-180.4133 571.5001,-190.4133 578.5001,-190.4132"/>
</g>
<!-- node_32 -->
<g id="node33" class="node">
<title>node_32</title>
<text text-anchor="middle" x="650" y="-157.8" font-family="Times,serif" font-size="14.00" fill="#000000">cc(2, 0)</text>
</g>
<!-- node_31&#45;&gt;node_32 -->
<g id="edge32" class="edge">
<title>node_31&#45;&gt;node_32</title>
<path fill="none" stroke="#000000" d="M651.4953,-215.8314C651.2814,-208.131 651.0271,-198.9743 650.7894,-190.4166"/>
<polygon fill="#000000" stroke="#000000" points="654.2879,-190.3122 650.5115,-180.4133 647.2906,-190.5066 654.2879,-190.3122"/>
</g>
<!-- node_34 -->
<g id="node35" class="node">
<title>node_34</title>
<text text-anchor="middle" x="727" y="-157.8" font-family="Times,serif" font-size="14.00" fill="#000000">cc(1, 1)</text>
</g>
<!-- node_31&#45;&gt;node_34 -->
<g id="edge34" class="edge">
<title>node_31&#45;&gt;node_34</title>
<path fill="none" stroke="#000000" d="M670.9257,-215.8314C679.9857,-207.1337 690.9809,-196.5783 700.8265,-187.1265"/>
<polygon fill="#000000" stroke="#000000" points="703.2904,-189.613 708.0804,-180.1628 698.4426,-184.5633 703.2904,-189.613"/>
</g>
<!-- node_33 -->
<g id="node34" class="node">
<title>node_33</title>
<text text-anchor="middle" x="650" y="-85.8" font-family="Times,serif" font-size="14.00" fill="#000000">0</text>
</g>
<!-- node_32&#45;&gt;node_33 -->
<g id="edge33" class="edge">
<title>node_32&#45;&gt;node_33</title>
<path fill="none" stroke="#000000" d="M650,-143.8314C650,-136.131 650,-126.9743 650,-118.4166"/>
<polygon fill="#000000" stroke="#000000" points="653.5001,-118.4132 650,-108.4133 646.5001,-118.4133 653.5001,-118.4132"/>
</g>
<!-- node_35 -->
<g id="node36" class="node">
<title>node_35</title>
<text text-anchor="middle" x="725" y="-85.8" font-family="Times,serif" font-size="14.00" fill="#000000">cc(1, 0)</text>
</g>
<!-- node_34&#45;&gt;node_35 -->
<g id="edge35" class="edge">
<title>node_34&#45;&gt;node_35</title>
<path fill="none" stroke="#000000" d="M726.4953,-143.8314C726.2814,-136.131 726.0271,-126.9743 725.7894,-118.4166"/>
<polygon fill="#000000" stroke="#000000" points="729.2879,-118.3122 725.5115,-108.4133 722.2906,-118.5066 729.2879,-118.3122"/>
</g>
<!-- node_37 -->
<g id="node38" class="node">
<title>node_37</title>
<text text-anchor="middle" x="802" y="-85.8" font-family="Times,serif" font-size="14.00" fill="#000000">cc(0, 1)</text>
</g>
<!-- node_34&#45;&gt;node_37 -->
<g id="edge37" class="edge">
<title>node_34&#45;&gt;node_37</title>
<path fill="none" stroke="#000000" d="M745.9257,-143.8314C754.9857,-135.1337 765.9809,-124.5783 775.8265,-115.1265"/>
<polygon fill="#000000" stroke="#000000" points="778.2904,-117.613 783.0804,-108.1628 773.4426,-112.5633 778.2904,-117.613"/>
</g>
<!-- node_36 -->
<g id="node37" class="node">
<title>node_36</title>
<text text-anchor="middle" x="725" y="-13.8" font-family="Times,serif" font-size="14.00" fill="#000000">0</text>
</g>
<!-- node_35&#45;&gt;node_36 -->
<g id="edge36" class="edge">
<title>node_35&#45;&gt;node_36</title>
<path fill="none" stroke="#000000" d="M725,-71.8314C725,-64.131 725,-54.9743 725,-46.4166"/>
<polygon fill="#000000" stroke="#000000" points="728.5001,-46.4132 725,-36.4133 721.5001,-46.4133 728.5001,-46.4132"/>
</g>
<!-- node_38 -->
<g id="node39" class="node">
<title>node_38</title>
<text text-anchor="middle" x="802" y="-13.8" font-family="Times,serif" font-size="14.00" fill="#000000">1</text>
</g>
<!-- node_37&#45;&gt;node_38 -->
<g id="edge38" class="edge">
<title>node_37&#45;&gt;node_38</title>
<path fill="none" stroke="#000000" d="M802,-71.8314C802,-64.131 802,-54.9743 802,-46.4166"/>
<polygon fill="#000000" stroke="#000000" points="805.5001,-46.4132 802,-36.4133 798.5001,-46.4133 805.5001,-46.4132"/>
</g>
<!-- node_40 -->
<g id="node41" class="node">
<title>node_40</title>
<text text-anchor="middle" x="410" y="-805.8" font-family="Times,serif" font-size="14.00" fill="#000000">cc(6, 1)</text>
</g>
<!-- node_39&#45;&gt;node_40 -->
<g id="edge40" class="edge">
<title>node_39&#45;&gt;node_40</title>
<path fill="none" stroke="#000000" d="M463.8314,-863.8314C455.2848,-855.2848 444.9443,-844.9443 435.6198,-835.6198"/>
<polygon fill="#000000" stroke="#000000" points="437.9592,-833.0095 428.4133,-828.4133 433.0095,-837.9592 437.9592,-833.0095"/>
</g>
<!-- node_60 -->
<g id="node61" class="node">
<title>node_60</title>
<text text-anchor="middle" x="570" y="-805.8" font-family="Times,serif" font-size="14.00" fill="#000000">cc(1, 2)</text>
</g>
<!-- node_39&#45;&gt;node_60 -->
<g id="edge60" class="edge">
<title>node_39&#45;&gt;node_60</title>
<path fill="none" stroke="#000000" d="M504.2061,-863.8314C515.045,-854.9632 528.2444,-844.1637 539.9678,-834.5718"/>
<polygon fill="#000000" stroke="#000000" points="542.2777,-837.2041 547.801,-828.1628 537.845,-831.7864 542.2777,-837.2041"/>
</g>
<!-- node_41 -->
<g id="node42" class="node">
<title>node_41</title>
<text text-anchor="middle" x="315" y="-733.8" font-family="Times,serif" font-size="14.00" fill="#000000">cc(6, 0)</text>
</g>
<!-- node_40&#45;&gt;node_41 -->
<g id="edge41" class="edge">
<title>node_40&#45;&gt;node_41</title>
<path fill="none" stroke="#000000" d="M386.0275,-791.8314C374.2139,-782.8779 359.8028,-771.9558 347.0565,-762.2955"/>
<polygon fill="#000000" stroke="#000000" points="349.0486,-759.4137 338.9648,-756.1628 344.8205,-764.9925 349.0486,-759.4137"/>
</g>
<!-- node_43 -->
<g id="node44" class="node">
<title>node_43</title>
<text text-anchor="middle" x="410" y="-733.8" font-family="Times,serif" font-size="14.00" fill="#000000">cc(5, 1)</text>
</g>
<!-- node_40&#45;&gt;node_43 -->
<g id="edge43" class="edge">
<title>node_40&#45;&gt;node_43</title>
<path fill="none" stroke="#000000" d="M410,-791.8314C410,-784.131 410,-774.9743 410,-766.4166"/>
<polygon fill="#000000" stroke="#000000" points="413.5001,-766.4132 410,-756.4133 406.5001,-766.4133 413.5001,-766.4132"/>
</g>
<!-- node_42 -->
<g id="node43" class="node">
<title>node_42</title>
<text text-anchor="middle" x="294" y="-661.8" font-family="Times,serif" font-size="14.00" fill="#000000">0</text>
</g>
<!-- node_41&#45;&gt;node_42 -->
<g id="edge42" class="edge">
<title>node_41&#45;&gt;node_42</title>
<path fill="none" stroke="#000000" d="M309.7008,-719.8314C307.4302,-712.0463 304.7254,-702.7729 302.206,-694.1347"/>
<polygon fill="#000000" stroke="#000000" points="305.5306,-693.0332 299.3705,-684.4133 298.8106,-694.9933 305.5306,-693.0332"/>
</g>
<!-- node_44 -->
<g id="node45" class="node">
<title>node_44</title>
<text text-anchor="middle" x="368" y="-661.8" font-family="Times,serif" font-size="14.00" fill="#000000">cc(5, 0)</text>
</g>
<!-- node_43&#45;&gt;node_44 -->
<g id="edge44" class="edge">
<title>node_43&#45;&gt;node_44</title>
<path fill="none" stroke="#000000" d="M399.4016,-719.8314C394.7123,-711.7925 389.0972,-702.1666 383.9202,-693.2918"/>
<polygon fill="#000000" stroke="#000000" points="386.8031,-691.2875 378.7411,-684.4133 380.7566,-694.8146 386.8031,-691.2875"/>
</g>
<!-- node_46 -->
<g id="node47" class="node">
<title>node_46</title>
<text text-anchor="middle" x="445" y="-661.8" font-family="Times,serif" font-size="14.00" fill="#000000">cc(4, 1)</text>
</g>
<!-- node_43&#45;&gt;node_46 -->
<g id="edge46" class="edge">
<title>node_43&#45;&gt;node_46</title>
<path fill="none" stroke="#000000" d="M418.832,-719.8314C422.6986,-711.8771 427.3206,-702.369 431.5968,-693.5723"/>
<polygon fill="#000000" stroke="#000000" points="434.8249,-694.9371 436.0491,-684.4133 428.5293,-691.8768 434.8249,-694.9371"/>
</g>
<!-- node_45 -->
<g id="node46" class="node">
<title>node_45</title>
<text text-anchor="middle" x="352" y="-589.8" font-family="Times,serif" font-size="14.00" fill="#000000">0</text>
</g>
<!-- node_44&#45;&gt;node_45 -->
<g id="edge45" class="edge">
<title>node_44&#45;&gt;node_45</title>
<path fill="none" stroke="#000000" d="M363.9625,-647.8314C362.2513,-640.131 360.2165,-630.9743 358.3148,-622.4166"/>
<polygon fill="#000000" stroke="#000000" points="361.6779,-621.4159 356.0918,-612.4133 354.8446,-622.9344 361.6779,-621.4159"/>
</g>
<!-- node_47 -->
<g id="node48" class="node">
<title>node_47</title>
<text text-anchor="middle" x="426" y="-589.8" font-family="Times,serif" font-size="14.00" fill="#000000">cc(4, 0)</text>
</g>
<!-- node_46&#45;&gt;node_47 -->
<g id="edge47" class="edge">
<title>node_46&#45;&gt;node_47</title>
<path fill="none" stroke="#000000" d="M440.2055,-647.8314C438.1511,-640.0463 435.704,-630.7729 433.4244,-622.1347"/>
<polygon fill="#000000" stroke="#000000" points="436.7948,-621.1892 430.8591,-612.4133 430.0265,-622.9753 436.7948,-621.1892"/>
</g>
<!-- node_49 -->
<g id="node50" class="node">
<title>node_49</title>
<text text-anchor="middle" x="503" y="-589.8" font-family="Times,serif" font-size="14.00" fill="#000000">cc(3, 1)</text>
</g>
<!-- node_46&#45;&gt;node_49 -->
<g id="edge49" class="edge">
<title>node_46&#45;&gt;node_49</title>
<path fill="none" stroke="#000000" d="M459.6358,-647.8314C466.3161,-639.5386 474.3568,-629.557 481.6904,-620.4533"/>
<polygon fill="#000000" stroke="#000000" points="484.6194,-622.3965 488.1671,-612.4133 479.1681,-618.0052 484.6194,-622.3965"/>
</g>
<!-- node_48 -->
<g id="node49" class="node">
<title>node_48</title>
<text text-anchor="middle" x="426" y="-517.8" font-family="Times,serif" font-size="14.00" fill="#000000">0</text>
</g>
<!-- node_47&#45;&gt;node_48 -->
<g id="edge48" class="edge">
<title>node_47&#45;&gt;node_48</title>
<path fill="none" stroke="#000000" d="M426,-575.8314C426,-568.131 426,-558.9743 426,-550.4166"/>
<polygon fill="#000000" stroke="#000000" points="429.5001,-550.4132 426,-540.4133 422.5001,-550.4133 429.5001,-550.4132"/>
</g>
<!-- node_50 -->
<g id="node51" class="node">
<title>node_50</title>
<text text-anchor="middle" x="501" y="-517.8" font-family="Times,serif" font-size="14.00" fill="#000000">cc(3, 0)</text>
</g>
<!-- node_49&#45;&gt;node_50 -->
<g id="edge50" class="edge">
<title>node_49&#45;&gt;node_50</title>
<path fill="none" stroke="#000000" d="M502.4953,-575.8314C502.2814,-568.131 502.0271,-558.9743 501.7894,-550.4166"/>
<polygon fill="#000000" stroke="#000000" points="505.2879,-550.3122 501.5115,-540.4133 498.2906,-550.5066 505.2879,-550.3122"/>
</g>
<!-- node_52 -->
<g id="node53" class="node">
<title>node_52</title>
<text text-anchor="middle" x="578" y="-517.8" font-family="Times,serif" font-size="14.00" fill="#000000">cc(2, 1)</text>
</g>
<!-- node_49&#45;&gt;node_52 -->
<g id="edge52" class="edge">
<title>node_49&#45;&gt;node_52</title>
<path fill="none" stroke="#000000" d="M521.9257,-575.8314C530.9857,-567.1337 541.9809,-556.5783 551.8265,-547.1265"/>
<polygon fill="#000000" stroke="#000000" points="554.2904,-549.613 559.0804,-540.1628 549.4426,-544.5633 554.2904,-549.613"/>
</g>
<!-- node_51 -->
<g id="node52" class="node">
<title>node_51</title>
<text text-anchor="middle" x="501" y="-445.8" font-family="Times,serif" font-size="14.00" fill="#000000">0</text>
</g>
<!-- node_50&#45;&gt;node_51 -->
<g id="edge51" class="edge">
<title>node_50&#45;&gt;node_51</title>
<path fill="none" stroke="#000000" d="M501,-503.8314C501,-496.131 501,-486.9743 501,-478.4166"/>
<polygon fill="#000000" stroke="#000000" points="504.5001,-478.4132 501,-468.4133 497.5001,-478.4133 504.5001,-478.4132"/>
</g>
<!-- node_53 -->
<g id="node54" class="node">
<title>node_53</title>
<text text-anchor="middle" x="576" y="-445.8" font-family="Times,serif" font-size="14.00" fill="#000000">cc(2, 0)</text>
</g>
<!-- node_52&#45;&gt;node_53 -->
<g id="edge53" class="edge">
<title>node_52&#45;&gt;node_53</title>
<path fill="none" stroke="#000000" d="M577.4953,-503.8314C577.2814,-496.131 577.0271,-486.9743 576.7894,-478.4166"/>
<polygon fill="#000000" stroke="#000000" points="580.2879,-478.3122 576.5115,-468.4133 573.2906,-478.5066 580.2879,-478.3122"/>
</g>
<!-- node_55 -->
<g id="node56" class="node">
<title>node_55</title>
<text text-anchor="middle" x="653" y="-445.8" font-family="Times,serif" font-size="14.00" fill="#000000">cc(1, 1)</text>
</g>
<!-- node_52&#45;&gt;node_55 -->
<g id="edge55" class="edge">
<title>node_52&#45;&gt;node_55</title>
<path fill="none" stroke="#000000" d="M596.9257,-503.8314C605.9857,-495.1337 616.9809,-484.5783 626.8265,-475.1265"/>
<polygon fill="#000000" stroke="#000000" points="629.2904,-477.613 634.0804,-468.1628 624.4426,-472.5633 629.2904,-477.613"/>
</g>
<!-- node_54 -->
<g id="node55" class="node">
<title>node_54</title>
<text text-anchor="middle" x="576" y="-373.8" font-family="Times,serif" font-size="14.00" fill="#000000">0</text>
</g>
<!-- node_53&#45;&gt;node_54 -->
<g id="edge54" class="edge">
<title>node_53&#45;&gt;node_54</title>
<path fill="none" stroke="#000000" d="M576,-431.8314C576,-424.131 576,-414.9743 576,-406.4166"/>
<polygon fill="#000000" stroke="#000000" points="579.5001,-406.4132 576,-396.4133 572.5001,-406.4133 579.5001,-406.4132"/>
</g>
<!-- node_56 -->
<g id="node57" class="node">
<title>node_56</title>
<text text-anchor="middle" x="651" y="-373.8" font-family="Times,serif" font-size="14.00" fill="#000000">cc(1, 0)</text>
</g>
<!-- node_55&#45;&gt;node_56 -->
<g id="edge56" class="edge">
<title>node_55&#45;&gt;node_56</title>
<path fill="none" stroke="#000000" d="M652.4953,-431.8314C652.2814,-424.131 652.0271,-414.9743 651.7894,-406.4166"/>
<polygon fill="#000000" stroke="#000000" points="655.2879,-406.3122 651.5115,-396.4133 648.2906,-406.5066 655.2879,-406.3122"/>
</g>
<!-- node_58 -->
<g id="node59" class="node">
<title>node_58</title>
<text text-anchor="middle" x="728" y="-373.8" font-family="Times,serif" font-size="14.00" fill="#000000">cc(0, 1)</text>
</g>
<!-- node_55&#45;&gt;node_58 -->
<g id="edge58" class="edge">
<title>node_55&#45;&gt;node_58</title>
<path fill="none" stroke="#000000" d="M671.9257,-431.8314C680.9857,-423.1337 691.9809,-412.5783 701.8265,-403.1265"/>
<polygon fill="#000000" stroke="#000000" points="704.2904,-405.613 709.0804,-396.1628 699.4426,-400.5633 704.2904,-405.613"/>
</g>
<!-- node_57 -->
<g id="node58" class="node">
<title>node_57</title>
<text text-anchor="middle" x="651" y="-301.8" font-family="Times,serif" font-size="14.00" fill="#000000">0</text>
</g>
<!-- node_56&#45;&gt;node_57 -->
<g id="edge57" class="edge">
<title>node_56&#45;&gt;node_57</title>
<path fill="none" stroke="#000000" d="M651,-359.8314C651,-352.131 651,-342.9743 651,-334.4166"/>
<polygon fill="#000000" stroke="#000000" points="654.5001,-334.4132 651,-324.4133 647.5001,-334.4133 654.5001,-334.4132"/>
</g>
<!-- node_59 -->
<g id="node60" class="node">
<title>node_59</title>
<text text-anchor="middle" x="728" y="-301.8" font-family="Times,serif" font-size="14.00" fill="#000000">1</text>
</g>
<!-- node_58&#45;&gt;node_59 -->
<g id="edge59" class="edge">
<title>node_58&#45;&gt;node_59</title>
<path fill="none" stroke="#000000" d="M728,-359.8314C728,-352.131 728,-342.9743 728,-334.4166"/>
<polygon fill="#000000" stroke="#000000" points="731.5001,-334.4132 728,-324.4133 724.5001,-334.4133 731.5001,-334.4132"/>
</g>
<!-- node_61 -->
<g id="node62" class="node">
<title>node_61</title>
<text text-anchor="middle" x="570" y="-733.8" font-family="Times,serif" font-size="14.00" fill="#000000">cc(1, 1)</text>
</g>
<!-- node_60&#45;&gt;node_61 -->
<g id="edge61" class="edge">
<title>node_60&#45;&gt;node_61</title>
<path fill="none" stroke="#000000" d="M570,-791.8314C570,-784.131 570,-774.9743 570,-766.4166"/>
<polygon fill="#000000" stroke="#000000" points="573.5001,-766.4132 570,-756.4133 566.5001,-766.4133 573.5001,-766.4132"/>
</g>
<!-- node_66 -->
<g id="node67" class="node">
<title>node_66</title>
<text text-anchor="middle" x="665" y="-733.8" font-family="Times,serif" font-size="14.00" fill="#000000">cc(&#45;4, 2)</text>
</g>
<!-- node_60&#45;&gt;node_66 -->
<g id="edge66" class="edge">
<title>node_60&#45;&gt;node_66</title>
<path fill="none" stroke="#000000" d="M593.9725,-791.8314C605.7861,-782.8779 620.1972,-771.9558 632.9435,-762.2955"/>
<polygon fill="#000000" stroke="#000000" points="635.1795,-764.9925 641.0352,-756.1628 630.9514,-759.4137 635.1795,-764.9925"/>
</g>
<!-- node_62 -->
<g id="node63" class="node">
<title>node_62</title>
<text text-anchor="middle" x="555" y="-661.8" font-family="Times,serif" font-size="14.00" fill="#000000">cc(1, 0)</text>
</g>
<!-- node_61&#45;&gt;node_62 -->
<g id="edge62" class="edge">
<title>node_61&#45;&gt;node_62</title>
<path fill="none" stroke="#000000" d="M566.2149,-719.8314C564.6106,-712.131 562.703,-702.9743 560.9201,-694.4166"/>
<polygon fill="#000000" stroke="#000000" points="564.3021,-693.4892 558.8361,-684.4133 557.4493,-694.9169 564.3021,-693.4892"/>
</g>
<!-- node_64 -->
<g id="node65" class="node">
<title>node_64</title>
<text text-anchor="middle" x="632" y="-661.8" font-family="Times,serif" font-size="14.00" fill="#000000">cc(0, 1)</text>
</g>
<!-- node_61&#45;&gt;node_64 -->
<g id="edge64" class="edge">
<title>node_61&#45;&gt;node_64</title>
<path fill="none" stroke="#000000" d="M585.6452,-719.8314C592.8591,-711.454 601.557,-701.3531 609.4605,-692.1749"/>
<polygon fill="#000000" stroke="#000000" points="612.2711,-694.2748 616.1441,-684.4133 606.9667,-689.7071 612.2711,-694.2748"/>
</g>
<!-- node_63 -->
<g id="node64" class="node">
<title>node_63</title>
<text text-anchor="middle" x="577" y="-589.8" font-family="Times,serif" font-size="14.00" fill="#000000">0</text>
</g>
<!-- node_62&#45;&gt;node_63 -->
<g id="edge63" class="edge">
<title>node_62&#45;&gt;node_63</title>
<path fill="none" stroke="#000000" d="M560.5515,-647.8314C562.9303,-640.0463 565.7638,-630.7729 568.4033,-622.1347"/>
<polygon fill="#000000" stroke="#000000" points="571.7987,-622.9996 571.3737,-612.4133 565.1042,-620.954 571.7987,-622.9996"/>
</g>
<!-- node_65 -->
<g id="node66" class="node">
<title>node_65</title>
<text text-anchor="middle" x="649" y="-589.8" font-family="Times,serif" font-size="14.00" fill="#000000">1</text>
</g>
<!-- node_64&#45;&gt;node_65 -->
<g id="edge65" class="edge">
<title>node_64&#45;&gt;node_65</title>
<path fill="none" stroke="#000000" d="M636.2898,-647.8314C638.108,-640.131 640.2699,-630.9743 642.2905,-622.4166"/>
<polygon fill="#000000" stroke="#000000" points="645.7608,-622.95 644.6524,-612.4133 638.9481,-621.3414 645.7608,-622.95"/>
</g>
<!-- node_67 -->
<g id="node68" class="node">
<title>node_67</title>
<text text-anchor="middle" x="706" y="-661.8" font-family="Times,serif" font-size="14.00" fill="#000000">0</text>
</g>
<!-- node_66&#45;&gt;node_67 -->
<g id="edge67" class="edge">
<title>node_66&#45;&gt;node_67</title>
<path fill="none" stroke="#000000" d="M675.346,-719.8314C679.9237,-711.7925 685.4052,-702.1666 690.4588,-693.2918"/>
<polygon fill="#000000" stroke="#000000" points="693.6077,-694.8351 695.5147,-684.4133 687.5248,-691.3712 693.6077,-694.8351"/>
</g>
<!-- node_69 -->
<g id="node70" class="node">
<title>node_69</title>
<text text-anchor="middle" x="830" y="-877.8" font-family="Times,serif" font-size="14.00" fill="#000000">cc(1, 2)</text>
</g>
<!-- node_68&#45;&gt;node_69 -->
<g id="edge69" class="edge">
<title>node_68&#45;&gt;node_69</title>
<path fill="none" stroke="#000000" d="M830,-935.8314C830,-928.131 830,-918.9743 830,-910.4166"/>
<polygon fill="#000000" stroke="#000000" points="833.5001,-910.4132 830,-900.4133 826.5001,-910.4133 833.5001,-910.4132"/>
</g>
<!-- node_77 -->
<g id="node78" class="node">
<title>node_77</title>
<text text-anchor="middle" x="947" y="-877.8" font-family="Times,serif" font-size="14.00" fill="#000000">cc(&#45;9, 3)</text>
</g>
<!-- node_68&#45;&gt;node_77 -->
<g id="edge77" class="edge">
<title>node_68&#45;&gt;node_77</title>
<path fill="none" stroke="#000000" d="M859.524,-935.8314C874.4891,-926.6221 892.8386,-915.3301 908.8603,-905.4706"/>
<polygon fill="#000000" stroke="#000000" points="910.8032,-908.3847 917.4854,-900.1628 907.1345,-902.423 910.8032,-908.3847"/>
</g>
<!-- node_70 -->
<g id="node71" class="node">
<title>node_70</title>
<text text-anchor="middle" x="811" y="-805.8" font-family="Times,serif" font-size="14.00" fill="#000000">cc(1, 1)</text>
</g>
<!-- node_69&#45;&gt;node_70 -->
<g id="edge70" class="edge">
<title>node_69&#45;&gt;node_70</title>
<path fill="none" stroke="#000000" d="M825.2055,-863.8314C823.1511,-856.0463 820.704,-846.7729 818.4244,-838.1347"/>
<polygon fill="#000000" stroke="#000000" points="821.7948,-837.1892 815.8591,-828.4133 815.0265,-838.9753 821.7948,-837.1892"/>
</g>
<!-- node_75 -->
<g id="node76" class="node">
<title>node_75</title>
<text text-anchor="middle" x="890" y="-805.8" font-family="Times,serif" font-size="14.00" fill="#000000">cc(&#45;4, 2)</text>
</g>
<!-- node_69&#45;&gt;node_75 -->
<g id="edge75" class="edge">
<title>node_69&#45;&gt;node_75</title>
<path fill="none" stroke="#000000" d="M845.1405,-863.8314C852.1217,-855.454 860.5391,-845.3531 868.1876,-836.1749"/>
<polygon fill="#000000" stroke="#000000" points="870.9425,-838.3362 874.6556,-828.4133 865.5649,-833.8548 870.9425,-838.3362"/>
</g>
<!-- node_71 -->
<g id="node72" class="node">
<title>node_71</title>
<text text-anchor="middle" x="775" y="-733.8" font-family="Times,serif" font-size="14.00" fill="#000000">cc(1, 0)</text>
</g>
<!-- node_70&#45;&gt;node_71 -->
<g id="edge71" class="edge">
<title>node_70&#45;&gt;node_71</title>
<path fill="none" stroke="#000000" d="M801.9157,-791.8314C797.9385,-783.8771 793.1845,-774.369 788.7861,-765.5723"/>
<polygon fill="#000000" stroke="#000000" points="791.8093,-763.7923 784.2066,-756.4133 785.5483,-766.9228 791.8093,-763.7923"/>
</g>
<!-- node_73 -->
<g id="node74" class="node">
<title>node_73</title>
<text text-anchor="middle" x="852" y="-733.8" font-family="Times,serif" font-size="14.00" fill="#000000">cc(0, 1)</text>
</g>
<!-- node_70&#45;&gt;node_73 -->
<g id="edge73" class="edge">
<title>node_70&#45;&gt;node_73</title>
<path fill="none" stroke="#000000" d="M821.346,-791.8314C825.9237,-783.7925 831.4052,-774.1666 836.4588,-765.2918"/>
<polygon fill="#000000" stroke="#000000" points="839.6077,-766.8351 841.5147,-756.4133 833.5248,-763.3712 839.6077,-766.8351"/>
</g>
<!-- node_72 -->
<g id="node73" class="node">
<title>node_72</title>
<text text-anchor="middle" x="778" y="-661.8" font-family="Times,serif" font-size="14.00" fill="#000000">0</text>
</g>
<!-- node_71&#45;&gt;node_72 -->
<g id="edge72" class="edge">
<title>node_71&#45;&gt;node_72</title>
<path fill="none" stroke="#000000" d="M775.757,-719.8314C776.0779,-712.131 776.4594,-702.9743 776.816,-694.4166"/>
<polygon fill="#000000" stroke="#000000" points="780.3133,-694.5503 777.2328,-684.4133 773.3194,-694.2589 780.3133,-694.5503"/>
</g>
<!-- node_74 -->
<g id="node75" class="node">
<title>node_74</title>
<text text-anchor="middle" x="852" y="-661.8" font-family="Times,serif" font-size="14.00" fill="#000000">1</text>
</g>
<!-- node_73&#45;&gt;node_74 -->
<g id="edge74" class="edge">
<title>node_73&#45;&gt;node_74</title>
<path fill="none" stroke="#000000" d="M852,-719.8314C852,-712.131 852,-702.9743 852,-694.4166"/>
<polygon fill="#000000" stroke="#000000" points="855.5001,-694.4132 852,-684.4133 848.5001,-694.4133 855.5001,-694.4132"/>
</g>
<!-- node_76 -->
<g id="node77" class="node">
<title>node_76</title>
<text text-anchor="middle" x="926" y="-733.8" font-family="Times,serif" font-size="14.00" fill="#000000">0</text>
</g>
<!-- node_75&#45;&gt;node_76 -->
<g id="edge76" class="edge">
<title>node_75&#45;&gt;node_76</title>
<path fill="none" stroke="#000000" d="M899.0843,-791.8314C903.0615,-783.8771 907.8155,-774.369 912.2139,-765.5723"/>
<polygon fill="#000000" stroke="#000000" points="915.4517,-766.9228 916.7934,-756.4133 909.1907,-763.7923 915.4517,-766.9228"/>
</g>
<!-- node_78 -->
<g id="node79" class="node">
<title>node_78</title>
<text text-anchor="middle" x="967" y="-805.8" font-family="Times,serif" font-size="14.00" fill="#000000">0</text>
</g>
<!-- node_77&#45;&gt;node_78 -->
<g id="edge78" class="edge">
<title>node_77&#45;&gt;node_78</title>
<path fill="none" stroke="#000000" d="M952.0468,-863.8314C954.2094,-856.0463 956.7853,-846.7729 959.1848,-838.1347"/>
<polygon fill="#000000" stroke="#000000" points="962.581,-838.9852 961.8852,-828.4133 955.8364,-837.1117 962.581,-838.9852"/>
</g>
<!-- node_80 -->
<g id="node81" class="node">
<title>node_80</title>
<text text-anchor="middle" x="910" y="-949.8" font-family="Times,serif" font-size="14.00" fill="#000000">0</text>
</g>
<!-- node_79&#45;&gt;node_80 -->
<g id="edge80" class="edge">
<title>node_79&#45;&gt;node_80</title>
<path fill="none" stroke="#000000" d="M910,-1007.8314C910,-1000.131 910,-990.9743 910,-982.4166"/>
<polygon fill="#000000" stroke="#000000" points="913.5001,-982.4132 910,-972.4133 906.5001,-982.4133 913.5001,-982.4132"/>
</g>
<!-- node_82 -->
<g id="node83" class="node">
<title>node_82</title>
<text text-anchor="middle" x="993" y="-1021.8" font-family="Times,serif" font-size="14.00" fill="#000000">0</text>
</g>
<!-- node_81&#45;&gt;node_82 -->
<g id="edge82" class="edge">
<title>node_81&#45;&gt;node_82</title>
<path fill="none" stroke="#000000" d="M993,-1079.8314C993,-1072.131 993,-1062.9743 993,-1054.4166"/>
<polygon fill="#000000" stroke="#000000" points="996.5001,-1054.4132 993,-1044.4133 989.5001,-1054.4133 996.5001,-1054.4132"/>
</g>
</g>
</svg>