<?xml version="1.0" encoding="UTF-8" standalone="no"?>
<!DOCTYPE svg PUBLIC "-//W3C//DTD SVG 1.1//EN"
 "http://www.w3.org/Graphics/SVG/1.1/DTD/svg11.dtd">
<!-- Generated by graphviz version 2.40.1 (20161225.0304)
 -->
<!-- Title: G Pages: 1 -->
<svg width="1319pt" height="44pt"
 viewBox="0.00 0.00 1319.41 44.00" xmlns="http://www.w3.org/2000/svg" xmlns:xlink="http://www.w3.org/1999/xlink">
<g id="graph0" class="graph" transform="scale(1 1) rotate(0) translate(4 40)">
<title>G</title>
<polygon fill="#ffffff" stroke="transparent" points="-4,4 -4,-40 1315.4112,-40 1315.4112,4 -4,4"/>
<!-- node_0 -->
<g id="node1" class="node">
<title>node_0</title>
<text text-anchor="middle" x="63.2132" y="-13.8" font-family="Times,serif" font-size="14.00" fill="#000000">expmod(13, 19, 19)</text>
</g>
<!-- node_1 -->
<g id="node2" class="node">
<title>node_1</title>
<text text-anchor="middle" x="225.6396" y="-13.8" font-family="Times,serif" font-size="14.00" fill="#000000">expmod(13, 18, 19)</text>
</g>
<!-- node_0&#45;&gt;node_1 -->
<g id="edge1" class="edge">
<title>node_0&#45;&gt;node_1</title>
<path fill="none" stroke="#000000" d="M126.4766,-18C134.9276,-18 143.6516,-18 152.2572,-18"/>
<polygon fill="#000000" stroke="#000000" points="152.2817,-21.5001 162.2817,-18 152.2816,-14.5001 152.2817,-21.5001"/>
</g>
<!-- node_2 -->
<g id="node3" class="node">
<title>node_2</title>
<text text-anchor="middle" x="384.566" y="-13.8" font-family="Times,serif" font-size="14.00" fill="#000000">expmod(13, 9, 19)</text>
</g>
<!-- node_1&#45;&gt;node_2 -->
<g id="edge2" class="edge">
<title>node_1&#45;&gt;node_2</title>
<path fill="none" stroke="#000000" d="M288.9082,-18C297.2776,-18 305.8973,-18 314.3743,-18"/>
<polygon fill="#000000" stroke="#000000" points="314.6173,-21.5001 324.6172,-18 314.6172,-14.5001 314.6173,-21.5001"/>
</g>
<!-- node_3 -->
<g id="node4" class="node">
<title>node_3</title>
<text text-anchor="middle" x="539.9924" y="-13.8" font-family="Times,serif" font-size="14.00" fill="#000000">expmod(13, 8, 19)</text>
</g>
<!-- node_2&#45;&gt;node_3 -->
<g id="edge3" class="edge">
<title>node_2&#45;&gt;node_3</title>
<path fill="none" stroke="#000000" d="M444.6579,-18C452.9173,-18 461.457,-18 469.8767,-18"/>
<polygon fill="#000000" stroke="#000000" points="470.0603,-21.5001 480.0603,-18 470.0603,-14.5001 470.0603,-21.5001"/>
</g>
<!-- node_4 -->
<g id="node5" class="node">
<title>node_4</title>
<text text-anchor="middle" x="695.4188" y="-13.8" font-family="Times,serif" font-size="14.00" fill="#000000">expmod(13, 4, 19)</text>
</g>
<!-- node_3&#45;&gt;node_4 -->
<g id="edge4" class="edge">
<title>node_3&#45;&gt;node_4</title>
<path fill="none" stroke="#000000" d="M600.0843,-18C608.3437,-18 616.8834,-18 625.3031,-18"/>
<polygon fill="#000000" stroke="#000000" points="625.4867,-21.5001 635.4867,-18 625.4867,-14.5001 625.4867,-21.5001"/>
</g>
<!-- node_5 -->
<g id="node6" class="node">
<title>node_5</title>
<text text-anchor="middle" x="850.8452" y="-13.8" font-family="Times,serif" font-size="14.00" fill="#000000">expmod(13, 2, 19)</text>
</g>
<!-- node_4&#45;&gt;node_5 -->
<g id="edge5" class="edge">
<title>node_4&#45;&gt;node_5</title>
<path fill="none" stroke="#000000" d="M755.5107,-18C763.7701,-18 772.3098,-18 780.7295,-18"/>
<polygon fill="#000000" stroke="#000000" points="780.9131,-21.5001 790.9131,-18 780.9131,-14.5001 780.9131,-21.5001"/>
</g>
<!-- node_6 -->
<g id="node7" class="node">
<title>node_6</title>
<text text-anchor="middle" x="1006.2716" y="-13.8" font-family="Times,serif" font-size="14.00" fill="#000000">expmod(13, 1, 19)</text>
</g>
<!-- node_5&#45;&gt;node_6 -->
<g id="edge6" class="edge">
<title>node_5&#45;&gt;node_6</title>
<path fill="none" stroke="#000000" d="M910.9371,-18C919.1965,-18 927.7362,-18 936.1559,-18"/>
<polygon fill="#000000" stroke="#000000" points="936.3395,-21.5001 946.3395,-18 936.3395,-14.5001 936.3395,-21.5001"/>
</g>
<!-- node_7 -->
<g id="node8" class="node">
<title>node_7</title>
<text text-anchor="middle" x="1161.698" y="-13.8" font-family="Times,serif" font-size="14.00" fill="#000000">expmod(13, 0, 19)</text>
</g>
<!-- node_6&#45;&gt;node_7 -->
<g id="edge7" class="edge">
<title>node_6&#45;&gt;node_7</title>
<path fill="none" stroke="#000000" d="M1066.3635,-18C1074.6229,-18 1083.1626,-18 1091.5823,-18"/>
<polygon fill="#000000" stroke="#000000" points="1091.7659,-21.5001 1101.7659,-18 1091.7659,-14.5001 1091.7659,-21.5001"/>
</g>
<!-- node_8 -->
<g id="node9" class="node">
<title>node_8</title>
<text text-anchor="middle" x="1284.4112" y="-13.8" font-family="Times,serif" font-size="14.00" fill="#000000">1</text>
</g>
<!-- node_7&#45;&gt;node_8 -->
<g id="edge8" class="edge">
<title>node_7&#45;&gt;node_8</title>
<path fill="none" stroke="#000000" d="M1221.6167,-18C1230.331,-18 1239.0841,-18 1247.1722,-18"/>
<polygon fill="#000000" stroke="#000000" points="1247.3626,-21.5001 1257.3626,-18 1247.3626,-14.5001 1247.3626,-21.5001"/>
</g>
</g>
</svg>