<?xml version="1.0" encoding="UTF-8" standalone="no"?>
<!DOCTYPE svg PUBLIC "-//W3C//DTD SVG 1.1//EN"
 "http://www.w3.org/Graphics/SVG/1.1/DTD/svg11.dtd">
<!-- Generated by graphviz version 2.40.1 (20161225.0304)
 -->
<!-- Title: G Pages: 1 -->
<svg width="2182pt" height="620pt"
 viewBox="0.00 0.00 2182.43 620.00" xmlns="http://www.w3.org/2000/svg" xmlns:xlink="http://www.w3.org/1999/xlink">
<g id="graph0" class="graph" transform="scale(1 1) rotate(0) translate(4 616)">
<title>G</title>
<polygon fill="#ffffff" stroke="transparent" points="-4,4 -4,-616 2178.4264,-616 2178.4264,4 -4,4"/>
<!-- node_0 -->
<g id="node1" class="node">
<title>node_0</title>
<text text-anchor="middle" x="915.7132" y="-589.8" font-family="Times,serif" font-size="14.00" fill="#000000">expmod(13, 19, 19)</text>
</g>
<!-- node_1 -->
<g id="node2" class="node">
<title>node_1</title>
<text text-anchor="middle" x="915.7132" y="-517.8" font-family="Times,serif" font-size="14.00" fill="#000000">expmod(13, 18, 19)</text>
</g>
<!-- node_0&#45;&gt;node_1 -->
<g id="edge1" class="edge">
<title>node_0&#45;&gt;node_1</title>
<path fill="none" stroke="#000000" d="M915.7132,-575.8314C915.7132,-568.131 915.7132,-558.9743 915.7132,-550.4166"/>
<polygon fill="#000000" stroke="#000000" points="919.2133,-550.4132 915.7132,-540.4133 912.2133,-550.4133 919.2133,-550.4132"/>
</g>
<!-- node_2 -->
<g id="node3" class="node">
<title>node_2</title>
<text text-anchor="middle" x="847.7132" y="-445.8" font-family="Times,serif" font-size="14.00" fill="#000000">expmod(13, 9, 19)</text>
</g>
<!-- node_1&#45;&gt;node_2 -->
<g id="edge2" class="edge">
<title>node_1&#45;&gt;node_2</title>
<path fill="none" stroke="#000000" d="M898.5539,-503.8314C890.5621,-495.3694 880.9094,-485.1489 872.1716,-475.8971"/>
<polygon fill="#000000" stroke="#000000" points="874.5143,-473.2802 865.1035,-468.4133 869.4252,-478.0866 874.5143,-473.2802"/>
</g>
<!-- node_34 -->
<g id="node35" class="node">
<title>node_34</title>
<text text-anchor="middle" x="1258.7132" y="-445.8" font-family="Times,serif" font-size="14.00" fill="#000000">expmod(13, 9, 19)</text>
</g>
<!-- node_1&#45;&gt;node_34 -->
<g id="edge34" class="edge">
<title>node_1&#45;&gt;node_34</title>
<path fill="none" stroke="#000000" d="M979.0244,-508.7102C1038.5255,-496.2202 1127.3927,-477.5658 1188.9186,-464.6508"/>
<polygon fill="#000000" stroke="#000000" points="1189.8624,-468.029 1198.93,-462.5492 1188.4243,-461.1783 1189.8624,-468.029"/>
</g>
<!-- node_3 -->
<g id="node4" class="node">
<title>node_3</title>
<text text-anchor="middle" x="812.7132" y="-373.8" font-family="Times,serif" font-size="14.00" fill="#000000">expmod(13, 8, 19)</text>
</g>
<!-- node_2&#45;&gt;node_3 -->
<g id="edge3" class="edge">
<title>node_2&#45;&gt;node_3</title>
<path fill="none" stroke="#000000" d="M838.8812,-431.8314C835.0146,-423.8771 830.3926,-414.369 826.1164,-405.5723"/>
<polygon fill="#000000" stroke="#000000" points="829.1839,-403.8768 821.6641,-396.4133 822.8883,-406.9371 829.1839,-403.8768"/>
</g>
<!-- node_4 -->
<g id="node5" class="node">
<title>node_4</title>
<text text-anchor="middle" x="402.7132" y="-301.8" font-family="Times,serif" font-size="14.00" fill="#000000">expmod(13, 4, 19)</text>
</g>
<!-- node_3&#45;&gt;node_4 -->
<g id="edge4" class="edge">
<title>node_3&#45;&gt;node_4</title>
<path fill="none" stroke="#000000" d="M752.6566,-367.4535C678.2594,-354.3886 551.7178,-332.1667 472.9136,-318.3279"/>
<polygon fill="#000000" stroke="#000000" points="473.0515,-314.7986 462.5969,-316.5162 471.8407,-321.6931 473.0515,-314.7986"/>
</g>
<!-- node_19 -->
<g id="node20" class="node">
<title>node_19</title>
<text text-anchor="middle" x="812.7132" y="-301.8" font-family="Times,serif" font-size="14.00" fill="#000000">expmod(13, 4, 19)</text>
</g>
<!-- node_3&#45;&gt;node_19 -->
<g id="edge19" class="edge">
<title>node_3&#45;&gt;node_19</title>
<path fill="none" stroke="#000000" d="M812.7132,-359.8314C812.7132,-352.131 812.7132,-342.9743 812.7132,-334.4166"/>
<polygon fill="#000000" stroke="#000000" points="816.2133,-334.4132 812.7132,-324.4133 809.2133,-334.4133 816.2133,-334.4132"/>
</g>
<!-- node_5 -->
<g id="node6" class="node">
<title>node_5</title>
<text text-anchor="middle" x="196.7132" y="-229.8" font-family="Times,serif" font-size="14.00" fill="#000000">expmod(13, 2, 19)</text>
</g>
<!-- node_4&#45;&gt;node_5 -->
<g id="edge5" class="edge">
<title>node_4&#45;&gt;node_5</title>
<path fill="none" stroke="#000000" d="M350.9966,-287.9243C322.8352,-278.0815 287.807,-265.8386 258.2479,-255.5073"/>
<polygon fill="#000000" stroke="#000000" points="259.0459,-252.0786 248.4511,-252.0831 256.7363,-258.6866 259.0459,-252.0786"/>
</g>
<!-- node_12 -->
<g id="node13" class="node">
<title>node_12</title>
<text text-anchor="middle" x="402.7132" y="-229.8" font-family="Times,serif" font-size="14.00" fill="#000000">expmod(13, 2, 19)</text>
</g>
<!-- node_4&#45;&gt;node_12 -->
<g id="edge12" class="edge">
<title>node_4&#45;&gt;node_12</title>
<path fill="none" stroke="#000000" d="M402.7132,-287.8314C402.7132,-280.131 402.7132,-270.9743 402.7132,-262.4166"/>
<polygon fill="#000000" stroke="#000000" points="406.2133,-262.4132 402.7132,-252.4133 399.2133,-262.4133 406.2133,-262.4132"/>
</g>
<!-- node_6 -->
<g id="node7" class="node">
<title>node_6</title>
<text text-anchor="middle" x="59.7132" y="-157.8" font-family="Times,serif" font-size="14.00" fill="#000000">expmod(13, 1, 19)</text>
</g>
<!-- node_5&#45;&gt;node_6 -->
<g id="edge6" class="edge">
<title>node_5&#45;&gt;node_6</title>
<path fill="none" stroke="#000000" d="M162.1423,-215.8314C144.2947,-206.4516 122.3358,-194.9112 103.3332,-184.9244"/>
<polygon fill="#000000" stroke="#000000" points="104.7533,-181.7168 94.273,-180.1628 101.4968,-187.9132 104.7533,-181.7168"/>
</g>
<!-- node_9 -->
<g id="node10" class="node">
<title>node_9</title>
<text text-anchor="middle" x="196.7132" y="-157.8" font-family="Times,serif" font-size="14.00" fill="#000000">expmod(13, 1, 19)</text>
</g>
<!-- node_5&#45;&gt;node_9 -->
<g id="edge9" class="edge">
<title>node_5&#45;&gt;node_9</title>
<path fill="none" stroke="#000000" d="M196.7132,-215.8314C196.7132,-208.131 196.7132,-198.9743 196.7132,-190.4166"/>
<polygon fill="#000000" stroke="#000000" points="200.2133,-190.4132 196.7132,-180.4133 193.2133,-190.4133 200.2133,-190.4132"/>
</g>
<!-- node_7 -->
<g id="node8" class="node">
<title>node_7</title>
<text text-anchor="middle" x="59.7132" y="-85.8" font-family="Times,serif" font-size="14.00" fill="#000000">expmod(13, 0, 19)</text>
</g>
<!-- node_6&#45;&gt;node_7 -->
<g id="edge7" class="edge">
<title>node_6&#45;&gt;node_7</title>
<path fill="none" stroke="#000000" d="M59.7132,-143.8314C59.7132,-136.131 59.7132,-126.9743 59.7132,-118.4166"/>
<polygon fill="#000000" stroke="#000000" points="63.2133,-118.4132 59.7132,-108.4133 56.2133,-118.4133 63.2133,-118.4132"/>
</g>
<!-- node_8 -->
<g id="node9" class="node">
<title>node_8</title>
<text text-anchor="middle" x="59.7132" y="-13.8" font-family="Times,serif" font-size="14.00" fill="#000000">1</text>
</g>
<!-- node_7&#45;&gt;node_8 -->
<g id="edge8" class="edge">
<title>node_7&#45;&gt;node_8</title>
<path fill="none" stroke="#000000" d="M59.7132,-71.8314C59.7132,-64.131 59.7132,-54.9743 59.7132,-46.4166"/>
<polygon fill="#000000" stroke="#000000" points="63.2133,-46.4132 59.7132,-36.4133 56.2133,-46.4133 63.2133,-46.4132"/>
</g>
<!-- node_10 -->
<g id="node11" class="node">
<title>node_10</title>
<text text-anchor="middle" x="196.7132" y="-85.8" font-family="Times,serif" font-size="14.00" fill="#000000">expmod(13, 0, 19)</text>
</g>
<!-- node_9&#45;&gt;node_10 -->
<g id="edge10" class="edge">
<title>node_9&#45;&gt;node_10</title>
<path fill="none" stroke="#000000" d="M196.7132,-143.8314C196.7132,-136.131 196.7132,-126.9743 196.7132,-118.4166"/>
<polygon fill="#000000" stroke="#000000" points="200.2133,-118.4132 196.7132,-108.4133 193.2133,-118.4133 200.2133,-118.4132"/>
</g>
<!-- node_11 -->
<g id="node12" class="node">
<title>node_11</title>
<text text-anchor="middle" x="196.7132" y="-13.8" font-family="Times,serif" font-size="14.00" fill="#000000">1</text>
</g>
<!-- node_10&#45;&gt;node_11 -->
<g id="edge11" class="edge">
<title>node_10&#45;&gt;node_11</title>
<path fill="none" stroke="#000000" d="M196.7132,-71.8314C196.7132,-64.131 196.7132,-54.9743 196.7132,-46.4166"/>
<polygon fill="#000000" stroke="#000000" points="200.2133,-46.4132 196.7132,-36.4133 193.2133,-46.4133 200.2133,-46.4132"/>
</g>
<!-- node_13 -->
<g id="node14" class="node">
<title>node_13</title>
<text text-anchor="middle" x="333.7132" y="-157.8" font-family="Times,serif" font-size="14.00" fill="#000000">expmod(13, 1, 19)</text>
</g>
<!-- node_12&#45;&gt;node_13 -->
<g id="edge13" class="edge">
<title>node_12&#45;&gt;node_13</title>
<path fill="none" stroke="#000000" d="M385.3016,-215.8314C377.1922,-207.3694 367.3976,-197.1489 358.5312,-187.8971"/>
<polygon fill="#000000" stroke="#000000" points="360.8053,-185.2115 351.3592,-180.4133 355.7514,-190.0549 360.8053,-185.2115"/>
</g>
<!-- node_16 -->
<g id="node17" class="node">
<title>node_16</title>
<text text-anchor="middle" x="470.7132" y="-157.8" font-family="Times,serif" font-size="14.00" fill="#000000">expmod(13, 1, 19)</text>
</g>
<!-- node_12&#45;&gt;node_16 -->
<g id="edge16" class="edge">
<title>node_12&#45;&gt;node_16</title>
<path fill="none" stroke="#000000" d="M419.8725,-215.8314C427.8643,-207.3694 437.517,-197.1489 446.2548,-187.8971"/>
<polygon fill="#000000" stroke="#000000" points="449.0012,-190.0866 453.3229,-180.4133 443.9121,-185.2802 449.0012,-190.0866"/>
</g>
<!-- node_14 -->
<g id="node15" class="node">
<title>node_14</title>
<text text-anchor="middle" x="333.7132" y="-85.8" font-family="Times,serif" font-size="14.00" fill="#000000">expmod(13, 0, 19)</text>
</g>
<!-- node_13&#45;&gt;node_14 -->
<g id="edge14" class="edge">
<title>node_13&#45;&gt;node_14</title>
<path fill="none" stroke="#000000" d="M333.7132,-143.8314C333.7132,-136.131 333.7132,-126.9743 333.7132,-118.4166"/>
<polygon fill="#000000" stroke="#000000" points="337.2133,-118.4132 333.7132,-108.4133 330.2133,-118.4133 337.2133,-118.4132"/>
</g>
<!-- node_15 -->
<g id="node16" class="node">
<title>node_15</title>
<text text-anchor="middle" x="333.7132" y="-13.8" font-family="Times,serif" font-size="14.00" fill="#000000">1</text>
</g>
<!-- node_14&#45;&gt;node_15 -->
<g id="edge15" class="edge">
<title>node_14&#45;&gt;node_15</title>
<path fill="none" stroke="#000000" d="M333.7132,-71.8314C333.7132,-64.131 333.7132,-54.9743 333.7132,-46.4166"/>
<polygon fill="#000000" stroke="#000000" points="337.2133,-46.4132 333.7132,-36.4133 330.2133,-46.4133 337.2133,-46.4132"/>
</g>
<!-- node_17 -->
<g id="node18" class="node">
<title>node_17</title>
<text text-anchor="middle" x="470.7132" y="-85.8" font-family="Times,serif" font-size="14.00" fill="#000000">expmod(13, 0, 19)</text>
</g>
<!-- node_16&#45;&gt;node_17 -->
<g id="edge17" class="edge">
<title>node_16&#45;&gt;node_17</title>
<path fill="none" stroke="#000000" d="M470.7132,-143.8314C470.7132,-136.131 470.7132,-126.9743 470.7132,-118.4166"/>
<polygon fill="#000000" stroke="#000000" points="474.2133,-118.4132 470.7132,-108.4133 467.2133,-118.4133 474.2133,-118.4132"/>
</g>
<!-- node_18 -->
<g id="node19" class="node">
<title>node_18</title>
<text text-anchor="middle" x="470.7132" y="-13.8" font-family="Times,serif" font-size="14.00" fill="#000000">1</text>
</g>
<!-- node_17&#45;&gt;node_18 -->
<g id="edge18" class="edge">
<title>node_17&#45;&gt;node_18</title>
<path fill="none" stroke="#000000" d="M470.7132,-71.8314C470.7132,-64.131 470.7132,-54.9743 470.7132,-46.4166"/>
<polygon fill="#000000" stroke="#000000" points="474.2133,-46.4132 470.7132,-36.4133 467.2133,-46.4133 474.2133,-46.4132"/>
</g>
<!-- node_20 -->
<g id="node21" class="node">
<title>node_20</title>
<text text-anchor="middle" x="744.7132" y="-229.8" font-family="Times,serif" font-size="14.00" fill="#000000">expmod(13, 2, 19)</text>
</g>
<!-- node_19&#45;&gt;node_20 -->
<g id="edge20" class="edge">
<title>node_19&#45;&gt;node_20</title>
<path fill="none" stroke="#000000" d="M795.5539,-287.8314C787.5621,-279.3694 777.9094,-269.1489 769.1716,-259.8971"/>
<polygon fill="#000000" stroke="#000000" points="771.5143,-257.2802 762.1035,-252.4133 766.4252,-262.0866 771.5143,-257.2802"/>
</g>
<!-- node_27 -->
<g id="node28" class="node">
<title>node_27</title>
<text text-anchor="middle" x="881.7132" y="-229.8" font-family="Times,serif" font-size="14.00" fill="#000000">expmod(13, 2, 19)</text>
</g>
<!-- node_19&#45;&gt;node_27 -->
<g id="edge27" class="edge">
<title>node_19&#45;&gt;node_27</title>
<path fill="none" stroke="#000000" d="M830.1248,-287.8314C838.2342,-279.3694 848.0288,-269.1489 856.8952,-259.8971"/>
<polygon fill="#000000" stroke="#000000" points="859.675,-262.0549 864.0672,-252.4133 854.6211,-257.2115 859.675,-262.0549"/>
</g>
<!-- node_21 -->
<g id="node22" class="node">
<title>node_21</title>
<text text-anchor="middle" x="607.7132" y="-157.8" font-family="Times,serif" font-size="14.00" fill="#000000">expmod(13, 1, 19)</text>
</g>
<!-- node_20&#45;&gt;node_21 -->
<g id="edge21" class="edge">
<title>node_20&#45;&gt;node_21</title>
<path fill="none" stroke="#000000" d="M710.1423,-215.8314C692.2947,-206.4516 670.3358,-194.9112 651.3332,-184.9244"/>
<polygon fill="#000000" stroke="#000000" points="652.7533,-181.7168 642.273,-180.1628 649.4968,-187.9132 652.7533,-181.7168"/>
</g>
<!-- node_24 -->
<g id="node25" class="node">
<title>node_24</title>
<text text-anchor="middle" x="744.7132" y="-157.8" font-family="Times,serif" font-size="14.00" fill="#000000">expmod(13, 1, 19)</text>
</g>
<!-- node_20&#45;&gt;node_24 -->
<g id="edge24" class="edge">
<title>node_20&#45;&gt;node_24</title>
<path fill="none" stroke="#000000" d="M744.7132,-215.8314C744.7132,-208.131 744.7132,-198.9743 744.7132,-190.4166"/>
<polygon fill="#000000" stroke="#000000" points="748.2133,-190.4132 744.7132,-180.4133 741.2133,-190.4133 748.2133,-190.4132"/>
</g>
<!-- node_22 -->
<g id="node23" class="node">
<title>node_22</title>
<text text-anchor="middle" x="607.7132" y="-85.8" font-family="Times,serif" font-size="14.00" fill="#000000">expmod(13, 0, 19)</text>
</g>
<!-- node_21&#45;&gt;node_22 -->
<g id="edge22" class="edge">
<title>node_21&#45;&gt;node_22</title>
<path fill="none" stroke="#000000" d="M607.7132,-143.8314C607.7132,-136.131 607.7132,-126.9743 607.7132,-118.4166"/>
<polygon fill="#000000" stroke="#000000" points="611.2133,-118.4132 607.7132,-108.4133 604.2133,-118.4133 611.2133,-118.4132"/>
</g>
<!-- node_23 -->
<g id="node24" class="node">
<title>node_23</title>
<text text-anchor="middle" x="607.7132" y="-13.8" font-family="Times,serif" font-size="14.00" fill="#000000">1</text>
</g>
<!-- node_22&#45;&gt;node_23 -->
<g id="edge23" class="edge">
<title>node_22&#45;&gt;node_23</title>
<path fill="none" stroke="#000000" d="M607.7132,-71.8314C607.7132,-64.131 607.7132,-54.9743 607.7132,-46.4166"/>
<polygon fill="#000000" stroke="#000000" points="611.2133,-46.4132 607.7132,-36.4133 604.2133,-46.4133 611.2133,-46.4132"/>
</g>
<!-- node_25 -->
<g id="node26" class="node">
<title>node_25</title>
<text text-anchor="middle" x="744.7132" y="-85.8" font-family="Times,serif" font-size="14.00" fill="#000000">expmod(13, 0, 19)</text>
</g>
<!-- node_24&#45;&gt;node_25 -->
<g id="edge25" class="edge">
<title>node_24&#45;&gt;node_25</title>
<path fill="none" stroke="#000000" d="M744.7132,-143.8314C744.7132,-136.131 744.7132,-126.9743 744.7132,-118.4166"/>
<polygon fill="#000000" stroke="#000000" points="748.2133,-118.4132 744.7132,-108.4133 741.2133,-118.4133 748.2133,-118.4132"/>
</g>
<!-- node_26 -->
<g id="node27" class="node">
<title>node_26</title>
<text text-anchor="middle" x="744.7132" y="-13.8" font-family="Times,serif" font-size="14.00" fill="#000000">1</text>
</g>
<!-- node_25&#45;&gt;node_26 -->
<g id="edge26" class="edge">
<title>node_25&#45;&gt;node_26</title>
<path fill="none" stroke="#000000" d="M744.7132,-71.8314C744.7132,-64.131 744.7132,-54.9743 744.7132,-46.4166"/>
<polygon fill="#000000" stroke="#000000" points="748.2133,-46.4132 744.7132,-36.4133 741.2133,-46.4133 748.2133,-46.4132"/>
</g>
<!-- node_28 -->
<g id="node29" class="node">
<title>node_28</title>
<text text-anchor="middle" x="881.7132" y="-157.8" font-family="Times,serif" font-size="14.00" fill="#000000">expmod(13, 1, 19)</text>
</g>
<!-- node_27&#45;&gt;node_28 -->
<g id="edge28" class="edge">
<title>node_27&#45;&gt;node_28</title>
<path fill="none" stroke="#000000" d="M881.7132,-215.8314C881.7132,-208.131 881.7132,-198.9743 881.7132,-190.4166"/>
<polygon fill="#000000" stroke="#000000" points="885.2133,-190.4132 881.7132,-180.4133 878.2133,-190.4133 885.2133,-190.4132"/>
</g>
<!-- node_31 -->
<g id="node32" class="node">
<title>node_31</title>
<text text-anchor="middle" x="1018.7132" y="-157.8" font-family="Times,serif" font-size="14.00" fill="#000000">expmod(13, 1, 19)</text>
</g>
<!-- node_27&#45;&gt;node_31 -->
<g id="edge31" class="edge">
<title>node_27&#45;&gt;node_31</title>
<path fill="none" stroke="#000000" d="M916.2841,-215.8314C934.1317,-206.4516 956.0906,-194.9112 975.0932,-184.9244"/>
<polygon fill="#000000" stroke="#000000" points="976.9296,-187.9132 984.1534,-180.1628 973.6731,-181.7168 976.9296,-187.9132"/>
</g>
<!-- node_29 -->
<g id="node30" class="node">
<title>node_29</title>
<text text-anchor="middle" x="881.7132" y="-85.8" font-family="Times,serif" font-size="14.00" fill="#000000">expmod(13, 0, 19)</text>
</g>
<!-- node_28&#45;&gt;node_29 -->
<g id="edge29" class="edge">
<title>node_28&#45;&gt;node_29</title>
<path fill="none" stroke="#000000" d="M881.7132,-143.8314C881.7132,-136.131 881.7132,-126.9743 881.7132,-118.4166"/>
<polygon fill="#000000" stroke="#000000" points="885.2133,-118.4132 881.7132,-108.4133 878.2133,-118.4133 885.2133,-118.4132"/>
</g>
<!-- node_30 -->
<g id="node31" class="node">
<title>node_30</title>
<text text-anchor="middle" x="881.7132" y="-13.8" font-family="Times,serif" font-size="14.00" fill="#000000">1</text>
</g>
<!-- node_29&#45;&gt;node_30 -->
<g id="edge30" class="edge">
<title>node_29&#45;&gt;node_30</title>
<path fill="none" stroke="#000000" d="M881.7132,-71.8314C881.7132,-64.131 881.7132,-54.9743 881.7132,-46.4166"/>
<polygon fill="#000000" stroke="#000000" points="885.2133,-46.4132 881.7132,-36.4133 878.2133,-46.4133 885.2133,-46.4132"/>
</g>
<!-- node_32 -->
<g id="node33" class="node">
<title>node_32</title>
<text text-anchor="middle" x="1018.7132" y="-85.8" font-family="Times,serif" font-size="14.00" fill="#000000">expmod(13, 0, 19)</text>
</g>
<!-- node_31&#45;&gt;node_32 -->
<g id="edge32" class="edge">
<title>node_31&#45;&gt;node_32</title>
<path fill="none" stroke="#000000" d="M1018.7132,-143.8314C1018.7132,-136.131 1018.7132,-126.9743 1018.7132,-118.4166"/>
<polygon fill="#000000" stroke="#000000" points="1022.2133,-118.4132 1018.7132,-108.4133 1015.2133,-118.4133 1022.2133,-118.4132"/>
</g>
<!-- node_33 -->
<g id="node34" class="node">
<title>node_33</title>
<text text-anchor="middle" x="1018.7132" y="-13.8" font-family="Times,serif" font-size="14.00" fill="#000000">1</text>
</g>
<!-- node_32&#45;&gt;node_33 -->
<g id="edge33" class="edge">
<title>node_32&#45;&gt;node_33</title>
<path fill="none" stroke="#000000" d="M1018.7132,-71.8314C1018.7132,-64.131 1018.7132,-54.9743 1018.7132,-46.4166"/>
<polygon fill="#000000" stroke="#000000" points="1022.2133,-46.4132 1018.7132,-36.4133 1015.2133,-46.4133 1022.2133,-46.4132"/>
</g>
<!-- node_35 -->
<g id="node36" class="node">
<title>node_35</title>
<text text-anchor="middle" x="1395.7132" y="-373.8" font-family="Times,serif" font-size="14.00" fill="#000000">expmod(13, 8, 19)</text>
</g>
<!-- node_34&#45;&gt;node_35 -->
<g id="edge35" class="edge">
<title>node_34&#45;&gt;node_35</title>
<path fill="none" stroke="#000000" d="M1293.2841,-431.8314C1311.1317,-422.4516 1333.0906,-410.9112 1352.0932,-400.9244"/>
<polygon fill="#000000" stroke="#000000" points="1353.9296,-403.9132 1361.1534,-396.1628 1350.6731,-397.7168 1353.9296,-403.9132"/>
</g>
<!-- node_36 -->
<g id="node37" class="node">
<title>node_36</title>
<text text-anchor="middle" x="1395.7132" y="-301.8" font-family="Times,serif" font-size="14.00" fill="#000000">expmod(13, 4, 19)</text>
</g>
<!-- node_35&#45;&gt;node_36 -->
<g id="edge36" class="edge">
<title>node_35&#45;&gt;node_36</title>
<path fill="none" stroke="#000000" d="M1395.7132,-359.8314C1395.7132,-352.131 1395.7132,-342.9743 1395.7132,-334.4166"/>
<polygon fill="#000000" stroke="#000000" points="1399.2133,-334.4132 1395.7132,-324.4133 1392.2133,-334.4133 1399.2133,-334.4132"/>
</g>
<!-- node_51 -->
<g id="node52" class="node">
<title>node_51</title>
<text text-anchor="middle" x="1772.7132" y="-301.8" font-family="Times,serif" font-size="14.00" fill="#000000">expmod(13, 4, 19)</text>
</g>
<!-- node_35&#45;&gt;node_51 -->
<g id="edge51" class="edge">
<title>node_35&#45;&gt;node_51</title>
<path fill="none" stroke="#000000" d="M1455.45,-366.5914C1522.6344,-353.7604 1631.6212,-332.9459 1702.7366,-319.3642"/>
<polygon fill="#000000" stroke="#000000" points="1703.7788,-322.7285 1712.9447,-317.4147 1702.4656,-315.8528 1703.7788,-322.7285"/>
</g>
<!-- node_37 -->
<g id="node38" class="node">
<title>node_37</title>
<text text-anchor="middle" x="1292.7132" y="-229.8" font-family="Times,serif" font-size="14.00" fill="#000000">expmod(13, 2, 19)</text>
</g>
<!-- node_36&#45;&gt;node_37 -->
<g id="edge37" class="edge">
<title>node_36&#45;&gt;node_37</title>
<path fill="none" stroke="#000000" d="M1369.722,-287.8314C1356.7916,-278.7927 1340.991,-267.7476 1327.0749,-258.0198"/>
<polygon fill="#000000" stroke="#000000" points="1328.8975,-255.0235 1318.6961,-252.1628 1324.8869,-260.7608 1328.8975,-255.0235"/>
</g>
<!-- node_44 -->
<g id="node45" class="node">
<title>node_44</title>
<text text-anchor="middle" x="1429.7132" y="-229.8" font-family="Times,serif" font-size="14.00" fill="#000000">expmod(13, 2, 19)</text>
</g>
<!-- node_36&#45;&gt;node_44 -->
<g id="edge44" class="edge">
<title>node_36&#45;&gt;node_44</title>
<path fill="none" stroke="#000000" d="M1404.2928,-287.8314C1408.049,-279.8771 1412.5389,-270.369 1416.693,-261.5723"/>
<polygon fill="#000000" stroke="#000000" points="1419.9128,-262.9503 1421.018,-252.4133 1413.5831,-259.9612 1419.9128,-262.9503"/>
</g>
<!-- node_38 -->
<g id="node39" class="node">
<title>node_38</title>
<text text-anchor="middle" x="1155.7132" y="-157.8" font-family="Times,serif" font-size="14.00" fill="#000000">expmod(13, 1, 19)</text>
</g>
<!-- node_37&#45;&gt;node_38 -->
<g id="edge38" class="edge">
<title>node_37&#45;&gt;node_38</title>
<path fill="none" stroke="#000000" d="M1258.1423,-215.8314C1240.2947,-206.4516 1218.3358,-194.9112 1199.3332,-184.9244"/>
<polygon fill="#000000" stroke="#000000" points="1200.7533,-181.7168 1190.273,-180.1628 1197.4968,-187.9132 1200.7533,-181.7168"/>
</g>
<!-- node_41 -->
<g id="node42" class="node">
<title>node_41</title>
<text text-anchor="middle" x="1292.7132" y="-157.8" font-family="Times,serif" font-size="14.00" fill="#000000">expmod(13, 1, 19)</text>
</g>
<!-- node_37&#45;&gt;node_41 -->
<g id="edge41" class="edge">
<title>node_37&#45;&gt;node_41</title>
<path fill="none" stroke="#000000" d="M1292.7132,-215.8314C1292.7132,-208.131 1292.7132,-198.9743 1292.7132,-190.4166"/>
<polygon fill="#000000" stroke="#000000" points="1296.2133,-190.4132 1292.7132,-180.4133 1289.2133,-190.4133 1296.2133,-190.4132"/>
</g>
<!-- node_39 -->
<g id="node40" class="node">
<title>node_39</title>
<text text-anchor="middle" x="1155.7132" y="-85.8" font-family="Times,serif" font-size="14.00" fill="#000000">expmod(13, 0, 19)</text>
</g>
<!-- node_38&#45;&gt;node_39 -->
<g id="edge39" class="edge">
<title>node_38&#45;&gt;node_39</title>
<path fill="none" stroke="#000000" d="M1155.7132,-143.8314C1155.7132,-136.131 1155.7132,-126.9743 1155.7132,-118.4166"/>
<polygon fill="#000000" stroke="#000000" points="1159.2133,-118.4132 1155.7132,-108.4133 1152.2133,-118.4133 1159.2133,-118.4132"/>
</g>
<!-- node_40 -->
<g id="node41" class="node">
<title>node_40</title>
<text text-anchor="middle" x="1155.7132" y="-13.8" font-family="Times,serif" font-size="14.00" fill="#000000">1</text>
</g>
<!-- node_39&#45;&gt;node_40 -->
<g id="edge40" class="edge">
<title>node_39&#45;&gt;node_40</title>
<path fill="none" stroke="#000000" d="M1155.7132,-71.8314C1155.7132,-64.131 1155.7132,-54.9743 1155.7132,-46.4166"/>
<polygon fill="#000000" stroke="#000000" points="1159.2133,-46.4132 1155.7132,-36.4133 1152.2133,-46.4133 1159.2133,-46.4132"/>
</g>
<!-- node_42 -->
<g id="node43" class="node">
<title>node_42</title>
<text text-anchor="middle" x="1292.7132" y="-85.8" font-family="Times,serif" font-size="14.00" fill="#000000">expmod(13, 0, 19)</text>
</g>
<!-- node_41&#45;&gt;node_42 -->
<g id="edge42" class="edge">
<title>node_41&#45;&gt;node_42</title>
<path fill="none" stroke="#000000" d="M1292.7132,-143.8314C1292.7132,-136.131 1292.7132,-126.9743 1292.7132,-118.4166"/>
<polygon fill="#000000" stroke="#000000" points="1296.2133,-118.4132 1292.7132,-108.4133 1289.2133,-118.4133 1296.2133,-118.4132"/>
</g>
<!-- node_43 -->
<g id="node44" class="node">
<title>node_43</title>
<text text-anchor="middle" x="1292.7132" y="-13.8" font-family="Times,serif" font-size="14.00" fill="#000000">1</text>
</g>
<!-- node_42&#45;&gt;node_43 -->
<g id="edge43" class="edge">
<title>node_42&#45;&gt;node_43</title>
<path fill="none" stroke="#000000" d="M1292.7132,-71.8314C1292.7132,-64.131 1292.7132,-54.9743 1292.7132,-46.4166"/>
<polygon fill="#000000" stroke="#000000" points="1296.2133,-46.4132 1292.7132,-36.4133 1289.2133,-46.4133 1296.2133,-46.4132"/>
</g>
<!-- node_45 -->
<g id="node46" class="node">
<title>node_45</title>
<text text-anchor="middle" x="1429.7132" y="-157.8" font-family="Times,serif" font-size="14.00" fill="#000000">expmod(13, 1, 19)</text>
</g>
<!-- node_44&#45;&gt;node_45 -->
<g id="edge45" class="edge">
<title>node_44&#45;&gt;node_45</title>
<path fill="none" stroke="#000000" d="M1429.7132,-215.8314C1429.7132,-208.131 1429.7132,-198.9743 1429.7132,-190.4166"/>
<polygon fill="#000000" stroke="#000000" points="1433.2133,-190.4132 1429.7132,-180.4133 1426.2133,-190.4133 1433.2133,-190.4132"/>
</g>
<!-- node_48 -->
<g id="node49" class="node">
<title>node_48</title>
<text text-anchor="middle" x="1566.7132" y="-157.8" font-family="Times,serif" font-size="14.00" fill="#000000">expmod(13, 1, 19)</text>
</g>
<!-- node_44&#45;&gt;node_48 -->
<g id="edge48" class="edge">
<title>node_44&#45;&gt;node_48</title>
<path fill="none" stroke="#000000" d="M1464.2841,-215.8314C1482.1317,-206.4516 1504.0906,-194.9112 1523.0932,-184.9244"/>
<polygon fill="#000000" stroke="#000000" points="1524.9296,-187.9132 1532.1534,-180.1628 1521.6731,-181.7168 1524.9296,-187.9132"/>
</g>
<!-- node_46 -->
<g id="node47" class="node">
<title>node_46</title>
<text text-anchor="middle" x="1429.7132" y="-85.8" font-family="Times,serif" font-size="14.00" fill="#000000">expmod(13, 0, 19)</text>
</g>
<!-- node_45&#45;&gt;node_46 -->
<g id="edge46" class="edge">
<title>node_45&#45;&gt;node_46</title>
<path fill="none" stroke="#000000" d="M1429.7132,-143.8314C1429.7132,-136.131 1429.7132,-126.9743 1429.7132,-118.4166"/>
<polygon fill="#000000" stroke="#000000" points="1433.2133,-118.4132 1429.7132,-108.4133 1426.2133,-118.4133 1433.2133,-118.4132"/>
</g>
<!-- node_47 -->
<g id="node48" class="node">
<title>node_47</title>
<text text-anchor="middle" x="1429.7132" y="-13.8" font-family="Times,serif" font-size="14.00" fill="#000000">1</text>
</g>
<!-- node_46&#45;&gt;node_47 -->
<g id="edge47" class="edge">
<title>node_46&#45;&gt;node_47</title>
<path fill="none" stroke="#000000" d="M1429.7132,-71.8314C1429.7132,-64.131 1429.7132,-54.9743 1429.7132,-46.4166"/>
<polygon fill="#000000" stroke="#000000" points="1433.2133,-46.4132 1429.7132,-36.4133 1426.2133,-46.4133 1433.2133,-46.4132"/>
</g>
<!-- node_49 -->
<g id="node50" class="node">
<title>node_49</title>
<text text-anchor="middle" x="1566.7132" y="-85.8" font-family="Times,serif" font-size="14.00" fill="#000000">expmod(13, 0, 19)</text>
</g>
<!-- node_48&#45;&gt;node_49 -->
<g id="edge49" class="edge">
<title>node_48&#45;&gt;node_49</title>
<path fill="none" stroke="#000000" d="M1566.7132,-143.8314C1566.7132,-136.131 1566.7132,-126.9743 1566.7132,-118.4166"/>
<polygon fill="#000000" stroke="#000000" points="1570.2133,-118.4132 1566.7132,-108.4133 1563.2133,-118.4133 1570.2133,-118.4132"/>
</g>
<!-- node_50 -->
<g id="node51" class="node">
<title>node_50</title>
<text text-anchor="middle" x="1566.7132" y="-13.8" font-family="Times,serif" font-size="14.00" fill="#000000">1</text>
</g>
<!-- node_49&#45;&gt;node_50 -->
<g id="edge50" class="edge">
<title>node_49&#45;&gt;node_50</title>
<path fill="none" stroke="#000000" d="M1566.7132,-71.8314C1566.7132,-64.131 1566.7132,-54.9743 1566.7132,-46.4166"/>
<polygon fill="#000000" stroke="#000000" points="1570.2133,-46.4132 1566.7132,-36.4133 1563.2133,-46.4133 1570.2133,-46.4132"/>
</g>
<!-- node_52 -->
<g id="node53" class="node">
<title>node_52</title>
<text text-anchor="middle" x="1772.7132" y="-229.8" font-family="Times,serif" font-size="14.00" fill="#000000">expmod(13, 2, 19)</text>
</g>
<!-- node_51&#45;&gt;node_52 -->
<g id="edge52" class="edge">
<title>node_51&#45;&gt;node_52</title>
<path fill="none" stroke="#000000" d="M1772.7132,-287.8314C1772.7132,-280.131 1772.7132,-270.9743 1772.7132,-262.4166"/>
<polygon fill="#000000" stroke="#000000" points="1776.2133,-262.4132 1772.7132,-252.4133 1769.2133,-262.4133 1776.2133,-262.4132"/>
</g>
<!-- node_59 -->
<g id="node60" class="node">
<title>node_59</title>
<text text-anchor="middle" x="1977.7132" y="-229.8" font-family="Times,serif" font-size="14.00" fill="#000000">expmod(13, 2, 19)</text>
</g>
<!-- node_51&#45;&gt;node_59 -->
<g id="edge59" class="edge">
<title>node_51&#45;&gt;node_59</title>
<path fill="none" stroke="#000000" d="M1824.1787,-287.9243C1852.2034,-278.0815 1887.0616,-265.8386 1916.4772,-255.5073"/>
<polygon fill="#000000" stroke="#000000" points="1917.9513,-258.6992 1926.2265,-252.0831 1915.6316,-252.0947 1917.9513,-258.6992"/>
</g>
<!-- node_53 -->
<g id="node54" class="node">
<title>node_53</title>
<text text-anchor="middle" x="1703.7132" y="-157.8" font-family="Times,serif" font-size="14.00" fill="#000000">expmod(13, 1, 19)</text>
</g>
<!-- node_52&#45;&gt;node_53 -->
<g id="edge53" class="edge">
<title>node_52&#45;&gt;node_53</title>
<path fill="none" stroke="#000000" d="M1755.3016,-215.8314C1747.1922,-207.3694 1737.3976,-197.1489 1728.5312,-187.8971"/>
<polygon fill="#000000" stroke="#000000" points="1730.8053,-185.2115 1721.3592,-180.4133 1725.7514,-190.0549 1730.8053,-185.2115"/>
</g>
<!-- node_56 -->
<g id="node57" class="node">
<title>node_56</title>
<text text-anchor="middle" x="1840.7132" y="-157.8" font-family="Times,serif" font-size="14.00" fill="#000000">expmod(13, 1, 19)</text>
</g>
<!-- node_52&#45;&gt;node_56 -->
<g id="edge56" class="edge">
<title>node_52&#45;&gt;node_56</title>
<path fill="none" stroke="#000000" d="M1789.8725,-215.8314C1797.8643,-207.3694 1807.517,-197.1489 1816.2548,-187.8971"/>
<polygon fill="#000000" stroke="#000000" points="1819.0012,-190.0866 1823.3229,-180.4133 1813.9121,-185.2802 1819.0012,-190.0866"/>
</g>
<!-- node_54 -->
<g id="node55" class="node">
<title>node_54</title>
<text text-anchor="middle" x="1703.7132" y="-85.8" font-family="Times,serif" font-size="14.00" fill="#000000">expmod(13, 0, 19)</text>
</g>
<!-- node_53&#45;&gt;node_54 -->
<g id="edge54" class="edge">
<title>node_53&#45;&gt;node_54</title>
<path fill="none" stroke="#000000" d="M1703.7132,-143.8314C1703.7132,-136.131 1703.7132,-126.9743 1703.7132,-118.4166"/>
<polygon fill="#000000" stroke="#000000" points="1707.2133,-118.4132 1703.7132,-108.4133 1700.2133,-118.4133 1707.2133,-118.4132"/>
</g>
<!-- node_55 -->
<g id="node56" class="node">
<title>node_55</title>
<text text-anchor="middle" x="1703.7132" y="-13.8" font-family="Times,serif" font-size="14.00" fill="#000000">1</text>
</g>
<!-- node_54&#45;&gt;node_55 -->
<g id="edge55" class="edge">
<title>node_54&#45;&gt;node_55</title>
<path fill="none" stroke="#000000" d="M1703.7132,-71.8314C1703.7132,-64.131 1703.7132,-54.9743 1703.7132,-46.4166"/>
<polygon fill="#000000" stroke="#000000" points="1707.2133,-46.4132 1703.7132,-36.4133 1700.2133,-46.4133 1707.2133,-46.4132"/>
</g>
<!-- node_57 -->
<g id="node58" class="node">
<title>node_57</title>
<text text-anchor="middle" x="1840.7132" y="-85.8" font-family="Times,serif" font-size="14.00" fill="#000000">expmod(13, 0, 19)</text>
</g>
<!-- node_56&#45;&gt;node_57 -->
<g id="edge57" class="edge">
<title>node_56&#45;&gt;node_57</title>
<path fill="none" stroke="#000000" d="M1840.7132,-143.8314C1840.7132,-136.131 1840.7132,-126.9743 1840.7132,-118.4166"/>
<polygon fill="#000000" stroke="#000000" points="1844.2133,-118.4132 1840.7132,-108.4133 1837.2133,-118.4133 1844.2133,-118.4132"/>
</g>
<!-- node_58 -->
<g id="node59" class="node">
<title>node_58</title>
<text text-anchor="middle" x="1840.7132" y="-13.8" font-family="Times,serif" font-size="14.00" fill="#000000">1</text>
</g>
<!-- node_57&#45;&gt;node_58 -->
<g id="edge58" class="edge">
<title>node_57&#45;&gt;node_58</title>
<path fill="none" stroke="#000000" d="M1840.7132,-71.8314C1840.7132,-64.131 1840.7132,-54.9743 1840.7132,-46.4166"/>
<polygon fill="#000000" stroke="#000000" points="1844.2133,-46.4132 1840.7132,-36.4133 1837.2133,-46.4133 1844.2133,-46.4132"/>
</g>
<!-- node_60 -->
<g id="node61" class="node">
<title>node_60</title>
<text text-anchor="middle" x="1977.7132" y="-157.8" font-family="Times,serif" font-size="14.00" fill="#000000">expmod(13, 1, 19)</text>
</g>
<!-- node_59&#45;&gt;node_60 -->
<g id="edge60" class="edge">
<title>node_59&#45;&gt;node_60</title>
<path fill="none" stroke="#000000" d="M1977.7132,-215.8314C1977.7132,-208.131 1977.7132,-198.9743 1977.7132,-190.4166"/>
<polygon fill="#000000" stroke="#000000" points="1981.2133,-190.4132 1977.7132,-180.4133 1974.2133,-190.4133 1981.2133,-190.4132"/>
</g>
<!-- node_63 -->
<g id="node64" class="node">
<title>node_63</title>
<text text-anchor="middle" x="2114.7132" y="-157.8" font-family="Times,serif" font-size="14.00" fill="#000000">expmod(13, 1, 19)</text>
</g>
<!-- node_59&#45;&gt;node_63 -->
<g id="edge63" class="edge">
<title>node_59&#45;&gt;node_63</title>
<path fill="none" stroke="#000000" d="M2012.2841,-215.8314C2030.1317,-206.4516 2052.0906,-194.9112 2071.0932,-184.9244"/>
<polygon fill="#000000" stroke="#000000" points="2072.9296,-187.9132 2080.1534,-180.1628 2069.6731,-181.7168 2072.9296,-187.9132"/>
</g>
<!-- node_61 -->
<g id="node62" class="node">
<title>node_61</title>
<text text-anchor="middle" x="1977.7132" y="-85.8" font-family="Times,serif" font-size="14.00" fill="#000000">expmod(13, 0, 19)</text>
</g>
<!-- node_60&#45;&gt;node_61 -->
<g id="edge61" class="edge">
<title>node_60&#45;&gt;node_61</title>
<path fill="none" stroke="#000000" d="M1977.7132,-143.8314C1977.7132,-136.131 1977.7132,-126.9743 1977.7132,-118.4166"/>
<polygon fill="#000000" stroke="#000000" points="1981.2133,-118.4132 1977.7132,-108.4133 1974.2133,-118.4133 1981.2133,-118.4132"/>
</g>
<!-- node_62 -->
<g id="node63" class="node">
<title>node_62</title>
<text text-anchor="middle" x="1977.7132" y="-13.8" font-family="Times,serif" font-size="14.00" fill="#000000">1</text>
</g>
<!-- node_61&#45;&gt;node_62 -->
<g id="edge62" class="edge">
<title>node_61&#45;&gt;node_62</title>
<path fill="none" stroke="#000000" d="M1977.7132,-71.8314C1977.7132,-64.131 1977.7132,-54.9743 1977.7132,-46.4166"/>
<polygon fill="#000000" stroke="#000000" points="1981.2133,-46.4132 1977.7132,-36.4133 1974.2133,-46.4133 1981.2133,-46.4132"/>
</g>
<!-- node_64 -->
<g id="node65" class="node">
<title>node_64</title>
<text text-anchor="middle" x="2114.7132" y="-85.8" font-family="Times,serif" font-size="14.00" fill="#000000">expmod(13, 0, 19)</text>
</g>
<!-- node_63&#45;&gt;node_64 -->
<g id="edge64" class="edge">
<title>node_63&#45;&gt;node_64</title>
<path fill="none" stroke="#000000" d="M2114.7132,-143.8314C2114.7132,-136.131 2114.7132,-126.9743 2114.7132,-118.4166"/>
<polygon fill="#000000" stroke="#000000" points="2118.2133,-118.4132 2114.7132,-108.4133 2111.2133,-118.4133 2118.2133,-118.4132"/>
</g>
<!-- node_65 -->
<g id="node66" class="node">
<title>node_65</title>
<text text-anchor="middle" x="2114.7132" y="-13.8" font-family="Times,serif" font-size="14.00" fill="#000000">1</text>
</g>
<!-- node_64&#45;&gt;node_65 -->
<g id="edge65" class="edge">
<title>node_64&#45;&gt;node_65</title>
<path fill="none" stroke="#000000" d="M2114.7132,-71.8314C2114.7132,-64.131 2114.7132,-54.9743 2114.7132,-46.4166"/>
<polygon fill="#000000" stroke="#000000" points="2118.2133,-46.4132 2114.7132,-36.4133 2111.2133,-46.4133 2118.2133,-46.4132"/>
</g>
</g>
</svg>